  0
SECTION
  2
HEADER
  9
$ACADVER
  1
AC1009
  9
$EXTMIN
 10
0.0
 20
0.0
 30
0.0
  9
$EXTMAX
 10
1000.0
 20
1000.0
 30
0.0
  9
$FILLMODE
 70
 0
  9
$SPLFRAME
 70
 1
  0
ENDSEC
  0
SECTION
  2
TABLES
  0
TABLE
  2
LAYER
 70
1
  0
LAYER
  2
0
 70
     0
 62
     7
  6
CONTINUOUS
  0
ENDTAB
  0
ENDSEC
  0
SECTION
  2
ENTITIES
  0
LINE
  8
0
 62
     0
 10
295.345
 20
88.2798
 30
0.0
 11
295.542
 21
88.2731
 31
0.0
  0
LINE
  8
0
 62
     0
 10
295.542
 20
88.2731
 30
0.0
 11
295.737
 21
88.2495
 31
0.0
  0
LINE
  8
0
 62
     0
 10
295.737
 20
88.2495
 30
0.0
 11
295.928
 21
88.211
 31
0.0
  0
LINE
  8
0
 62
     0
 10
295.928
 20
88.211
 30
0.0
 11
296.118
 21
88.1585
 31
0.0
  0
LINE
  8
0
 62
     0
 10
296.118
 20
88.1585
 30
0.0
 11
296.302
 21
88.0897
 31
0.0
  0
LINE
  8
0
 62
     0
 10
296.302
 20
88.0897
 30
0.0
 11
296.479
 21
88.0085
 31
0.0
  0
LINE
  8
0
 62
     0
 10
296.479
 20
88.0085
 30
0.0
 11
296.652
 21
87.9119
 31
0.0
  0
LINE
  8
0
 62
     0
 10
296.652
 20
87.9119
 30
0.0
 11
296.814
 21
87.8032
 31
0.0
  0
LINE
  8
0
 62
     0
 10
296.814
 20
87.8032
 30
0.0
 11
296.969
 21
87.6819
 31
0.0
  0
LINE
  8
0
 62
     0
 10
296.969
 20
87.6819
 30
0.0
 11
297.113
 21
87.5482
 31
0.0
  0
LINE
  8
0
 62
     0
 10
297.113
 20
87.5482
 30
0.0
 11
297.247
 21
87.4049
 31
0.0
  0
LINE
  8
0
 62
     0
 10
297.247
 20
87.4049
 30
0.0
 11
297.368
 21
87.2504
 31
0.0
  0
LINE
  8
0
 62
     0
 10
297.368
 20
87.2504
 30
0.0
 11
297.477
 21
87.0878
 31
0.0
  0
LINE
  8
0
 62
     0
 10
297.477
 20
87.0878
 30
0.0
 11
297.572
 21
86.9156
 31
0.0
  0
LINE
  8
0
 62
     0
 10
297.572
 20
86.9156
 30
0.0
 11
297.655
 21
86.7378
 31
0.0
  0
LINE
  8
0
 62
     0
 10
297.655
 20
86.7378
 30
0.0
 11
297.723
 21
86.5533
 31
0.0
  0
LINE
  8
0
 62
     0
 10
297.723
 20
86.5533
 30
0.0
 11
297.776
 21
86.3646
 31
0.0
  0
LINE
  8
0
 62
     0
 10
297.776
 20
86.3646
 30
0.0
 11
297.815
 21
86.173
 31
0.0
  0
LINE
  8
0
 62
     0
 10
297.815
 20
86.173
 30
0.0
 11
297.838
 21
85.9772
 31
0.0
  0
LINE
  8
0
 62
     0
 10
297.838
 20
85.9772
 30
0.0
 11
297.846
 21
85.78
 31
0.0
  0
LINE
  8
0
 62
     0
 10
297.846
 20
85.78
 30
0.0
 11
297.846
 21
2.57969
 31
0.0
  0
LINE
  8
0
 62
     0
 10
297.846
 20
2.57969
 30
0.0
 11
297.838
 21
2.38263
 31
0.0
  0
LINE
  8
0
 62
     0
 10
297.838
 20
2.38263
 30
0.0
 11
297.815
 21
2.18833
 31
0.0
  0
LINE
  8
0
 62
     0
 10
297.815
 20
2.18833
 30
0.0
 11
297.776
 21
1.99678
 31
0.0
  0
LINE
  8
0
 62
     0
 10
297.776
 20
1.99678
 30
0.0
 11
297.723
 21
1.80661
 31
0.0
  0
LINE
  8
0
 62
     0
 10
297.723
 20
1.80661
 30
0.0
 11
297.655
 21
1.62333
 31
0.0
  0
LINE
  8
0
 62
     0
 10
297.655
 20
1.62333
 30
0.0
 11
297.572
 21
1.44556
 31
0.0
  0
LINE
  8
0
 62
     0
 10
297.572
 20
1.44556
 30
0.0
 11
297.477
 21
1.27331
 31
0.0
  0
LINE
  8
0
 62
     0
 10
297.477
 20
1.27331
 30
0.0
 11
297.368
 21
1.1107
 31
0.0
  0
LINE
  8
0
 62
     0
 10
297.368
 20
1.1107
 30
0.0
 11
297.247
 21
0.956359
 31
0.0
  0
LINE
  8
0
 62
     0
 10
297.247
 20
0.956359
 30
0.0
 11
297.113
 21
0.811664
 31
0.0
  0
LINE
  8
0
 62
     0
 10
297.113
 20
0.811664
 30
0.0
 11
296.969
 21
0.677997
 31
0.0
  0
LINE
  8
0
 62
     0
 10
296.969
 20
0.677997
 30
0.0
 11
296.814
 21
0.556729
 31
0.0
  0
LINE
  8
0
 62
     0
 10
296.814
 20
0.556729
 30
0.0
 11
296.652
 21
0.447862
 31
0.0
  0
LINE
  8
0
 62
     0
 10
296.652
 20
0.447862
 30
0.0
 11
296.479
 21
0.352778
 31
0.0
  0
LINE
  8
0
 62
     0
 10
296.479
 20
0.352778
 30
0.0
 11
296.302
 21
0.270095
 31
0.0
  0
LINE
  8
0
 62
     0
 10
296.302
 20
0.270095
 30
0.0
 11
296.118
 21
0.202572
 31
0.0
  0
LINE
  8
0
 62
     0
 10
296.118
 20
0.202572
 30
0.0
 11
295.928
 21
0.148828
 31
0.0
  0
LINE
  8
0
 62
     0
 10
295.928
 20
0.148828
 30
0.0
 11
295.737
 21
0.110243
 31
0.0
  0
LINE
  8
0
 62
     0
 10
295.737
 20
0.110243
 30
0.0
 11
295.542
 21
0.0868165
 31
0.0
  0
LINE
  8
0
 62
     0
 10
295.542
 20
0.0868165
 30
0.0
 11
295.345
 21
0.0785481
 31
0.0
  0
LINE
  8
0
 62
     0
 10
295.345
 20
0.0785481
 30
0.0
 11
2.59485
 21
0.0785481
 31
0.0
  0
LINE
  8
0
 62
     0
 10
2.59485
 20
0.0785481
 30
0.0
 11
2.39779
 21
0.0868165
 31
0.0
  0
LINE
  8
0
 62
     0
 10
2.39779
 20
0.0868165
 30
0.0
 11
2.20211
 21
0.110243
 31
0.0
  0
LINE
  8
0
 62
     0
 10
2.20211
 20
0.110243
 30
0.0
 11
2.01056
 21
0.148828
 31
0.0
  0
LINE
  8
0
 62
     0
 10
2.01056
 20
0.148828
 30
0.0
 11
1.82177
 21
0.202572
 31
0.0
  0
LINE
  8
0
 62
     0
 10
1.82177
 20
0.202572
 30
0.0
 11
1.63711
 21
0.270095
 31
0.0
  0
LINE
  8
0
 62
     0
 10
1.63711
 20
0.270095
 30
0.0
 11
1.45934
 21
0.352778
 31
0.0
  0
LINE
  8
0
 62
     0
 10
1.45934
 20
0.352778
 30
0.0
 11
1.28709
 21
0.447862
 31
0.0
  0
LINE
  8
0
 62
     0
 10
1.28709
 20
0.447862
 30
0.0
 11
1.12448
 21
0.556729
 31
0.0
  0
LINE
  8
0
 62
     0
 10
1.12448
 20
0.556729
 30
0.0
 11
0.970139
 21
0.677997
 31
0.0
  0
LINE
  8
0
 62
     0
 10
0.970139
 20
0.677997
 30
0.0
 11
0.826823
 21
0.811664
 31
0.0
  0
LINE
  8
0
 62
     0
 10
0.826823
 20
0.811664
 30
0.0
 11
0.693152
 21
0.956359
 31
0.0
  0
LINE
  8
0
 62
     0
 10
0.693152
 20
0.956359
 30
0.0
 11
0.571885
 21
1.1107
 31
0.0
  0
LINE
  8
0
 62
     0
 10
0.571885
 20
1.1107
 30
0.0
 11
0.463021
 21
1.27331
 31
0.0
  0
LINE
  8
0
 62
     0
 10
0.463021
 20
1.27331
 30
0.0
 11
0.366557
 21
1.44556
 31
0.0
  0
LINE
  8
0
 62
     0
 10
0.366557
 20
1.44556
 30
0.0
 11
0.285254
 21
1.62333
 31
0.0
  0
LINE
  8
0
 62
     0
 10
0.285254
 20
1.62333
 30
0.0
 11
0.216352
 21
1.80661
 31
0.0
  0
LINE
  8
0
 62
     0
 10
0.216352
 20
1.80661
 30
0.0
 11
0.163987
 21
1.99678
 31
0.0
  0
LINE
  8
0
 62
     0
 10
0.163987
 20
1.99678
 30
0.0
 11
0.125402
 21
2.18833
 31
0.0
  0
LINE
  8
0
 62
     0
 10
0.125402
 20
2.18833
 30
0.0
 11
0.101975
 21
2.38263
 31
0.0
  0
LINE
  8
0
 62
     0
 10
0.101975
 20
2.38263
 30
0.0
 11
0.0937066
 21
2.57969
 31
0.0
  0
LINE
  8
0
 62
     0
 10
0.0937066
 20
2.57969
 30
0.0
 11
0.0950846
 21
85.78
 31
0.0
  0
LINE
  8
0
 62
     0
 10
0.0950846
 20
85.78
 30
0.0
 11
0.101975
 21
85.9772
 31
0.0
  0
LINE
  8
0
 62
     0
 10
0.101975
 20
85.9772
 30
0.0
 11
0.125402
 21
86.173
 31
0.0
  0
LINE
  8
0
 62
     0
 10
0.125402
 20
86.173
 30
0.0
 11
0.163987
 21
86.3646
 31
0.0
  0
LINE
  8
0
 62
     0
 10
0.163987
 20
86.3646
 30
0.0
 11
0.216352
 21
86.5533
 31
0.0
  0
LINE
  8
0
 62
     0
 10
0.216352
 20
86.5533
 30
0.0
 11
0.285254
 21
86.7378
 31
0.0
  0
LINE
  8
0
 62
     0
 10
0.285254
 20
86.7378
 30
0.0
 11
0.366557
 21
86.9156
 31
0.0
  0
LINE
  8
0
 62
     0
 10
0.366557
 20
86.9156
 30
0.0
 11
0.463021
 21
87.0878
 31
0.0
  0
LINE
  8
0
 62
     0
 10
0.463021
 20
87.0878
 30
0.0
 11
0.571885
 21
87.2504
 31
0.0
  0
LINE
  8
0
 62
     0
 10
0.571885
 20
87.2504
 30
0.0
 11
0.693152
 21
87.4049
 31
0.0
  0
LINE
  8
0
 62
     0
 10
0.693152
 20
87.4049
 30
0.0
 11
0.826823
 21
87.5482
 31
0.0
  0
LINE
  8
0
 62
     0
 10
0.826823
 20
87.5482
 30
0.0
 11
0.970139
 21
87.6819
 31
0.0
  0
LINE
  8
0
 62
     0
 10
0.970139
 20
87.6819
 30
0.0
 11
1.12448
 21
87.8032
 31
0.0
  0
LINE
  8
0
 62
     0
 10
1.12448
 20
87.8032
 30
0.0
 11
1.28709
 21
87.9119
 31
0.0
  0
LINE
  8
0
 62
     0
 10
1.28709
 20
87.9119
 30
0.0
 11
1.45934
 21
88.0085
 31
0.0
  0
LINE
  8
0
 62
     0
 10
1.45934
 20
88.0085
 30
0.0
 11
1.63711
 21
88.0897
 31
0.0
  0
LINE
  8
0
 62
     0
 10
1.63711
 20
88.0897
 30
0.0
 11
1.82177
 21
88.1585
 31
0.0
  0
LINE
  8
0
 62
     0
 10
1.82177
 20
88.1585
 30
0.0
 11
2.01056
 21
88.211
 31
0.0
  0
LINE
  8
0
 62
     0
 10
2.01056
 20
88.211
 30
0.0
 11
2.20211
 21
88.2495
 31
0.0
  0
LINE
  8
0
 62
     0
 10
2.20211
 20
88.2495
 30
0.0
 11
2.39779
 21
88.2731
 31
0.0
  0
LINE
  8
0
 62
     0
 10
2.39779
 20
88.2731
 30
0.0
 11
2.59485
 21
88.2812
 31
0.0
  0
LINE
  8
0
 62
     0
 10
2.59485
 20
88.2812
 30
0.0
 11
295.345
 21
88.2798
 31
0.0
  0
LINE
  8
0
 62
     0
 10
294.382
 20
4.50617
 30
0.0
 11
293.963
 21
4.2926
 31
0.0
  0
LINE
  8
0
 62
     0
 10
293.963
 20
4.2926
 30
0.0
 11
293.632
 21
3.96187
 31
0.0
  0
LINE
  8
0
 62
     0
 10
293.632
 20
3.96187
 30
0.0
 11
293.419
 21
3.54295
 31
0.0
  0
LINE
  8
0
 62
     0
 10
293.419
 20
3.54295
 30
0.0
 11
293.346
 21
3.07854
 31
0.0
  0
LINE
  8
0
 62
     0
 10
293.346
 20
3.07854
 30
0.0
 11
293.419
 21
2.6169
 31
0.0
  0
LINE
  8
0
 62
     0
 10
293.419
 20
2.6169
 30
0.0
 11
293.632
 21
2.19797
 31
0.0
  0
LINE
  8
0
 62
     0
 10
293.632
 20
2.19797
 30
0.0
 11
293.963
 21
1.86586
 31
0.0
  0
LINE
  8
0
 62
     0
 10
293.963
 20
1.86586
 30
0.0
 11
294.382
 21
1.65365
 31
0.0
  0
LINE
  8
0
 62
     0
 10
294.382
 20
1.65365
 30
0.0
 11
294.846
 21
1.57923
 31
0.0
  0
LINE
  8
0
 62
     0
 10
294.846
 20
1.57923
 30
0.0
 11
295.308
 21
1.65365
 31
0.0
  0
LINE
  8
0
 62
     0
 10
295.308
 20
1.65365
 30
0.0
 11
295.727
 21
1.86586
 31
0.0
  0
LINE
  8
0
 62
     0
 10
295.727
 20
1.86586
 30
0.0
 11
296.059
 21
2.19797
 31
0.0
  0
LINE
  8
0
 62
     0
 10
296.059
 20
2.19797
 30
0.0
 11
296.271
 21
2.6169
 31
0.0
  0
LINE
  8
0
 62
     0
 10
296.271
 20
2.6169
 30
0.0
 11
296.346
 21
3.07854
 31
0.0
  0
LINE
  8
0
 62
     0
 10
296.346
 20
3.07854
 30
0.0
 11
296.271
 21
3.54295
 31
0.0
  0
LINE
  8
0
 62
     0
 10
296.271
 20
3.54295
 30
0.0
 11
296.059
 21
3.96187
 31
0.0
  0
LINE
  8
0
 62
     0
 10
296.059
 20
3.96187
 30
0.0
 11
295.727
 21
4.2926
 31
0.0
  0
LINE
  8
0
 62
     0
 10
295.727
 20
4.2926
 30
0.0
 11
295.308
 21
4.50617
 31
0.0
  0
LINE
  8
0
 62
     0
 10
295.308
 20
4.50617
 30
0.0
 11
294.846
 21
4.57923
 31
0.0
  0
LINE
  8
0
 62
     0
 10
294.846
 20
4.57923
 30
0.0
 11
294.382
 21
4.50617
 31
0.0
  0
LINE
  8
0
 62
     0
 10
197.131
 20
4.50617
 30
0.0
 11
196.712
 21
4.2926
 31
0.0
  0
LINE
  8
0
 62
     0
 10
196.712
 20
4.2926
 30
0.0
 11
196.382
 21
3.96187
 31
0.0
  0
LINE
  8
0
 62
     0
 10
196.382
 20
3.96187
 30
0.0
 11
196.169
 21
3.54295
 31
0.0
  0
LINE
  8
0
 62
     0
 10
196.169
 20
3.54295
 30
0.0
 11
196.095
 21
3.07854
 31
0.0
  0
LINE
  8
0
 62
     0
 10
196.095
 20
3.07854
 30
0.0
 11
196.169
 21
2.6169
 31
0.0
  0
LINE
  8
0
 62
     0
 10
196.169
 20
2.6169
 30
0.0
 11
196.382
 21
2.19797
 31
0.0
  0
LINE
  8
0
 62
     0
 10
196.382
 20
2.19797
 30
0.0
 11
196.712
 21
1.86586
 31
0.0
  0
LINE
  8
0
 62
     0
 10
196.712
 20
1.86586
 30
0.0
 11
197.131
 21
1.65365
 31
0.0
  0
LINE
  8
0
 62
     0
 10
197.131
 20
1.65365
 30
0.0
 11
197.594
 21
1.57923
 31
0.0
  0
LINE
  8
0
 62
     0
 10
197.594
 20
1.57923
 30
0.0
 11
198.059
 21
1.65365
 31
0.0
  0
LINE
  8
0
 62
     0
 10
198.059
 20
1.65365
 30
0.0
 11
198.476
 21
1.86586
 31
0.0
  0
LINE
  8
0
 62
     0
 10
198.476
 20
1.86586
 30
0.0
 11
198.808
 21
2.19797
 31
0.0
  0
LINE
  8
0
 62
     0
 10
198.808
 20
2.19797
 30
0.0
 11
199.022
 21
2.6169
 31
0.0
  0
LINE
  8
0
 62
     0
 10
199.022
 20
2.6169
 30
0.0
 11
199.095
 21
3.07854
 31
0.0
  0
LINE
  8
0
 62
     0
 10
199.095
 20
3.07854
 30
0.0
 11
199.022
 21
3.54295
 31
0.0
  0
LINE
  8
0
 62
     0
 10
199.022
 20
3.54295
 30
0.0
 11
198.808
 21
3.96187
 31
0.0
  0
LINE
  8
0
 62
     0
 10
198.808
 20
3.96187
 30
0.0
 11
198.476
 21
4.2926
 31
0.0
  0
LINE
  8
0
 62
     0
 10
198.476
 20
4.2926
 30
0.0
 11
198.059
 21
4.50617
 31
0.0
  0
LINE
  8
0
 62
     0
 10
198.059
 20
4.50617
 30
0.0
 11
197.594
 21
4.57923
 31
0.0
  0
LINE
  8
0
 62
     0
 10
197.594
 20
4.57923
 30
0.0
 11
197.131
 21
4.50617
 31
0.0
  0
LINE
  8
0
 62
     0
 10
99.8802
 20
4.50617
 30
0.0
 11
99.4625
 21
4.2926
 31
0.0
  0
LINE
  8
0
 62
     0
 10
99.4625
 20
4.2926
 30
0.0
 11
99.1306
 21
3.96187
 31
0.0
  0
LINE
  8
0
 62
     0
 10
99.1306
 20
3.96187
 30
0.0
 11
98.9182
 21
3.54295
 31
0.0
  0
LINE
  8
0
 62
     0
 10
98.9182
 20
3.54295
 30
0.0
 11
98.8452
 21
3.07854
 31
0.0
  0
LINE
  8
0
 62
     0
 10
98.8452
 20
3.07854
 30
0.0
 11
98.9182
 21
2.6169
 31
0.0
  0
LINE
  8
0
 62
     0
 10
98.9182
 20
2.6169
 30
0.0
 11
99.1306
 21
2.19797
 31
0.0
  0
LINE
  8
0
 62
     0
 10
99.1306
 20
2.19797
 30
0.0
 11
99.4625
 21
1.86586
 31
0.0
  0
LINE
  8
0
 62
     0
 10
99.4625
 20
1.86586
 30
0.0
 11
99.8802
 21
1.65365
 31
0.0
  0
LINE
  8
0
 62
     0
 10
99.8802
 20
1.65365
 30
0.0
 11
100.344
 21
1.57923
 31
0.0
  0
LINE
  8
0
 62
     0
 10
100.344
 20
1.57923
 30
0.0
 11
100.808
 21
1.65365
 31
0.0
  0
LINE
  8
0
 62
     0
 10
100.808
 20
1.65365
 30
0.0
 11
101.226
 21
1.86586
 31
0.0
  0
LINE
  8
0
 62
     0
 10
101.226
 20
1.86586
 30
0.0
 11
101.557
 21
2.19797
 31
0.0
  0
LINE
  8
0
 62
     0
 10
101.557
 20
2.19797
 30
0.0
 11
101.771
 21
2.6169
 31
0.0
  0
LINE
  8
0
 62
     0
 10
101.771
 20
2.6169
 30
0.0
 11
101.845
 21
3.07854
 31
0.0
  0
LINE
  8
0
 62
     0
 10
101.845
 20
3.07854
 30
0.0
 11
101.771
 21
3.54295
 31
0.0
  0
LINE
  8
0
 62
     0
 10
101.771
 20
3.54295
 30
0.0
 11
101.557
 21
3.96187
 31
0.0
  0
LINE
  8
0
 62
     0
 10
101.557
 20
3.96187
 30
0.0
 11
101.226
 21
4.2926
 31
0.0
  0
LINE
  8
0
 62
     0
 10
101.226
 20
4.2926
 30
0.0
 11
100.808
 21
4.50617
 31
0.0
  0
LINE
  8
0
 62
     0
 10
100.808
 20
4.50617
 30
0.0
 11
100.344
 21
4.57923
 31
0.0
  0
LINE
  8
0
 62
     0
 10
100.344
 20
4.57923
 30
0.0
 11
99.8802
 21
4.50617
 31
0.0
  0
LINE
  8
0
 62
     0
 10
2.63067
 20
4.50617
 30
0.0
 11
2.21313
 21
4.2926
 31
0.0
  0
LINE
  8
0
 62
     0
 10
2.21313
 20
4.2926
 30
0.0
 11
1.88102
 21
3.96187
 31
0.0
  0
LINE
  8
0
 62
     0
 10
1.88102
 20
3.96187
 30
0.0
 11
1.66743
 21
3.54295
 31
0.0
  0
LINE
  8
0
 62
     0
 10
1.66743
 20
3.54295
 30
0.0
 11
1.59439
 21
3.07854
 31
0.0
  0
LINE
  8
0
 62
     0
 10
1.59439
 20
3.07854
 30
0.0
 11
1.66743
 21
2.6169
 31
0.0
  0
LINE
  8
0
 62
     0
 10
1.66743
 20
2.6169
 30
0.0
 11
1.88102
 21
2.19797
 31
0.0
  0
LINE
  8
0
 62
     0
 10
1.88102
 20
2.19797
 30
0.0
 11
2.21313
 21
1.86586
 31
0.0
  0
LINE
  8
0
 62
     0
 10
2.21313
 20
1.86586
 30
0.0
 11
2.63067
 21
1.65365
 31
0.0
  0
LINE
  8
0
 62
     0
 10
2.63067
 20
1.65365
 30
0.0
 11
3.09507
 21
1.57923
 31
0.0
  0
LINE
  8
0
 62
     0
 10
3.09507
 20
1.57923
 30
0.0
 11
3.55808
 21
1.65365
 31
0.0
  0
LINE
  8
0
 62
     0
 10
3.55808
 20
1.65365
 30
0.0
 11
3.97563
 21
1.86586
 31
0.0
  0
LINE
  8
0
 62
     0
 10
3.97563
 20
1.86586
 30
0.0
 11
4.30773
 21
2.19797
 31
0.0
  0
LINE
  8
0
 62
     0
 10
4.30773
 20
2.19797
 30
0.0
 11
4.52134
 21
2.6169
 31
0.0
  0
LINE
  8
0
 62
     0
 10
4.52134
 20
2.6169
 30
0.0
 11
4.59437
 21
3.07854
 31
0.0
  0
LINE
  8
0
 62
     0
 10
4.59437
 20
3.07854
 30
0.0
 11
4.52134
 21
3.54295
 31
0.0
  0
LINE
  8
0
 62
     0
 10
4.52134
 20
3.54295
 30
0.0
 11
4.30773
 21
3.96187
 31
0.0
  0
LINE
  8
0
 62
     0
 10
4.30773
 20
3.96187
 30
0.0
 11
3.97563
 21
4.2926
 31
0.0
  0
LINE
  8
0
 62
     0
 10
3.97563
 20
4.2926
 30
0.0
 11
3.55808
 21
4.50617
 31
0.0
  0
LINE
  8
0
 62
     0
 10
3.55808
 20
4.50617
 30
0.0
 11
3.09507
 21
4.57923
 31
0.0
  0
LINE
  8
0
 62
     0
 10
3.09507
 20
4.57923
 30
0.0
 11
2.63067
 21
4.50617
 31
0.0
  0
LINE
  8
0
 62
     0
 10
99.8802
 20
86.7075
 30
0.0
 11
99.4625
 21
86.4941
 31
0.0
  0
LINE
  8
0
 62
     0
 10
99.4625
 20
86.4941
 30
0.0
 11
99.1306
 21
86.1617
 31
0.0
  0
LINE
  8
0
 62
     0
 10
99.1306
 20
86.1617
 30
0.0
 11
98.9182
 21
85.7444
 31
0.0
  0
LINE
  8
0
 62
     0
 10
98.9182
 20
85.7444
 30
0.0
 11
98.8452
 21
85.2798
 31
0.0
  0
LINE
  8
0
 62
     0
 10
98.8452
 20
85.2798
 30
0.0
 11
98.9182
 21
84.8169
 31
0.0
  0
LINE
  8
0
 62
     0
 10
98.9182
 20
84.8169
 30
0.0
 11
99.1306
 21
84.3993
 31
0.0
  0
LINE
  8
0
 62
     0
 10
99.1306
 20
84.3993
 30
0.0
 11
99.4625
 21
84.0673
 31
0.0
  0
LINE
  8
0
 62
     0
 10
99.4625
 20
84.0673
 30
0.0
 11
99.8802
 21
83.8535
 31
0.0
  0
LINE
  8
0
 62
     0
 10
99.8802
 20
83.8535
 30
0.0
 11
100.344
 21
83.7805
 31
0.0
  0
LINE
  8
0
 62
     0
 10
100.344
 20
83.7805
 30
0.0
 11
100.808
 21
83.8535
 31
0.0
  0
LINE
  8
0
 62
     0
 10
100.808
 20
83.8535
 30
0.0
 11
101.226
 21
84.0673
 31
0.0
  0
LINE
  8
0
 62
     0
 10
101.226
 20
84.0673
 30
0.0
 11
101.557
 21
84.3993
 31
0.0
  0
LINE
  8
0
 62
     0
 10
101.557
 20
84.3993
 30
0.0
 11
101.771
 21
84.8169
 31
0.0
  0
LINE
  8
0
 62
     0
 10
101.771
 20
84.8169
 30
0.0
 11
101.845
 21
85.2798
 31
0.0
  0
LINE
  8
0
 62
     0
 10
101.845
 20
85.2798
 30
0.0
 11
101.771
 21
85.7444
 31
0.0
  0
LINE
  8
0
 62
     0
 10
101.771
 20
85.7444
 30
0.0
 11
101.557
 21
86.1617
 31
0.0
  0
LINE
  8
0
 62
     0
 10
101.557
 20
86.1617
 30
0.0
 11
101.226
 21
86.4941
 31
0.0
  0
LINE
  8
0
 62
     0
 10
101.226
 20
86.4941
 30
0.0
 11
100.808
 21
86.7075
 31
0.0
  0
LINE
  8
0
 62
     0
 10
100.808
 20
86.7075
 30
0.0
 11
100.344
 21
86.7805
 31
0.0
  0
LINE
  8
0
 62
     0
 10
100.344
 20
86.7805
 30
0.0
 11
99.8802
 21
86.7075
 31
0.0
  0
LINE
  8
0
 62
     0
 10
197.131
 20
86.7075
 30
0.0
 11
196.712
 21
86.4941
 31
0.0
  0
LINE
  8
0
 62
     0
 10
196.712
 20
86.4941
 30
0.0
 11
196.382
 21
86.1617
 31
0.0
  0
LINE
  8
0
 62
     0
 10
196.382
 20
86.1617
 30
0.0
 11
196.169
 21
85.7444
 31
0.0
  0
LINE
  8
0
 62
     0
 10
196.169
 20
85.7444
 30
0.0
 11
196.095
 21
85.2798
 31
0.0
  0
LINE
  8
0
 62
     0
 10
196.095
 20
85.2798
 30
0.0
 11
196.169
 21
84.8169
 31
0.0
  0
LINE
  8
0
 62
     0
 10
196.169
 20
84.8169
 30
0.0
 11
196.382
 21
84.3993
 31
0.0
  0
LINE
  8
0
 62
     0
 10
196.382
 20
84.3993
 30
0.0
 11
196.712
 21
84.0673
 31
0.0
  0
LINE
  8
0
 62
     0
 10
196.712
 20
84.0673
 30
0.0
 11
197.131
 21
83.8535
 31
0.0
  0
LINE
  8
0
 62
     0
 10
197.131
 20
83.8535
 30
0.0
 11
197.594
 21
83.7805
 31
0.0
  0
LINE
  8
0
 62
     0
 10
197.594
 20
83.7805
 30
0.0
 11
198.059
 21
83.8535
 31
0.0
  0
LINE
  8
0
 62
     0
 10
198.059
 20
83.8535
 30
0.0
 11
198.476
 21
84.0673
 31
0.0
  0
LINE
  8
0
 62
     0
 10
198.476
 20
84.0673
 30
0.0
 11
198.808
 21
84.3993
 31
0.0
  0
LINE
  8
0
 62
     0
 10
198.808
 20
84.3993
 30
0.0
 11
199.022
 21
84.8169
 31
0.0
  0
LINE
  8
0
 62
     0
 10
199.022
 20
84.8169
 30
0.0
 11
199.095
 21
85.2798
 31
0.0
  0
LINE
  8
0
 62
     0
 10
199.095
 20
85.2798
 30
0.0
 11
199.022
 21
85.7444
 31
0.0
  0
LINE
  8
0
 62
     0
 10
199.022
 20
85.7444
 30
0.0
 11
198.808
 21
86.1617
 31
0.0
  0
LINE
  8
0
 62
     0
 10
198.808
 20
86.1617
 30
0.0
 11
198.476
 21
86.4941
 31
0.0
  0
LINE
  8
0
 62
     0
 10
198.476
 20
86.4941
 30
0.0
 11
198.059
 21
86.7075
 31
0.0
  0
LINE
  8
0
 62
     0
 10
198.059
 20
86.7075
 30
0.0
 11
197.594
 21
86.7805
 31
0.0
  0
LINE
  8
0
 62
     0
 10
197.594
 20
86.7805
 30
0.0
 11
197.131
 21
86.7075
 31
0.0
  0
LINE
  8
0
 62
     0
 10
294.382
 20
86.7075
 30
0.0
 11
293.963
 21
86.4941
 31
0.0
  0
LINE
  8
0
 62
     0
 10
293.963
 20
86.4941
 30
0.0
 11
293.632
 21
86.1617
 31
0.0
  0
LINE
  8
0
 62
     0
 10
293.632
 20
86.1617
 30
0.0
 11
293.419
 21
85.7444
 31
0.0
  0
LINE
  8
0
 62
     0
 10
293.419
 20
85.7444
 30
0.0
 11
293.346
 21
85.2798
 31
0.0
  0
LINE
  8
0
 62
     0
 10
293.346
 20
85.2798
 30
0.0
 11
293.419
 21
84.8169
 31
0.0
  0
LINE
  8
0
 62
     0
 10
293.419
 20
84.8169
 30
0.0
 11
293.632
 21
84.3993
 31
0.0
  0
LINE
  8
0
 62
     0
 10
293.632
 20
84.3993
 30
0.0
 11
293.963
 21
84.0673
 31
0.0
  0
LINE
  8
0
 62
     0
 10
293.963
 20
84.0673
 30
0.0
 11
294.382
 21
83.8535
 31
0.0
  0
LINE
  8
0
 62
     0
 10
294.382
 20
83.8535
 30
0.0
 11
294.846
 21
83.7805
 31
0.0
  0
LINE
  8
0
 62
     0
 10
294.846
 20
83.7805
 30
0.0
 11
295.308
 21
83.8535
 31
0.0
  0
LINE
  8
0
 62
     0
 10
295.308
 20
83.8535
 30
0.0
 11
295.727
 21
84.0673
 31
0.0
  0
LINE
  8
0
 62
     0
 10
295.727
 20
84.0673
 30
0.0
 11
296.059
 21
84.3993
 31
0.0
  0
LINE
  8
0
 62
     0
 10
296.059
 20
84.3993
 30
0.0
 11
296.271
 21
84.8169
 31
0.0
  0
LINE
  8
0
 62
     0
 10
296.271
 20
84.8169
 30
0.0
 11
296.346
 21
85.2798
 31
0.0
  0
LINE
  8
0
 62
     0
 10
296.346
 20
85.2798
 30
0.0
 11
296.271
 21
85.7444
 31
0.0
  0
LINE
  8
0
 62
     0
 10
296.271
 20
85.7444
 30
0.0
 11
296.059
 21
86.1617
 31
0.0
  0
LINE
  8
0
 62
     0
 10
296.059
 20
86.1617
 30
0.0
 11
295.727
 21
86.4941
 31
0.0
  0
LINE
  8
0
 62
     0
 10
295.727
 20
86.4941
 30
0.0
 11
295.308
 21
86.7075
 31
0.0
  0
LINE
  8
0
 62
     0
 10
295.308
 20
86.7075
 30
0.0
 11
294.846
 21
86.7805
 31
0.0
  0
LINE
  8
0
 62
     0
 10
294.846
 20
86.7805
 30
0.0
 11
294.382
 21
86.7075
 31
0.0
  0
LINE
  8
0
 62
     0
 10
2.63067
 20
86.7075
 30
0.0
 11
2.21313
 21
86.4941
 31
0.0
  0
LINE
  8
0
 62
     0
 10
2.21313
 20
86.4941
 30
0.0
 11
1.88102
 21
86.1617
 31
0.0
  0
LINE
  8
0
 62
     0
 10
1.88102
 20
86.1617
 30
0.0
 11
1.66743
 21
85.7444
 31
0.0
  0
LINE
  8
0
 62
     0
 10
1.66743
 20
85.7444
 30
0.0
 11
1.59439
 21
85.2798
 31
0.0
  0
LINE
  8
0
 62
     0
 10
1.59439
 20
85.2798
 30
0.0
 11
1.66743
 21
84.8169
 31
0.0
  0
LINE
  8
0
 62
     0
 10
1.66743
 20
84.8169
 30
0.0
 11
1.88102
 21
84.3993
 31
0.0
  0
LINE
  8
0
 62
     0
 10
1.88102
 20
84.3993
 30
0.0
 11
2.21313
 21
84.0673
 31
0.0
  0
LINE
  8
0
 62
     0
 10
2.21313
 20
84.0673
 30
0.0
 11
2.63067
 21
83.8535
 31
0.0
  0
LINE
  8
0
 62
     0
 10
2.63067
 20
83.8535
 30
0.0
 11
3.09507
 21
83.7805
 31
0.0
  0
LINE
  8
0
 62
     0
 10
3.09507
 20
83.7805
 30
0.0
 11
3.55808
 21
83.8535
 31
0.0
  0
LINE
  8
0
 62
     0
 10
3.55808
 20
83.8535
 30
0.0
 11
3.97563
 21
84.0673
 31
0.0
  0
LINE
  8
0
 62
     0
 10
3.97563
 20
84.0673
 30
0.0
 11
4.30773
 21
84.3993
 31
0.0
  0
LINE
  8
0
 62
     0
 10
4.30773
 20
84.3993
 30
0.0
 11
4.52134
 21
84.8169
 31
0.0
  0
LINE
  8
0
 62
     0
 10
4.52134
 20
84.8169
 30
0.0
 11
4.59437
 21
85.2798
 31
0.0
  0
LINE
  8
0
 62
     0
 10
4.59437
 20
85.2798
 30
0.0
 11
4.52134
 21
85.7444
 31
0.0
  0
LINE
  8
0
 62
     0
 10
4.52134
 20
85.7444
 30
0.0
 11
4.30773
 21
86.1617
 31
0.0
  0
LINE
  8
0
 62
     0
 10
4.30773
 20
86.1617
 30
0.0
 11
3.97563
 21
86.4941
 31
0.0
  0
LINE
  8
0
 62
     0
 10
3.97563
 20
86.4941
 30
0.0
 11
3.55808
 21
86.7075
 31
0.0
  0
LINE
  8
0
 62
     0
 10
3.55808
 20
86.7075
 30
0.0
 11
3.09507
 21
86.7805
 31
0.0
  0
LINE
  8
0
 62
     0
 10
3.09507
 20
86.7805
 30
0.0
 11
2.63067
 21
86.7075
 31
0.0
  0
ENDSEC
  0
EOF
