  0
SECTION
  2
HEADER
  9
$ACADVER
  1
AC1009
  9
$EXTMIN
 10
0.0
 20
0.0
 30
0.0
  9
$EXTMAX
 10
1000.0
 20
1000.0
 30
0.0
  9
$FILLMODE
 70
 0
  9
$SPLFRAME
 70
 1
  0
ENDSEC
  0
SECTION
  2
TABLES
  0
TABLE
  2
LAYER
 70
1
  0
LAYER
  2
0
 70
     0
 62
     7
  6
CONTINUOUS
  0
ENDTAB
  0
ENDSEC
  0
SECTION
  2
ENTITIES
  0
LINE
  8
0
 62
     0
 10
295.345
 20
88.2798
 30
0.0
 11
295.542
 21
88.2731
 31
0.0
  0
LINE
  8
0
 62
     0
 10
295.542
 20
88.2731
 30
0.0
 11
295.737
 21
88.2495
 31
0.0
  0
LINE
  8
0
 62
     0
 10
295.737
 20
88.2495
 30
0.0
 11
295.928
 21
88.211
 31
0.0
  0
LINE
  8
0
 62
     0
 10
295.928
 20
88.211
 30
0.0
 11
296.118
 21
88.1585
 31
0.0
  0
LINE
  8
0
 62
     0
 10
296.118
 20
88.1585
 30
0.0
 11
296.302
 21
88.0897
 31
0.0
  0
LINE
  8
0
 62
     0
 10
296.302
 20
88.0897
 30
0.0
 11
296.479
 21
88.0085
 31
0.0
  0
LINE
  8
0
 62
     0
 10
296.479
 20
88.0085
 30
0.0
 11
296.652
 21
87.9119
 31
0.0
  0
LINE
  8
0
 62
     0
 10
296.652
 20
87.9119
 30
0.0
 11
296.814
 21
87.8032
 31
0.0
  0
LINE
  8
0
 62
     0
 10
296.814
 20
87.8032
 30
0.0
 11
296.969
 21
87.6819
 31
0.0
  0
LINE
  8
0
 62
     0
 10
296.969
 20
87.6819
 30
0.0
 11
297.113
 21
87.5482
 31
0.0
  0
LINE
  8
0
 62
     0
 10
297.113
 20
87.5482
 30
0.0
 11
297.247
 21
87.4049
 31
0.0
  0
LINE
  8
0
 62
     0
 10
297.247
 20
87.4049
 30
0.0
 11
297.368
 21
87.2504
 31
0.0
  0
LINE
  8
0
 62
     0
 10
297.368
 20
87.2504
 30
0.0
 11
297.477
 21
87.0878
 31
0.0
  0
LINE
  8
0
 62
     0
 10
297.477
 20
87.0878
 30
0.0
 11
297.572
 21
86.9156
 31
0.0
  0
LINE
  8
0
 62
     0
 10
297.572
 20
86.9156
 30
0.0
 11
297.655
 21
86.7378
 31
0.0
  0
LINE
  8
0
 62
     0
 10
297.655
 20
86.7378
 30
0.0
 11
297.723
 21
86.5533
 31
0.0
  0
LINE
  8
0
 62
     0
 10
297.723
 20
86.5533
 30
0.0
 11
297.776
 21
86.3646
 31
0.0
  0
LINE
  8
0
 62
     0
 10
297.776
 20
86.3646
 30
0.0
 11
297.815
 21
86.173
 31
0.0
  0
LINE
  8
0
 62
     0
 10
297.815
 20
86.173
 30
0.0
 11
297.838
 21
85.9772
 31
0.0
  0
LINE
  8
0
 62
     0
 10
297.838
 20
85.9772
 30
0.0
 11
297.846
 21
85.78
 31
0.0
  0
LINE
  8
0
 62
     0
 10
297.846
 20
85.78
 30
0.0
 11
297.846
 21
2.57969
 31
0.0
  0
LINE
  8
0
 62
     0
 10
297.846
 20
2.57969
 30
0.0
 11
297.838
 21
2.38263
 31
0.0
  0
LINE
  8
0
 62
     0
 10
297.838
 20
2.38263
 30
0.0
 11
297.815
 21
2.18833
 31
0.0
  0
LINE
  8
0
 62
     0
 10
297.815
 20
2.18833
 30
0.0
 11
297.776
 21
1.99678
 31
0.0
  0
LINE
  8
0
 62
     0
 10
297.776
 20
1.99678
 30
0.0
 11
297.723
 21
1.80661
 31
0.0
  0
LINE
  8
0
 62
     0
 10
297.723
 20
1.80661
 30
0.0
 11
297.655
 21
1.62333
 31
0.0
  0
LINE
  8
0
 62
     0
 10
297.655
 20
1.62333
 30
0.0
 11
297.572
 21
1.44556
 31
0.0
  0
LINE
  8
0
 62
     0
 10
297.572
 20
1.44556
 30
0.0
 11
297.477
 21
1.27331
 31
0.0
  0
LINE
  8
0
 62
     0
 10
297.477
 20
1.27331
 30
0.0
 11
297.368
 21
1.1107
 31
0.0
  0
LINE
  8
0
 62
     0
 10
297.368
 20
1.1107
 30
0.0
 11
297.247
 21
0.956359
 31
0.0
  0
LINE
  8
0
 62
     0
 10
297.247
 20
0.956359
 30
0.0
 11
297.113
 21
0.811664
 31
0.0
  0
LINE
  8
0
 62
     0
 10
297.113
 20
0.811664
 30
0.0
 11
296.969
 21
0.677997
 31
0.0
  0
LINE
  8
0
 62
     0
 10
296.969
 20
0.677997
 30
0.0
 11
296.814
 21
0.556729
 31
0.0
  0
LINE
  8
0
 62
     0
 10
296.814
 20
0.556729
 30
0.0
 11
296.652
 21
0.447862
 31
0.0
  0
LINE
  8
0
 62
     0
 10
296.652
 20
0.447862
 30
0.0
 11
296.479
 21
0.352778
 31
0.0
  0
LINE
  8
0
 62
     0
 10
296.479
 20
0.352778
 30
0.0
 11
296.302
 21
0.270095
 31
0.0
  0
LINE
  8
0
 62
     0
 10
296.302
 20
0.270095
 30
0.0
 11
296.118
 21
0.202572
 31
0.0
  0
LINE
  8
0
 62
     0
 10
296.118
 20
0.202572
 30
0.0
 11
295.928
 21
0.148828
 31
0.0
  0
LINE
  8
0
 62
     0
 10
295.928
 20
0.148828
 30
0.0
 11
295.737
 21
0.110243
 31
0.0
  0
LINE
  8
0
 62
     0
 10
295.737
 20
0.110243
 30
0.0
 11
295.542
 21
0.0868165
 31
0.0
  0
LINE
  8
0
 62
     0
 10
295.542
 20
0.0868165
 30
0.0
 11
295.345
 21
0.0785481
 31
0.0
  0
LINE
  8
0
 62
     0
 10
295.345
 20
0.0785481
 30
0.0
 11
2.59485
 21
0.0785481
 31
0.0
  0
LINE
  8
0
 62
     0
 10
2.59485
 20
0.0785481
 30
0.0
 11
2.39779
 21
0.0868165
 31
0.0
  0
LINE
  8
0
 62
     0
 10
2.39779
 20
0.0868165
 30
0.0
 11
2.20211
 21
0.110243
 31
0.0
  0
LINE
  8
0
 62
     0
 10
2.20211
 20
0.110243
 30
0.0
 11
2.01056
 21
0.148828
 31
0.0
  0
LINE
  8
0
 62
     0
 10
2.01056
 20
0.148828
 30
0.0
 11
1.82177
 21
0.202572
 31
0.0
  0
LINE
  8
0
 62
     0
 10
1.82177
 20
0.202572
 30
0.0
 11
1.63711
 21
0.270095
 31
0.0
  0
LINE
  8
0
 62
     0
 10
1.63711
 20
0.270095
 30
0.0
 11
1.45934
 21
0.352778
 31
0.0
  0
LINE
  8
0
 62
     0
 10
1.45934
 20
0.352778
 30
0.0
 11
1.28709
 21
0.447862
 31
0.0
  0
LINE
  8
0
 62
     0
 10
1.28709
 20
0.447862
 30
0.0
 11
1.12448
 21
0.556729
 31
0.0
  0
LINE
  8
0
 62
     0
 10
1.12448
 20
0.556729
 30
0.0
 11
0.970139
 21
0.677997
 31
0.0
  0
LINE
  8
0
 62
     0
 10
0.970139
 20
0.677997
 30
0.0
 11
0.826823
 21
0.811664
 31
0.0
  0
LINE
  8
0
 62
     0
 10
0.826823
 20
0.811664
 30
0.0
 11
0.693152
 21
0.956359
 31
0.0
  0
LINE
  8
0
 62
     0
 10
0.693152
 20
0.956359
 30
0.0
 11
0.571885
 21
1.1107
 31
0.0
  0
LINE
  8
0
 62
     0
 10
0.571885
 20
1.1107
 30
0.0
 11
0.463021
 21
1.27331
 31
0.0
  0
LINE
  8
0
 62
     0
 10
0.463021
 20
1.27331
 30
0.0
 11
0.366557
 21
1.44556
 31
0.0
  0
LINE
  8
0
 62
     0
 10
0.366557
 20
1.44556
 30
0.0
 11
0.285254
 21
1.62333
 31
0.0
  0
LINE
  8
0
 62
     0
 10
0.285254
 20
1.62333
 30
0.0
 11
0.216352
 21
1.80661
 31
0.0
  0
LINE
  8
0
 62
     0
 10
0.216352
 20
1.80661
 30
0.0
 11
0.163987
 21
1.99678
 31
0.0
  0
LINE
  8
0
 62
     0
 10
0.163987
 20
1.99678
 30
0.0
 11
0.125402
 21
2.18833
 31
0.0
  0
LINE
  8
0
 62
     0
 10
0.125402
 20
2.18833
 30
0.0
 11
0.101975
 21
2.38263
 31
0.0
  0
LINE
  8
0
 62
     0
 10
0.101975
 20
2.38263
 30
0.0
 11
0.0937066
 21
2.57969
 31
0.0
  0
LINE
  8
0
 62
     0
 10
0.0937066
 20
2.57969
 30
0.0
 11
0.0950846
 21
85.78
 31
0.0
  0
LINE
  8
0
 62
     0
 10
0.0950846
 20
85.78
 30
0.0
 11
0.101975
 21
85.9772
 31
0.0
  0
LINE
  8
0
 62
     0
 10
0.101975
 20
85.9772
 30
0.0
 11
0.125402
 21
86.173
 31
0.0
  0
LINE
  8
0
 62
     0
 10
0.125402
 20
86.173
 30
0.0
 11
0.163987
 21
86.3646
 31
0.0
  0
LINE
  8
0
 62
     0
 10
0.163987
 20
86.3646
 30
0.0
 11
0.216352
 21
86.5533
 31
0.0
  0
LINE
  8
0
 62
     0
 10
0.216352
 20
86.5533
 30
0.0
 11
0.285254
 21
86.7378
 31
0.0
  0
LINE
  8
0
 62
     0
 10
0.285254
 20
86.7378
 30
0.0
 11
0.366557
 21
86.9156
 31
0.0
  0
LINE
  8
0
 62
     0
 10
0.366557
 20
86.9156
 30
0.0
 11
0.463021
 21
87.0878
 31
0.0
  0
LINE
  8
0
 62
     0
 10
0.463021
 20
87.0878
 30
0.0
 11
0.571885
 21
87.2504
 31
0.0
  0
LINE
  8
0
 62
     0
 10
0.571885
 20
87.2504
 30
0.0
 11
0.693152
 21
87.4049
 31
0.0
  0
LINE
  8
0
 62
     0
 10
0.693152
 20
87.4049
 30
0.0
 11
0.826823
 21
87.5482
 31
0.0
  0
LINE
  8
0
 62
     0
 10
0.826823
 20
87.5482
 30
0.0
 11
0.970139
 21
87.6819
 31
0.0
  0
LINE
  8
0
 62
     0
 10
0.970139
 20
87.6819
 30
0.0
 11
1.12448
 21
87.8032
 31
0.0
  0
LINE
  8
0
 62
     0
 10
1.12448
 20
87.8032
 30
0.0
 11
1.28709
 21
87.9119
 31
0.0
  0
LINE
  8
0
 62
     0
 10
1.28709
 20
87.9119
 30
0.0
 11
1.45934
 21
88.0085
 31
0.0
  0
LINE
  8
0
 62
     0
 10
1.45934
 20
88.0085
 30
0.0
 11
1.63711
 21
88.0897
 31
0.0
  0
LINE
  8
0
 62
     0
 10
1.63711
 20
88.0897
 30
0.0
 11
1.82177
 21
88.1585
 31
0.0
  0
LINE
  8
0
 62
     0
 10
1.82177
 20
88.1585
 30
0.0
 11
2.01056
 21
88.211
 31
0.0
  0
LINE
  8
0
 62
     0
 10
2.01056
 20
88.211
 30
0.0
 11
2.20211
 21
88.2495
 31
0.0
  0
LINE
  8
0
 62
     0
 10
2.20211
 20
88.2495
 30
0.0
 11
2.39779
 21
88.2731
 31
0.0
  0
LINE
  8
0
 62
     0
 10
2.39779
 20
88.2731
 30
0.0
 11
2.59485
 21
88.2812
 31
0.0
  0
LINE
  8
0
 62
     0
 10
2.59485
 20
88.2812
 30
0.0
 11
295.345
 21
88.2798
 31
0.0
  0
LINE
  8
0
 62
     0
 10
294.382
 20
4.50617
 30
0.0
 11
293.963
 21
4.2926
 31
0.0
  0
LINE
  8
0
 62
     0
 10
293.963
 20
4.2926
 30
0.0
 11
293.632
 21
3.96187
 31
0.0
  0
LINE
  8
0
 62
     0
 10
293.632
 20
3.96187
 30
0.0
 11
293.419
 21
3.54295
 31
0.0
  0
LINE
  8
0
 62
     0
 10
293.419
 20
3.54295
 30
0.0
 11
293.346
 21
3.07854
 31
0.0
  0
LINE
  8
0
 62
     0
 10
293.346
 20
3.07854
 30
0.0
 11
293.419
 21
2.6169
 31
0.0
  0
LINE
  8
0
 62
     0
 10
293.419
 20
2.6169
 30
0.0
 11
293.632
 21
2.19797
 31
0.0
  0
LINE
  8
0
 62
     0
 10
293.632
 20
2.19797
 30
0.0
 11
293.963
 21
1.86586
 31
0.0
  0
LINE
  8
0
 62
     0
 10
293.963
 20
1.86586
 30
0.0
 11
294.382
 21
1.65365
 31
0.0
  0
LINE
  8
0
 62
     0
 10
294.382
 20
1.65365
 30
0.0
 11
294.846
 21
1.57923
 31
0.0
  0
LINE
  8
0
 62
     0
 10
294.846
 20
1.57923
 30
0.0
 11
295.308
 21
1.65365
 31
0.0
  0
LINE
  8
0
 62
     0
 10
295.308
 20
1.65365
 30
0.0
 11
295.727
 21
1.86586
 31
0.0
  0
LINE
  8
0
 62
     0
 10
295.727
 20
1.86586
 30
0.0
 11
296.059
 21
2.19797
 31
0.0
  0
LINE
  8
0
 62
     0
 10
296.059
 20
2.19797
 30
0.0
 11
296.271
 21
2.6169
 31
0.0
  0
LINE
  8
0
 62
     0
 10
296.271
 20
2.6169
 30
0.0
 11
296.346
 21
3.07854
 31
0.0
  0
LINE
  8
0
 62
     0
 10
296.346
 20
3.07854
 30
0.0
 11
296.271
 21
3.54295
 31
0.0
  0
LINE
  8
0
 62
     0
 10
296.271
 20
3.54295
 30
0.0
 11
296.059
 21
3.96187
 31
0.0
  0
LINE
  8
0
 62
     0
 10
296.059
 20
3.96187
 30
0.0
 11
295.727
 21
4.2926
 31
0.0
  0
LINE
  8
0
 62
     0
 10
295.727
 20
4.2926
 30
0.0
 11
295.308
 21
4.50617
 31
0.0
  0
LINE
  8
0
 62
     0
 10
295.308
 20
4.50617
 30
0.0
 11
294.846
 21
4.57923
 31
0.0
  0
LINE
  8
0
 62
     0
 10
294.846
 20
4.57923
 30
0.0
 11
294.382
 21
4.50617
 31
0.0
  0
LINE
  8
0
 62
     0
 10
197.131
 20
4.50617
 30
0.0
 11
196.712
 21
4.2926
 31
0.0
  0
LINE
  8
0
 62
     0
 10
196.712
 20
4.2926
 30
0.0
 11
196.382
 21
3.96187
 31
0.0
  0
LINE
  8
0
 62
     0
 10
196.382
 20
3.96187
 30
0.0
 11
196.169
 21
3.54295
 31
0.0
  0
LINE
  8
0
 62
     0
 10
196.169
 20
3.54295
 30
0.0
 11
196.095
 21
3.07854
 31
0.0
  0
LINE
  8
0
 62
     0
 10
196.095
 20
3.07854
 30
0.0
 11
196.169
 21
2.6169
 31
0.0
  0
LINE
  8
0
 62
     0
 10
196.169
 20
2.6169
 30
0.0
 11
196.382
 21
2.19797
 31
0.0
  0
LINE
  8
0
 62
     0
 10
196.382
 20
2.19797
 30
0.0
 11
196.712
 21
1.86586
 31
0.0
  0
LINE
  8
0
 62
     0
 10
196.712
 20
1.86586
 30
0.0
 11
197.131
 21
1.65365
 31
0.0
  0
LINE
  8
0
 62
     0
 10
197.131
 20
1.65365
 30
0.0
 11
197.594
 21
1.57923
 31
0.0
  0
LINE
  8
0
 62
     0
 10
197.594
 20
1.57923
 30
0.0
 11
198.059
 21
1.65365
 31
0.0
  0
LINE
  8
0
 62
     0
 10
198.059
 20
1.65365
 30
0.0
 11
198.476
 21
1.86586
 31
0.0
  0
LINE
  8
0
 62
     0
 10
198.476
 20
1.86586
 30
0.0
 11
198.808
 21
2.19797
 31
0.0
  0
LINE
  8
0
 62
     0
 10
198.808
 20
2.19797
 30
0.0
 11
199.022
 21
2.6169
 31
0.0
  0
LINE
  8
0
 62
     0
 10
199.022
 20
2.6169
 30
0.0
 11
199.095
 21
3.07854
 31
0.0
  0
LINE
  8
0
 62
     0
 10
199.095
 20
3.07854
 30
0.0
 11
199.022
 21
3.54295
 31
0.0
  0
LINE
  8
0
 62
     0
 10
199.022
 20
3.54295
 30
0.0
 11
198.808
 21
3.96187
 31
0.0
  0
LINE
  8
0
 62
     0
 10
198.808
 20
3.96187
 30
0.0
 11
198.476
 21
4.2926
 31
0.0
  0
LINE
  8
0
 62
     0
 10
198.476
 20
4.2926
 30
0.0
 11
198.059
 21
4.50617
 31
0.0
  0
LINE
  8
0
 62
     0
 10
198.059
 20
4.50617
 30
0.0
 11
197.594
 21
4.57923
 31
0.0
  0
LINE
  8
0
 62
     0
 10
197.594
 20
4.57923
 30
0.0
 11
197.131
 21
4.50617
 31
0.0
  0
LINE
  8
0
 62
     0
 10
99.8802
 20
4.50617
 30
0.0
 11
99.4625
 21
4.2926
 31
0.0
  0
LINE
  8
0
 62
     0
 10
99.4625
 20
4.2926
 30
0.0
 11
99.1306
 21
3.96187
 31
0.0
  0
LINE
  8
0
 62
     0
 10
99.1306
 20
3.96187
 30
0.0
 11
98.9182
 21
3.54295
 31
0.0
  0
LINE
  8
0
 62
     0
 10
98.9182
 20
3.54295
 30
0.0
 11
98.8452
 21
3.07854
 31
0.0
  0
LINE
  8
0
 62
     0
 10
98.8452
 20
3.07854
 30
0.0
 11
98.9182
 21
2.6169
 31
0.0
  0
LINE
  8
0
 62
     0
 10
98.9182
 20
2.6169
 30
0.0
 11
99.1306
 21
2.19797
 31
0.0
  0
LINE
  8
0
 62
     0
 10
99.1306
 20
2.19797
 30
0.0
 11
99.4625
 21
1.86586
 31
0.0
  0
LINE
  8
0
 62
     0
 10
99.4625
 20
1.86586
 30
0.0
 11
99.8802
 21
1.65365
 31
0.0
  0
LINE
  8
0
 62
     0
 10
99.8802
 20
1.65365
 30
0.0
 11
100.344
 21
1.57923
 31
0.0
  0
LINE
  8
0
 62
     0
 10
100.344
 20
1.57923
 30
0.0
 11
100.808
 21
1.65365
 31
0.0
  0
LINE
  8
0
 62
     0
 10
100.808
 20
1.65365
 30
0.0
 11
101.226
 21
1.86586
 31
0.0
  0
LINE
  8
0
 62
     0
 10
101.226
 20
1.86586
 30
0.0
 11
101.557
 21
2.19797
 31
0.0
  0
LINE
  8
0
 62
     0
 10
101.557
 20
2.19797
 30
0.0
 11
101.771
 21
2.6169
 31
0.0
  0
LINE
  8
0
 62
     0
 10
101.771
 20
2.6169
 30
0.0
 11
101.845
 21
3.07854
 31
0.0
  0
LINE
  8
0
 62
     0
 10
101.845
 20
3.07854
 30
0.0
 11
101.771
 21
3.54295
 31
0.0
  0
LINE
  8
0
 62
     0
 10
101.771
 20
3.54295
 30
0.0
 11
101.557
 21
3.96187
 31
0.0
  0
LINE
  8
0
 62
     0
 10
101.557
 20
3.96187
 30
0.0
 11
101.226
 21
4.2926
 31
0.0
  0
LINE
  8
0
 62
     0
 10
101.226
 20
4.2926
 30
0.0
 11
100.808
 21
4.50617
 31
0.0
  0
LINE
  8
0
 62
     0
 10
100.808
 20
4.50617
 30
0.0
 11
100.344
 21
4.57923
 31
0.0
  0
LINE
  8
0
 62
     0
 10
100.344
 20
4.57923
 30
0.0
 11
99.8802
 21
4.50617
 31
0.0
  0
LINE
  8
0
 62
     0
 10
2.63067
 20
4.50617
 30
0.0
 11
2.21313
 21
4.2926
 31
0.0
  0
LINE
  8
0
 62
     0
 10
2.21313
 20
4.2926
 30
0.0
 11
1.88102
 21
3.96187
 31
0.0
  0
LINE
  8
0
 62
     0
 10
1.88102
 20
3.96187
 30
0.0
 11
1.66743
 21
3.54295
 31
0.0
  0
LINE
  8
0
 62
     0
 10
1.66743
 20
3.54295
 30
0.0
 11
1.59439
 21
3.07854
 31
0.0
  0
LINE
  8
0
 62
     0
 10
1.59439
 20
3.07854
 30
0.0
 11
1.66743
 21
2.6169
 31
0.0
  0
LINE
  8
0
 62
     0
 10
1.66743
 20
2.6169
 30
0.0
 11
1.88102
 21
2.19797
 31
0.0
  0
LINE
  8
0
 62
     0
 10
1.88102
 20
2.19797
 30
0.0
 11
2.21313
 21
1.86586
 31
0.0
  0
LINE
  8
0
 62
     0
 10
2.21313
 20
1.86586
 30
0.0
 11
2.63067
 21
1.65365
 31
0.0
  0
LINE
  8
0
 62
     0
 10
2.63067
 20
1.65365
 30
0.0
 11
3.09507
 21
1.57923
 31
0.0
  0
LINE
  8
0
 62
     0
 10
3.09507
 20
1.57923
 30
0.0
 11
3.55808
 21
1.65365
 31
0.0
  0
LINE
  8
0
 62
     0
 10
3.55808
 20
1.65365
 30
0.0
 11
3.97563
 21
1.86586
 31
0.0
  0
LINE
  8
0
 62
     0
 10
3.97563
 20
1.86586
 30
0.0
 11
4.30773
 21
2.19797
 31
0.0
  0
LINE
  8
0
 62
     0
 10
4.30773
 20
2.19797
 30
0.0
 11
4.52134
 21
2.6169
 31
0.0
  0
LINE
  8
0
 62
     0
 10
4.52134
 20
2.6169
 30
0.0
 11
4.59437
 21
3.07854
 31
0.0
  0
LINE
  8
0
 62
     0
 10
4.59437
 20
3.07854
 30
0.0
 11
4.52134
 21
3.54295
 31
0.0
  0
LINE
  8
0
 62
     0
 10
4.52134
 20
3.54295
 30
0.0
 11
4.30773
 21
3.96187
 31
0.0
  0
LINE
  8
0
 62
     0
 10
4.30773
 20
3.96187
 30
0.0
 11
3.97563
 21
4.2926
 31
0.0
  0
LINE
  8
0
 62
     0
 10
3.97563
 20
4.2926
 30
0.0
 11
3.55808
 21
4.50617
 31
0.0
  0
LINE
  8
0
 62
     0
 10
3.55808
 20
4.50617
 30
0.0
 11
3.09507
 21
4.57923
 31
0.0
  0
LINE
  8
0
 62
     0
 10
3.09507
 20
4.57923
 30
0.0
 11
2.63067
 21
4.50617
 31
0.0
  0
LINE
  8
0
 62
     0
 10
130.064
 20
22.6053
 30
0.0
 11
130.064
 21
17.9048
 31
0.0
  0
LINE
  8
0
 62
     0
 10
130.064
 20
17.9048
 30
0.0
 11
90.3884
 21
17.9048
 31
0.0
  0
LINE
  8
0
 62
     0
 10
90.3884
 20
17.9048
 30
0.0
 11
90.3884
 21
21.135
 31
0.0
  0
LINE
  8
0
 62
     0
 10
90.3884
 20
21.135
 30
0.0
 11
88.7127
 21
21.135
 31
0.0
  0
LINE
  8
0
 62
     0
 10
88.7127
 20
21.135
 30
0.0
 11
88.7127
 21
22.0555
 31
0.0
  0
LINE
  8
0
 62
     0
 10
88.7127
 20
22.0555
 30
0.0
 11
85.4121
 21
22.0555
 31
0.0
  0
LINE
  8
0
 62
     0
 10
85.4121
 20
22.0555
 30
0.0
 11
85.4121
 21
21.135
 31
0.0
  0
LINE
  8
0
 62
     0
 10
85.4121
 20
21.135
 30
0.0
 11
83.7378
 21
21.135
 31
0.0
  0
LINE
  8
0
 62
     0
 10
83.7378
 20
21.135
 30
0.0
 11
83.7378
 21
17.9048
 31
0.0
  0
LINE
  8
0
 62
     0
 10
83.7378
 20
17.9048
 30
0.0
 11
82.8629
 21
17.9048
 31
0.0
  0
LINE
  8
0
 62
     0
 10
82.8629
 20
17.9048
 30
0.0
 11
82.8629
 21
15.1047
 31
0.0
  0
LINE
  8
0
 62
     0
 10
82.8629
 20
15.1047
 30
0.0
 11
83.7378
 21
15.1047
 31
0.0
  0
LINE
  8
0
 62
     0
 10
83.7378
 20
15.1047
 30
0.0
 11
83.7378
 21
8.83461
 31
0.0
  0
LINE
  8
0
 62
     0
 10
83.7378
 20
8.83461
 30
0.0
 11
85.4121
 21
8.83461
 31
0.0
  0
LINE
  8
0
 62
     0
 10
85.4121
 20
8.83461
 30
0.0
 11
85.4121
 21
7.85481
 31
0.0
  0
LINE
  8
0
 62
     0
 10
85.4121
 20
7.85481
 30
0.0
 11
88.7127
 21
7.85481
 31
0.0
  0
LINE
  8
0
 62
     0
 10
88.7127
 20
7.85481
 30
0.0
 11
88.7127
 21
8.83461
 31
0.0
  0
LINE
  8
0
 62
     0
 10
88.7127
 20
8.83461
 30
0.0
 11
90.3884
 21
8.83461
 31
0.0
  0
LINE
  8
0
 62
     0
 10
90.3884
 20
8.83461
 30
0.0
 11
90.3884
 21
13.3049
 31
0.0
  0
LINE
  8
0
 62
     0
 10
90.3884
 20
13.3049
 30
0.0
 11
130.064
 21
13.3049
 31
0.0
  0
LINE
  8
0
 62
     0
 10
130.064
 20
13.3049
 30
0.0
 11
130.064
 21
8.60584
 31
0.0
  0
LINE
  8
0
 62
     0
 10
130.064
 20
8.60584
 30
0.0
 11
144.063
 21
8.60584
 31
0.0
  0
LINE
  8
0
 62
     0
 10
144.063
 20
8.60584
 30
0.0
 11
144.063
 21
13.3049
 31
0.0
  0
LINE
  8
0
 62
     0
 10
144.063
 20
13.3049
 30
0.0
 11
183.738
 21
13.3049
 31
0.0
  0
LINE
  8
0
 62
     0
 10
183.738
 20
13.3049
 30
0.0
 11
183.738
 21
8.83461
 31
0.0
  0
LINE
  8
0
 62
     0
 10
183.738
 20
8.83461
 30
0.0
 11
185.412
 21
8.83461
 31
0.0
  0
LINE
  8
0
 62
     0
 10
185.412
 20
8.83461
 30
0.0
 11
185.412
 21
7.85481
 31
0.0
  0
LINE
  8
0
 62
     0
 10
185.412
 20
7.85481
 30
0.0
 11
188.713
 21
7.85481
 31
0.0
  0
LINE
  8
0
 62
     0
 10
188.713
 20
7.85481
 30
0.0
 11
188.713
 21
8.83461
 31
0.0
  0
LINE
  8
0
 62
     0
 10
188.713
 20
8.83461
 30
0.0
 11
190.389
 21
8.83461
 31
0.0
  0
LINE
  8
0
 62
     0
 10
190.389
 20
8.83461
 30
0.0
 11
190.389
 21
15.1047
 31
0.0
  0
LINE
  8
0
 62
     0
 10
190.389
 20
15.1047
 30
0.0
 11
191.263
 21
15.1047
 31
0.0
  0
LINE
  8
0
 62
     0
 10
191.263
 20
15.1047
 30
0.0
 11
191.263
 21
17.9048
 31
0.0
  0
LINE
  8
0
 62
     0
 10
191.263
 20
17.9048
 30
0.0
 11
190.389
 21
17.9048
 31
0.0
  0
LINE
  8
0
 62
     0
 10
190.389
 20
17.9048
 30
0.0
 11
190.389
 21
21.135
 31
0.0
  0
LINE
  8
0
 62
     0
 10
190.389
 20
21.135
 30
0.0
 11
188.713
 21
21.135
 31
0.0
  0
LINE
  8
0
 62
     0
 10
188.713
 20
21.135
 30
0.0
 11
188.713
 21
22.0555
 31
0.0
  0
LINE
  8
0
 62
     0
 10
188.713
 20
22.0555
 30
0.0
 11
185.412
 21
22.0555
 31
0.0
  0
LINE
  8
0
 62
     0
 10
185.412
 20
22.0555
 30
0.0
 11
185.412
 21
21.135
 31
0.0
  0
LINE
  8
0
 62
     0
 10
185.412
 20
21.135
 30
0.0
 11
183.738
 21
21.135
 31
0.0
  0
LINE
  8
0
 62
     0
 10
183.738
 20
21.135
 30
0.0
 11
183.738
 21
17.9048
 31
0.0
  0
LINE
  8
0
 62
     0
 10
183.738
 20
17.9048
 30
0.0
 11
144.063
 21
17.9048
 31
0.0
  0
LINE
  8
0
 62
     0
 10
144.063
 20
17.9048
 30
0.0
 11
144.063
 21
22.6053
 31
0.0
  0
LINE
  8
0
 62
     0
 10
144.063
 20
22.6053
 30
0.0
 11
130.064
 21
22.6053
 31
0.0
  0
LINE
  8
0
 62
     0
 10
11.0009
 20
22.6053
 30
0.0
 11
25.0004
 21
22.6053
 31
0.0
  0
LINE
  8
0
 62
     0
 10
25.0004
 20
22.6053
 30
0.0
 11
25.0004
 21
8.60584
 31
0.0
  0
LINE
  8
0
 62
     0
 10
25.0004
 20
8.60584
 30
0.0
 11
11.0009
 21
8.60584
 31
0.0
  0
LINE
  8
0
 62
     0
 10
11.0009
 20
8.60584
 30
0.0
 11
11.0009
 21
22.6053
 31
0.0
  0
LINE
  8
0
 62
     0
 10
34.8134
 20
22.6053
 30
0.0
 11
48.8128
 21
22.6053
 31
0.0
  0
LINE
  8
0
 62
     0
 10
48.8128
 20
22.6053
 30
0.0
 11
48.8128
 21
8.60584
 31
0.0
  0
LINE
  8
0
 62
     0
 10
48.8128
 20
8.60584
 30
0.0
 11
34.8134
 21
8.60584
 31
0.0
  0
LINE
  8
0
 62
     0
 10
34.8134
 20
8.60584
 30
0.0
 11
34.8134
 21
22.6053
 31
0.0
  0
LINE
  8
0
 62
     0
 10
58.626
 20
22.6053
 30
0.0
 11
72.6253
 21
22.6053
 31
0.0
  0
LINE
  8
0
 62
     0
 10
72.6253
 20
22.6053
 30
0.0
 11
72.6253
 21
8.60584
 31
0.0
  0
LINE
  8
0
 62
     0
 10
72.6253
 20
8.60584
 30
0.0
 11
58.626
 21
8.60584
 31
0.0
  0
LINE
  8
0
 62
     0
 10
58.626
 20
8.60584
 30
0.0
 11
58.626
 21
22.6053
 31
0.0
  0
LINE
  8
0
 62
     0
 10
201.501
 20
22.6053
 30
0.0
 11
215.5
 21
22.6053
 31
0.0
  0
LINE
  8
0
 62
     0
 10
215.5
 20
22.6053
 30
0.0
 11
215.5
 21
8.60584
 31
0.0
  0
LINE
  8
0
 62
     0
 10
215.5
 20
8.60584
 30
0.0
 11
201.501
 21
8.60584
 31
0.0
  0
LINE
  8
0
 62
     0
 10
201.501
 20
8.60584
 30
0.0
 11
201.501
 21
22.6053
 31
0.0
  0
LINE
  8
0
 62
     0
 10
225.314
 20
22.6053
 30
0.0
 11
239.313
 21
22.6053
 31
0.0
  0
LINE
  8
0
 62
     0
 10
239.313
 20
22.6053
 30
0.0
 11
239.313
 21
8.60584
 31
0.0
  0
LINE
  8
0
 62
     0
 10
239.313
 20
8.60584
 30
0.0
 11
225.314
 21
8.60584
 31
0.0
  0
LINE
  8
0
 62
     0
 10
225.314
 20
8.60584
 30
0.0
 11
225.314
 21
22.6053
 31
0.0
  0
LINE
  8
0
 62
     0
 10
249.126
 20
22.6053
 30
0.0
 11
263.125
 21
22.6053
 31
0.0
  0
LINE
  8
0
 62
     0
 10
263.125
 20
22.6053
 30
0.0
 11
263.125
 21
8.60584
 31
0.0
  0
LINE
  8
0
 62
     0
 10
263.125
 20
8.60584
 30
0.0
 11
249.126
 21
8.60584
 31
0.0
  0
LINE
  8
0
 62
     0
 10
249.126
 20
8.60584
 30
0.0
 11
249.126
 21
22.6053
 31
0.0
  0
LINE
  8
0
 62
     0
 10
272.939
 20
22.6053
 30
0.0
 11
286.938
 21
22.6053
 31
0.0
  0
LINE
  8
0
 62
     0
 10
286.938
 20
22.6053
 30
0.0
 11
286.938
 21
8.60584
 31
0.0
  0
LINE
  8
0
 62
     0
 10
286.938
 20
8.60584
 30
0.0
 11
272.939
 21
8.60584
 31
0.0
  0
LINE
  8
0
 62
     0
 10
272.939
 20
8.60584
 30
0.0
 11
272.939
 21
22.6053
 31
0.0
  0
LINE
  8
0
 62
     0
 10
20.5259
 20
41.6553
 30
0.0
 11
20.5259
 21
36.9549
 31
0.0
  0
LINE
  8
0
 62
     0
 10
20.5259
 20
36.9549
 30
0.0
 11
18.9508
 21
36.9549
 31
0.0
  0
LINE
  8
0
 62
     0
 10
18.9508
 20
36.9549
 30
0.0
 11
18.9508
 21
40.1849
 31
0.0
  0
LINE
  8
0
 62
     0
 10
18.9508
 20
40.1849
 30
0.0
 11
17.2751
 21
40.1849
 31
0.0
  0
LINE
  8
0
 62
     0
 10
17.2751
 20
40.1849
 30
0.0
 11
17.2751
 21
41.1057
 31
0.0
  0
LINE
  8
0
 62
     0
 10
17.2751
 20
41.1057
 30
0.0
 11
13.9761
 21
41.1057
 31
0.0
  0
LINE
  8
0
 62
     0
 10
13.9761
 20
41.1057
 30
0.0
 11
13.9761
 21
40.1849
 31
0.0
  0
LINE
  8
0
 62
     0
 10
13.9761
 20
40.1849
 30
0.0
 11
12.3004
 21
40.1849
 31
0.0
  0
LINE
  8
0
 62
     0
 10
12.3004
 20
40.1849
 30
0.0
 11
12.3004
 21
36.9549
 31
0.0
  0
LINE
  8
0
 62
     0
 10
12.3004
 20
36.9549
 30
0.0
 11
11.4253
 21
36.9549
 31
0.0
  0
LINE
  8
0
 62
     0
 10
11.4253
 20
36.9549
 30
0.0
 11
11.4253
 21
34.1547
 31
0.0
  0
LINE
  8
0
 62
     0
 10
11.4253
 20
34.1547
 30
0.0
 11
12.3004
 21
34.1547
 31
0.0
  0
LINE
  8
0
 62
     0
 10
12.3004
 20
34.1547
 30
0.0
 11
12.3004
 21
27.886
 31
0.0
  0
LINE
  8
0
 62
     0
 10
12.3004
 20
27.886
 30
0.0
 11
13.9761
 21
27.886
 31
0.0
  0
LINE
  8
0
 62
     0
 10
13.9761
 20
27.886
 30
0.0
 11
13.9761
 21
26.9048
 31
0.0
  0
LINE
  8
0
 62
     0
 10
13.9761
 20
26.9048
 30
0.0
 11
17.2751
 21
26.9048
 31
0.0
  0
LINE
  8
0
 62
     0
 10
17.2751
 20
26.9048
 30
0.0
 11
17.2751
 21
27.886
 31
0.0
  0
LINE
  8
0
 62
     0
 10
17.2751
 20
27.886
 30
0.0
 11
18.9508
 21
27.886
 31
0.0
  0
LINE
  8
0
 62
     0
 10
18.9508
 20
27.886
 30
0.0
 11
18.9508
 21
32.3549
 31
0.0
  0
LINE
  8
0
 62
     0
 10
18.9508
 20
32.3549
 30
0.0
 11
20.5259
 21
32.3549
 31
0.0
  0
LINE
  8
0
 62
     0
 10
20.5259
 20
32.3549
 30
0.0
 11
20.5259
 21
27.6558
 31
0.0
  0
LINE
  8
0
 62
     0
 10
20.5259
 20
27.6558
 30
0.0
 11
34.5254
 21
27.6558
 31
0.0
  0
LINE
  8
0
 62
     0
 10
34.5254
 20
27.6558
 30
0.0
 11
34.5254
 21
32.3549
 31
0.0
  0
LINE
  8
0
 62
     0
 10
34.5254
 20
32.3549
 30
0.0
 11
36.1005
 21
32.3549
 31
0.0
  0
LINE
  8
0
 62
     0
 10
36.1005
 20
32.3549
 30
0.0
 11
36.1005
 21
27.886
 31
0.0
  0
LINE
  8
0
 62
     0
 10
36.1005
 20
27.886
 30
0.0
 11
37.7762
 21
27.886
 31
0.0
  0
LINE
  8
0
 62
     0
 10
37.7762
 20
27.886
 30
0.0
 11
37.7762
 21
26.9048
 31
0.0
  0
LINE
  8
0
 62
     0
 10
37.7762
 20
26.9048
 30
0.0
 11
41.0753
 21
26.9048
 31
0.0
  0
LINE
  8
0
 62
     0
 10
41.0753
 20
26.9048
 30
0.0
 11
41.0753
 21
27.886
 31
0.0
  0
LINE
  8
0
 62
     0
 10
41.0753
 20
27.886
 30
0.0
 11
42.751
 21
27.886
 31
0.0
  0
LINE
  8
0
 62
     0
 10
42.751
 20
27.886
 30
0.0
 11
42.751
 21
34.1547
 31
0.0
  0
LINE
  8
0
 62
     0
 10
42.751
 20
34.1547
 30
0.0
 11
43.6259
 21
34.1547
 31
0.0
  0
LINE
  8
0
 62
     0
 10
43.6259
 20
34.1547
 30
0.0
 11
43.6259
 21
36.9549
 31
0.0
  0
LINE
  8
0
 62
     0
 10
43.6259
 20
36.9549
 30
0.0
 11
42.751
 21
36.9549
 31
0.0
  0
LINE
  8
0
 62
     0
 10
42.751
 20
36.9549
 30
0.0
 11
42.751
 21
40.1849
 31
0.0
  0
LINE
  8
0
 62
     0
 10
42.751
 20
40.1849
 30
0.0
 11
41.0753
 21
40.1849
 31
0.0
  0
LINE
  8
0
 62
     0
 10
41.0753
 20
40.1849
 30
0.0
 11
41.0753
 21
41.1057
 31
0.0
  0
LINE
  8
0
 62
     0
 10
41.0753
 20
41.1057
 30
0.0
 11
37.7762
 21
41.1057
 31
0.0
  0
LINE
  8
0
 62
     0
 10
37.7762
 20
41.1057
 30
0.0
 11
37.7762
 21
40.1849
 31
0.0
  0
LINE
  8
0
 62
     0
 10
37.7762
 20
40.1849
 30
0.0
 11
36.1005
 21
40.1849
 31
0.0
  0
LINE
  8
0
 62
     0
 10
36.1005
 20
40.1849
 30
0.0
 11
36.1005
 21
36.9549
 31
0.0
  0
LINE
  8
0
 62
     0
 10
36.1005
 20
36.9549
 30
0.0
 11
34.5254
 21
36.9549
 31
0.0
  0
LINE
  8
0
 62
     0
 10
34.5254
 20
36.9549
 30
0.0
 11
34.5254
 21
41.6553
 31
0.0
  0
LINE
  8
0
 62
     0
 10
34.5254
 20
41.6553
 30
0.0
 11
20.5259
 21
41.6553
 31
0.0
  0
LINE
  8
0
 62
     0
 10
258.651
 20
41.6553
 30
0.0
 11
258.651
 21
36.9549
 31
0.0
  0
LINE
  8
0
 62
     0
 10
258.651
 20
36.9549
 30
0.0
 11
257.076
 21
36.9549
 31
0.0
  0
LINE
  8
0
 62
     0
 10
257.076
 20
36.9549
 30
0.0
 11
257.076
 21
40.1849
 31
0.0
  0
LINE
  8
0
 62
     0
 10
257.076
 20
40.1849
 30
0.0
 11
255.4
 21
40.1849
 31
0.0
  0
LINE
  8
0
 62
     0
 10
255.4
 20
40.1849
 30
0.0
 11
255.4
 21
41.1057
 31
0.0
  0
LINE
  8
0
 62
     0
 10
255.4
 20
41.1057
 30
0.0
 11
252.1
 21
41.1057
 31
0.0
  0
LINE
  8
0
 62
     0
 10
252.1
 20
41.1057
 30
0.0
 11
252.1
 21
40.1849
 31
0.0
  0
LINE
  8
0
 62
     0
 10
252.1
 20
40.1849
 30
0.0
 11
250.425
 21
40.1849
 31
0.0
  0
LINE
  8
0
 62
     0
 10
250.425
 20
40.1849
 30
0.0
 11
250.425
 21
36.9549
 31
0.0
  0
LINE
  8
0
 62
     0
 10
250.425
 20
36.9549
 30
0.0
 11
249.55
 21
36.9549
 31
0.0
  0
LINE
  8
0
 62
     0
 10
249.55
 20
36.9549
 30
0.0
 11
249.55
 21
34.1547
 31
0.0
  0
LINE
  8
0
 62
     0
 10
249.55
 20
34.1547
 30
0.0
 11
250.425
 21
34.1547
 31
0.0
  0
LINE
  8
0
 62
     0
 10
250.425
 20
34.1547
 30
0.0
 11
250.425
 21
27.886
 31
0.0
  0
LINE
  8
0
 62
     0
 10
250.425
 20
27.886
 30
0.0
 11
252.1
 21
27.886
 31
0.0
  0
LINE
  8
0
 62
     0
 10
252.1
 20
27.886
 30
0.0
 11
252.1
 21
26.9048
 31
0.0
  0
LINE
  8
0
 62
     0
 10
252.1
 20
26.9048
 30
0.0
 11
255.4
 21
26.9048
 31
0.0
  0
LINE
  8
0
 62
     0
 10
255.4
 20
26.9048
 30
0.0
 11
255.4
 21
27.886
 31
0.0
  0
LINE
  8
0
 62
     0
 10
255.4
 20
27.886
 30
0.0
 11
257.076
 21
27.886
 31
0.0
  0
LINE
  8
0
 62
     0
 10
257.076
 20
27.886
 30
0.0
 11
257.076
 21
32.3549
 31
0.0
  0
LINE
  8
0
 62
     0
 10
257.076
 20
32.3549
 30
0.0
 11
258.651
 21
32.3549
 31
0.0
  0
LINE
  8
0
 62
     0
 10
258.651
 20
32.3549
 30
0.0
 11
258.651
 21
27.6558
 31
0.0
  0
LINE
  8
0
 62
     0
 10
258.651
 20
27.6558
 30
0.0
 11
272.65
 21
27.6558
 31
0.0
  0
LINE
  8
0
 62
     0
 10
272.65
 20
27.6558
 30
0.0
 11
272.65
 21
32.3549
 31
0.0
  0
LINE
  8
0
 62
     0
 10
272.65
 20
32.3549
 30
0.0
 11
274.225
 21
32.3549
 31
0.0
  0
LINE
  8
0
 62
     0
 10
274.225
 20
32.3549
 30
0.0
 11
274.225
 21
27.886
 31
0.0
  0
LINE
  8
0
 62
     0
 10
274.225
 20
27.886
 30
0.0
 11
275.901
 21
27.886
 31
0.0
  0
LINE
  8
0
 62
     0
 10
275.901
 20
27.886
 30
0.0
 11
275.901
 21
26.9048
 31
0.0
  0
LINE
  8
0
 62
     0
 10
275.901
 20
26.9048
 30
0.0
 11
279.2
 21
26.9048
 31
0.0
  0
LINE
  8
0
 62
     0
 10
279.2
 20
26.9048
 30
0.0
 11
279.2
 21
27.886
 31
0.0
  0
LINE
  8
0
 62
     0
 10
279.2
 20
27.886
 30
0.0
 11
280.876
 21
27.886
 31
0.0
  0
LINE
  8
0
 62
     0
 10
280.876
 20
27.886
 30
0.0
 11
280.876
 21
34.1547
 31
0.0
  0
LINE
  8
0
 62
     0
 10
280.876
 20
34.1547
 30
0.0
 11
281.751
 21
34.1547
 31
0.0
  0
LINE
  8
0
 62
     0
 10
281.751
 20
34.1547
 30
0.0
 11
281.751
 21
36.9549
 31
0.0
  0
LINE
  8
0
 62
     0
 10
281.751
 20
36.9549
 30
0.0
 11
280.876
 21
36.9549
 31
0.0
  0
LINE
  8
0
 62
     0
 10
280.876
 20
36.9549
 30
0.0
 11
280.876
 21
40.1849
 31
0.0
  0
LINE
  8
0
 62
     0
 10
280.876
 20
40.1849
 30
0.0
 11
279.2
 21
40.1849
 31
0.0
  0
LINE
  8
0
 62
     0
 10
279.2
 20
40.1849
 30
0.0
 11
279.2
 21
41.1057
 31
0.0
  0
LINE
  8
0
 62
     0
 10
279.2
 20
41.1057
 30
0.0
 11
275.901
 21
41.1057
 31
0.0
  0
LINE
  8
0
 62
     0
 10
275.901
 20
41.1057
 30
0.0
 11
275.901
 21
40.1849
 31
0.0
  0
LINE
  8
0
 62
     0
 10
275.901
 20
40.1849
 30
0.0
 11
274.225
 21
40.1849
 31
0.0
  0
LINE
  8
0
 62
     0
 10
274.225
 20
40.1849
 30
0.0
 11
274.225
 21
36.9549
 31
0.0
  0
LINE
  8
0
 62
     0
 10
274.225
 20
36.9549
 30
0.0
 11
272.65
 21
36.9549
 31
0.0
  0
LINE
  8
0
 62
     0
 10
272.65
 20
36.9549
 30
0.0
 11
272.65
 21
41.6553
 31
0.0
  0
LINE
  8
0
 62
     0
 10
272.65
 20
41.6553
 30
0.0
 11
258.651
 21
41.6553
 31
0.0
  0
LINE
  8
0
 62
     0
 10
51.4823
 20
41.6553
 30
0.0
 11
65.4816
 21
41.6553
 31
0.0
  0
LINE
  8
0
 62
     0
 10
65.4816
 20
41.6553
 30
0.0
 11
65.4816
 21
27.6558
 31
0.0
  0
LINE
  8
0
 62
     0
 10
65.4816
 20
27.6558
 30
0.0
 11
51.4823
 21
27.6558
 31
0.0
  0
LINE
  8
0
 62
     0
 10
51.4823
 20
27.6558
 30
0.0
 11
51.4823
 21
41.6553
 31
0.0
  0
LINE
  8
0
 62
     0
 10
70.5323
 20
41.6553
 30
0.0
 11
84.5316
 21
41.6553
 31
0.0
  0
LINE
  8
0
 62
     0
 10
84.5316
 20
41.6553
 30
0.0
 11
84.5316
 21
27.6558
 31
0.0
  0
LINE
  8
0
 62
     0
 10
84.5316
 20
27.6558
 30
0.0
 11
70.5323
 21
27.6558
 31
0.0
  0
LINE
  8
0
 62
     0
 10
70.5323
 20
27.6558
 30
0.0
 11
70.5323
 21
41.6553
 31
0.0
  0
LINE
  8
0
 62
     0
 10
89.5823
 20
41.6553
 30
0.0
 11
103.582
 21
41.6553
 31
0.0
  0
LINE
  8
0
 62
     0
 10
103.582
 20
41.6553
 30
0.0
 11
103.582
 21
27.6558
 31
0.0
  0
LINE
  8
0
 62
     0
 10
103.582
 20
27.6558
 30
0.0
 11
89.5823
 21
27.6558
 31
0.0
  0
LINE
  8
0
 62
     0
 10
89.5823
 20
27.6558
 30
0.0
 11
89.5823
 21
41.6553
 31
0.0
  0
LINE
  8
0
 62
     0
 10
108.632
 20
41.6553
 30
0.0
 11
122.632
 21
41.6553
 31
0.0
  0
LINE
  8
0
 62
     0
 10
122.632
 20
41.6553
 30
0.0
 11
122.632
 21
27.6558
 31
0.0
  0
LINE
  8
0
 62
     0
 10
122.632
 20
27.6558
 30
0.0
 11
108.632
 21
27.6558
 31
0.0
  0
LINE
  8
0
 62
     0
 10
108.632
 20
27.6558
 30
0.0
 11
108.632
 21
41.6553
 31
0.0
  0
LINE
  8
0
 62
     0
 10
127.682
 20
41.6553
 30
0.0
 11
141.682
 21
41.6553
 31
0.0
  0
LINE
  8
0
 62
     0
 10
141.682
 20
41.6553
 30
0.0
 11
141.682
 21
27.6558
 31
0.0
  0
LINE
  8
0
 62
     0
 10
141.682
 20
27.6558
 30
0.0
 11
127.682
 21
27.6558
 31
0.0
  0
LINE
  8
0
 62
     0
 10
127.682
 20
27.6558
 30
0.0
 11
127.682
 21
41.6553
 31
0.0
  0
LINE
  8
0
 62
     0
 10
146.732
 20
41.6553
 30
0.0
 11
160.732
 21
41.6553
 31
0.0
  0
LINE
  8
0
 62
     0
 10
160.732
 20
41.6553
 30
0.0
 11
160.732
 21
27.6558
 31
0.0
  0
LINE
  8
0
 62
     0
 10
160.732
 20
27.6558
 30
0.0
 11
146.732
 21
27.6558
 31
0.0
  0
LINE
  8
0
 62
     0
 10
146.732
 20
27.6558
 30
0.0
 11
146.732
 21
41.6553
 31
0.0
  0
LINE
  8
0
 62
     0
 10
165.782
 20
41.6553
 30
0.0
 11
179.782
 21
41.6553
 31
0.0
  0
LINE
  8
0
 62
     0
 10
179.782
 20
41.6553
 30
0.0
 11
179.782
 21
27.6558
 31
0.0
  0
LINE
  8
0
 62
     0
 10
179.782
 20
27.6558
 30
0.0
 11
165.782
 21
27.6558
 31
0.0
  0
LINE
  8
0
 62
     0
 10
165.782
 20
27.6558
 30
0.0
 11
165.782
 21
41.6553
 31
0.0
  0
LINE
  8
0
 62
     0
 10
184.832
 20
41.6553
 30
0.0
 11
198.832
 21
41.6553
 31
0.0
  0
LINE
  8
0
 62
     0
 10
198.832
 20
41.6553
 30
0.0
 11
198.832
 21
27.6558
 31
0.0
  0
LINE
  8
0
 62
     0
 10
198.832
 20
27.6558
 30
0.0
 11
184.832
 21
27.6558
 31
0.0
  0
LINE
  8
0
 62
     0
 10
184.832
 20
27.6558
 30
0.0
 11
184.832
 21
41.6553
 31
0.0
  0
LINE
  8
0
 62
     0
 10
203.882
 20
41.6553
 30
0.0
 11
217.882
 21
41.6553
 31
0.0
  0
LINE
  8
0
 62
     0
 10
217.882
 20
41.6553
 30
0.0
 11
217.882
 21
27.6558
 31
0.0
  0
LINE
  8
0
 62
     0
 10
217.882
 20
27.6558
 30
0.0
 11
203.882
 21
27.6558
 31
0.0
  0
LINE
  8
0
 62
     0
 10
203.882
 20
27.6558
 30
0.0
 11
203.882
 21
41.6553
 31
0.0
  0
LINE
  8
0
 62
     0
 10
222.932
 20
41.6553
 30
0.0
 11
236.932
 21
41.6553
 31
0.0
  0
LINE
  8
0
 62
     0
 10
236.932
 20
41.6553
 30
0.0
 11
236.932
 21
27.6558
 31
0.0
  0
LINE
  8
0
 62
     0
 10
236.932
 20
27.6558
 30
0.0
 11
222.932
 21
27.6558
 31
0.0
  0
LINE
  8
0
 62
     0
 10
222.932
 20
27.6558
 30
0.0
 11
222.932
 21
41.6553
 31
0.0
  0
LINE
  8
0
 62
     0
 10
263.414
 20
60.7053
 30
0.0
 11
263.414
 21
56.0049
 31
0.0
  0
LINE
  8
0
 62
     0
 10
263.414
 20
56.0049
 30
0.0
 11
261.838
 21
56.0049
 31
0.0
  0
LINE
  8
0
 62
     0
 10
261.838
 20
56.0049
 30
0.0
 11
261.838
 21
59.2349
 31
0.0
  0
LINE
  8
0
 62
     0
 10
261.838
 20
59.2349
 30
0.0
 11
260.163
 21
59.2349
 31
0.0
  0
LINE
  8
0
 62
     0
 10
260.163
 20
59.2349
 30
0.0
 11
260.163
 21
60.1557
 31
0.0
  0
LINE
  8
0
 62
     0
 10
260.163
 20
60.1557
 30
0.0
 11
256.862
 21
60.1557
 31
0.0
  0
LINE
  8
0
 62
     0
 10
256.862
 20
60.1557
 30
0.0
 11
256.862
 21
59.2349
 31
0.0
  0
LINE
  8
0
 62
     0
 10
256.862
 20
59.2349
 30
0.0
 11
255.188
 21
59.2349
 31
0.0
  0
LINE
  8
0
 62
     0
 10
255.188
 20
59.2349
 30
0.0
 11
255.188
 21
56.0049
 31
0.0
  0
LINE
  8
0
 62
     0
 10
255.188
 20
56.0049
 30
0.0
 11
254.313
 21
56.0049
 31
0.0
  0
LINE
  8
0
 62
     0
 10
254.313
 20
56.0049
 30
0.0
 11
254.313
 21
53.2045
 31
0.0
  0
LINE
  8
0
 62
     0
 10
254.313
 20
53.2045
 30
0.0
 11
255.188
 21
53.2045
 31
0.0
  0
LINE
  8
0
 62
     0
 10
255.188
 20
53.2045
 30
0.0
 11
255.188
 21
46.9346
 31
0.0
  0
LINE
  8
0
 62
     0
 10
255.188
 20
46.9346
 30
0.0
 11
256.862
 21
46.9346
 31
0.0
  0
LINE
  8
0
 62
     0
 10
256.862
 20
46.9346
 30
0.0
 11
256.862
 21
45.955
 31
0.0
  0
LINE
  8
0
 62
     0
 10
256.862
 20
45.955
 30
0.0
 11
260.163
 21
45.955
 31
0.0
  0
LINE
  8
0
 62
     0
 10
260.163
 20
45.955
 30
0.0
 11
260.163
 21
46.9346
 31
0.0
  0
LINE
  8
0
 62
     0
 10
260.163
 20
46.9346
 30
0.0
 11
261.838
 21
46.9346
 31
0.0
  0
LINE
  8
0
 62
     0
 10
261.838
 20
46.9346
 30
0.0
 11
261.838
 21
51.405
 31
0.0
  0
LINE
  8
0
 62
     0
 10
261.838
 20
51.405
 30
0.0
 11
263.414
 21
51.405
 31
0.0
  0
LINE
  8
0
 62
     0
 10
263.414
 20
51.405
 30
0.0
 11
263.414
 21
46.706
 31
0.0
  0
LINE
  8
0
 62
     0
 10
263.414
 20
46.706
 30
0.0
 11
277.413
 21
46.706
 31
0.0
  0
LINE
  8
0
 62
     0
 10
277.413
 20
46.706
 30
0.0
 11
277.413
 21
51.405
 31
0.0
  0
LINE
  8
0
 62
     0
 10
277.413
 20
51.405
 30
0.0
 11
278.988
 21
51.405
 31
0.0
  0
LINE
  8
0
 62
     0
 10
278.988
 20
51.405
 30
0.0
 11
278.988
 21
46.9346
 31
0.0
  0
LINE
  8
0
 62
     0
 10
278.988
 20
46.9346
 30
0.0
 11
280.662
 21
46.9346
 31
0.0
  0
LINE
  8
0
 62
     0
 10
280.662
 20
46.9346
 30
0.0
 11
280.662
 21
45.955
 31
0.0
  0
LINE
  8
0
 62
     0
 10
280.662
 20
45.955
 30
0.0
 11
283.963
 21
45.955
 31
0.0
  0
LINE
  8
0
 62
     0
 10
283.963
 20
45.955
 30
0.0
 11
283.963
 21
46.9346
 31
0.0
  0
LINE
  8
0
 62
     0
 10
283.963
 20
46.9346
 30
0.0
 11
285.639
 21
46.9346
 31
0.0
  0
LINE
  8
0
 62
     0
 10
285.639
 20
46.9346
 30
0.0
 11
285.639
 21
53.2045
 31
0.0
  0
LINE
  8
0
 62
     0
 10
285.639
 20
53.2045
 30
0.0
 11
286.513
 21
53.2045
 31
0.0
  0
LINE
  8
0
 62
     0
 10
286.513
 20
53.2045
 30
0.0
 11
286.513
 21
56.0049
 31
0.0
  0
LINE
  8
0
 62
     0
 10
286.513
 20
56.0049
 30
0.0
 11
285.639
 21
56.0049
 31
0.0
  0
LINE
  8
0
 62
     0
 10
285.639
 20
56.0049
 30
0.0
 11
285.639
 21
59.2349
 31
0.0
  0
LINE
  8
0
 62
     0
 10
285.639
 20
59.2349
 30
0.0
 11
283.963
 21
59.2349
 31
0.0
  0
LINE
  8
0
 62
     0
 10
283.963
 20
59.2349
 30
0.0
 11
283.963
 21
60.1557
 31
0.0
  0
LINE
  8
0
 62
     0
 10
283.963
 20
60.1557
 30
0.0
 11
280.662
 21
60.1557
 31
0.0
  0
LINE
  8
0
 62
     0
 10
280.662
 20
60.1557
 30
0.0
 11
280.662
 21
59.2349
 31
0.0
  0
LINE
  8
0
 62
     0
 10
280.662
 20
59.2349
 30
0.0
 11
278.988
 21
59.2349
 31
0.0
  0
LINE
  8
0
 62
     0
 10
278.988
 20
59.2349
 30
0.0
 11
278.988
 21
56.0049
 31
0.0
  0
LINE
  8
0
 62
     0
 10
278.988
 20
56.0049
 30
0.0
 11
277.413
 21
56.0049
 31
0.0
  0
LINE
  8
0
 62
     0
 10
277.413
 20
56.0049
 30
0.0
 11
277.413
 21
60.7053
 31
0.0
  0
LINE
  8
0
 62
     0
 10
277.413
 20
60.7053
 30
0.0
 11
263.414
 21
60.7053
 31
0.0
  0
LINE
  8
0
 62
     0
 10
15.7634
 20
60.7053
 30
0.0
 11
29.7629
 21
60.7053
 31
0.0
  0
LINE
  8
0
 62
     0
 10
29.7629
 20
60.7053
 30
0.0
 11
29.7629
 21
46.706
 31
0.0
  0
LINE
  8
0
 62
     0
 10
29.7629
 20
46.706
 30
0.0
 11
15.7634
 21
46.706
 31
0.0
  0
LINE
  8
0
 62
     0
 10
15.7634
 20
46.706
 30
0.0
 11
15.7634
 21
60.7053
 31
0.0
  0
LINE
  8
0
 62
     0
 10
41.9573
 20
60.7053
 30
0.0
 11
55.9566
 21
60.7053
 31
0.0
  0
LINE
  8
0
 62
     0
 10
55.9566
 20
60.7053
 30
0.0
 11
55.9566
 21
46.706
 31
0.0
  0
LINE
  8
0
 62
     0
 10
55.9566
 20
46.706
 30
0.0
 11
41.9573
 21
46.706
 31
0.0
  0
LINE
  8
0
 62
     0
 10
41.9573
 20
46.706
 30
0.0
 11
41.9573
 21
60.7053
 31
0.0
  0
LINE
  8
0
 62
     0
 10
61.0073
 20
60.7053
 30
0.0
 11
75.0066
 21
60.7053
 31
0.0
  0
LINE
  8
0
 62
     0
 10
75.0066
 20
60.7053
 30
0.0
 11
75.0066
 21
46.706
 31
0.0
  0
LINE
  8
0
 62
     0
 10
75.0066
 20
46.706
 30
0.0
 11
61.0073
 21
46.706
 31
0.0
  0
LINE
  8
0
 62
     0
 10
61.0073
 20
46.706
 30
0.0
 11
61.0073
 21
60.7053
 31
0.0
  0
LINE
  8
0
 62
     0
 10
80.0573
 20
60.7053
 30
0.0
 11
94.0566
 21
60.7053
 31
0.0
  0
LINE
  8
0
 62
     0
 10
94.0566
 20
60.7053
 30
0.0
 11
94.0566
 21
46.706
 31
0.0
  0
LINE
  8
0
 62
     0
 10
94.0566
 20
46.706
 30
0.0
 11
80.0573
 21
46.706
 31
0.0
  0
LINE
  8
0
 62
     0
 10
80.0573
 20
46.706
 30
0.0
 11
80.0573
 21
60.7053
 31
0.0
  0
LINE
  8
0
 62
     0
 10
99.1073
 20
60.7053
 30
0.0
 11
113.107
 21
60.7053
 31
0.0
  0
LINE
  8
0
 62
     0
 10
113.107
 20
60.7053
 30
0.0
 11
113.107
 21
46.706
 31
0.0
  0
LINE
  8
0
 62
     0
 10
113.107
 20
46.706
 30
0.0
 11
99.1073
 21
46.706
 31
0.0
  0
LINE
  8
0
 62
     0
 10
99.1073
 20
46.706
 30
0.0
 11
99.1073
 21
60.7053
 31
0.0
  0
LINE
  8
0
 62
     0
 10
118.157
 20
60.7053
 30
0.0
 11
132.157
 21
60.7053
 31
0.0
  0
LINE
  8
0
 62
     0
 10
132.157
 20
60.7053
 30
0.0
 11
132.157
 21
46.706
 31
0.0
  0
LINE
  8
0
 62
     0
 10
132.157
 20
46.706
 30
0.0
 11
118.157
 21
46.706
 31
0.0
  0
LINE
  8
0
 62
     0
 10
118.157
 20
46.706
 30
0.0
 11
118.157
 21
60.7053
 31
0.0
  0
LINE
  8
0
 62
     0
 10
137.207
 20
60.7053
 30
0.0
 11
151.207
 21
60.7053
 31
0.0
  0
LINE
  8
0
 62
     0
 10
151.207
 20
60.7053
 30
0.0
 11
151.207
 21
46.706
 31
0.0
  0
LINE
  8
0
 62
     0
 10
151.207
 20
46.706
 30
0.0
 11
137.207
 21
46.706
 31
0.0
  0
LINE
  8
0
 62
     0
 10
137.207
 20
46.706
 30
0.0
 11
137.207
 21
60.7053
 31
0.0
  0
LINE
  8
0
 62
     0
 10
156.257
 20
60.7053
 30
0.0
 11
170.257
 21
60.7053
 31
0.0
  0
LINE
  8
0
 62
     0
 10
170.257
 20
60.7053
 30
0.0
 11
170.257
 21
46.706
 31
0.0
  0
LINE
  8
0
 62
     0
 10
170.257
 20
46.706
 30
0.0
 11
156.257
 21
46.706
 31
0.0
  0
LINE
  8
0
 62
     0
 10
156.257
 20
46.706
 30
0.0
 11
156.257
 21
60.7053
 31
0.0
  0
LINE
  8
0
 62
     0
 10
175.307
 20
60.7053
 30
0.0
 11
189.307
 21
60.7053
 31
0.0
  0
LINE
  8
0
 62
     0
 10
189.307
 20
60.7053
 30
0.0
 11
189.307
 21
46.706
 31
0.0
  0
LINE
  8
0
 62
     0
 10
189.307
 20
46.706
 30
0.0
 11
175.307
 21
46.706
 31
0.0
  0
LINE
  8
0
 62
     0
 10
175.307
 20
46.706
 30
0.0
 11
175.307
 21
60.7053
 31
0.0
  0
LINE
  8
0
 62
     0
 10
194.357
 20
60.7053
 30
0.0
 11
208.357
 21
60.7053
 31
0.0
  0
LINE
  8
0
 62
     0
 10
208.357
 20
60.7053
 30
0.0
 11
208.357
 21
46.706
 31
0.0
  0
LINE
  8
0
 62
     0
 10
208.357
 20
46.706
 30
0.0
 11
194.357
 21
46.706
 31
0.0
  0
LINE
  8
0
 62
     0
 10
194.357
 20
46.706
 30
0.0
 11
194.357
 21
60.7053
 31
0.0
  0
LINE
  8
0
 62
     0
 10
213.407
 20
60.7053
 30
0.0
 11
227.407
 21
60.7053
 31
0.0
  0
LINE
  8
0
 62
     0
 10
227.407
 20
60.7053
 30
0.0
 11
227.407
 21
46.706
 31
0.0
  0
LINE
  8
0
 62
     0
 10
227.407
 20
46.706
 30
0.0
 11
213.407
 21
46.706
 31
0.0
  0
LINE
  8
0
 62
     0
 10
213.407
 20
46.706
 30
0.0
 11
213.407
 21
60.7053
 31
0.0
  0
LINE
  8
0
 62
     0
 10
232.457
 20
60.7053
 30
0.0
 11
246.457
 21
60.7053
 31
0.0
  0
LINE
  8
0
 62
     0
 10
246.457
 20
60.7053
 30
0.0
 11
246.457
 21
46.706
 31
0.0
  0
LINE
  8
0
 62
     0
 10
246.457
 20
46.706
 30
0.0
 11
232.457
 21
46.706
 31
0.0
  0
LINE
  8
0
 62
     0
 10
232.457
 20
46.706
 30
0.0
 11
232.457
 21
60.7053
 31
0.0
  0
LINE
  8
0
 62
     0
 10
13.3821
 20
79.7567
 30
0.0
 11
27.3816
 21
79.7567
 31
0.0
  0
LINE
  8
0
 62
     0
 10
27.3816
 20
79.7567
 30
0.0
 11
27.3816
 21
65.756
 31
0.0
  0
LINE
  8
0
 62
     0
 10
27.3816
 20
65.756
 30
0.0
 11
13.3821
 21
65.756
 31
0.0
  0
LINE
  8
0
 62
     0
 10
13.3821
 20
65.756
 30
0.0
 11
13.3821
 21
79.7567
 31
0.0
  0
LINE
  8
0
 62
     0
 10
37.1948
 20
79.7567
 30
0.0
 11
51.1941
 21
79.7567
 31
0.0
  0
LINE
  8
0
 62
     0
 10
51.1941
 20
79.7567
 30
0.0
 11
51.1941
 21
65.756
 31
0.0
  0
LINE
  8
0
 62
     0
 10
51.1941
 20
65.756
 30
0.0
 11
37.1948
 21
65.756
 31
0.0
  0
LINE
  8
0
 62
     0
 10
37.1948
 20
65.756
 30
0.0
 11
37.1948
 21
79.7567
 31
0.0
  0
LINE
  8
0
 62
     0
 10
56.2448
 20
79.7567
 30
0.0
 11
70.2441
 21
79.7567
 31
0.0
  0
LINE
  8
0
 62
     0
 10
70.2441
 20
79.7567
 30
0.0
 11
70.2441
 21
65.756
 31
0.0
  0
LINE
  8
0
 62
     0
 10
70.2441
 20
65.756
 30
0.0
 11
56.2448
 21
65.756
 31
0.0
  0
LINE
  8
0
 62
     0
 10
56.2448
 20
65.756
 30
0.0
 11
56.2448
 21
79.7567
 31
0.0
  0
LINE
  8
0
 62
     0
 10
75.2948
 20
79.7567
 30
0.0
 11
89.2941
 21
79.7567
 31
0.0
  0
LINE
  8
0
 62
     0
 10
89.2941
 20
79.7567
 30
0.0
 11
89.2941
 21
65.756
 31
0.0
  0
LINE
  8
0
 62
     0
 10
89.2941
 20
65.756
 30
0.0
 11
75.2948
 21
65.756
 31
0.0
  0
LINE
  8
0
 62
     0
 10
75.2948
 20
65.756
 30
0.0
 11
75.2948
 21
79.7567
 31
0.0
  0
LINE
  8
0
 62
     0
 10
94.3448
 20
79.7567
 30
0.0
 11
108.344
 21
79.7567
 31
0.0
  0
LINE
  8
0
 62
     0
 10
108.344
 20
79.7567
 30
0.0
 11
108.344
 21
65.756
 31
0.0
  0
LINE
  8
0
 62
     0
 10
108.344
 20
65.756
 30
0.0
 11
94.3448
 21
65.756
 31
0.0
  0
LINE
  8
0
 62
     0
 10
94.3448
 20
65.756
 30
0.0
 11
94.3448
 21
79.7567
 31
0.0
  0
LINE
  8
0
 62
     0
 10
113.395
 20
79.7567
 30
0.0
 11
127.394
 21
79.7567
 31
0.0
  0
LINE
  8
0
 62
     0
 10
127.394
 20
79.7567
 30
0.0
 11
127.394
 21
65.756
 31
0.0
  0
LINE
  8
0
 62
     0
 10
127.394
 20
65.756
 30
0.0
 11
113.395
 21
65.756
 31
0.0
  0
LINE
  8
0
 62
     0
 10
113.395
 20
65.756
 30
0.0
 11
113.395
 21
79.7567
 31
0.0
  0
LINE
  8
0
 62
     0
 10
132.445
 20
79.7567
 30
0.0
 11
146.444
 21
79.7567
 31
0.0
  0
LINE
  8
0
 62
     0
 10
146.444
 20
79.7567
 30
0.0
 11
146.444
 21
65.756
 31
0.0
  0
LINE
  8
0
 62
     0
 10
146.444
 20
65.756
 30
0.0
 11
132.445
 21
65.756
 31
0.0
  0
LINE
  8
0
 62
     0
 10
132.445
 20
65.756
 30
0.0
 11
132.445
 21
79.7567
 31
0.0
  0
LINE
  8
0
 62
     0
 10
151.495
 20
79.7567
 30
0.0
 11
165.494
 21
79.7567
 31
0.0
  0
LINE
  8
0
 62
     0
 10
165.494
 20
79.7567
 30
0.0
 11
165.494
 21
65.756
 31
0.0
  0
LINE
  8
0
 62
     0
 10
165.494
 20
65.756
 30
0.0
 11
151.495
 21
65.756
 31
0.0
  0
LINE
  8
0
 62
     0
 10
151.495
 20
65.756
 30
0.0
 11
151.495
 21
79.7567
 31
0.0
  0
LINE
  8
0
 62
     0
 10
170.545
 20
79.7567
 30
0.0
 11
184.544
 21
79.7567
 31
0.0
  0
LINE
  8
0
 62
     0
 10
184.544
 20
79.7567
 30
0.0
 11
184.544
 21
65.756
 31
0.0
  0
LINE
  8
0
 62
     0
 10
184.544
 20
65.756
 30
0.0
 11
170.545
 21
65.756
 31
0.0
  0
LINE
  8
0
 62
     0
 10
170.545
 20
65.756
 30
0.0
 11
170.545
 21
79.7567
 31
0.0
  0
LINE
  8
0
 62
     0
 10
189.595
 20
79.7567
 30
0.0
 11
203.594
 21
79.7567
 31
0.0
  0
LINE
  8
0
 62
     0
 10
203.594
 20
79.7567
 30
0.0
 11
203.594
 21
65.756
 31
0.0
  0
LINE
  8
0
 62
     0
 10
203.594
 20
65.756
 30
0.0
 11
189.595
 21
65.756
 31
0.0
  0
LINE
  8
0
 62
     0
 10
189.595
 20
65.756
 30
0.0
 11
189.595
 21
79.7567
 31
0.0
  0
LINE
  8
0
 62
     0
 10
208.645
 20
79.7567
 30
0.0
 11
222.644
 21
79.7567
 31
0.0
  0
LINE
  8
0
 62
     0
 10
222.644
 20
79.7567
 30
0.0
 11
222.644
 21
65.756
 31
0.0
  0
LINE
  8
0
 62
     0
 10
222.644
 20
65.756
 30
0.0
 11
208.645
 21
65.756
 31
0.0
  0
LINE
  8
0
 62
     0
 10
208.645
 20
65.756
 30
0.0
 11
208.645
 21
79.7567
 31
0.0
  0
LINE
  8
0
 62
     0
 10
227.695
 20
79.7567
 30
0.0
 11
241.694
 21
79.7567
 31
0.0
  0
LINE
  8
0
 62
     0
 10
241.694
 20
79.7567
 30
0.0
 11
241.694
 21
65.756
 31
0.0
  0
LINE
  8
0
 62
     0
 10
241.694
 20
65.756
 30
0.0
 11
227.695
 21
65.756
 31
0.0
  0
LINE
  8
0
 62
     0
 10
227.695
 20
65.756
 30
0.0
 11
227.695
 21
79.7567
 31
0.0
  0
LINE
  8
0
 62
     0
 10
246.745
 20
79.7567
 30
0.0
 11
260.744
 21
79.7567
 31
0.0
  0
LINE
  8
0
 62
     0
 10
260.744
 20
79.7567
 30
0.0
 11
260.744
 21
65.756
 31
0.0
  0
LINE
  8
0
 62
     0
 10
260.744
 20
65.756
 30
0.0
 11
246.745
 21
65.756
 31
0.0
  0
LINE
  8
0
 62
     0
 10
246.745
 20
65.756
 30
0.0
 11
246.745
 21
79.7567
 31
0.0
  0
LINE
  8
0
 62
     0
 10
270.557
 20
79.7567
 30
0.0
 11
284.557
 21
79.7567
 31
0.0
  0
LINE
  8
0
 62
     0
 10
284.557
 20
79.7567
 30
0.0
 11
284.557
 21
65.756
 31
0.0
  0
LINE
  8
0
 62
     0
 10
284.557
 20
65.756
 30
0.0
 11
270.557
 21
65.756
 31
0.0
  0
LINE
  8
0
 62
     0
 10
270.557
 20
65.756
 30
0.0
 11
270.557
 21
79.7567
 31
0.0
  0
LINE
  8
0
 62
     0
 10
99.8802
 20
86.7075
 30
0.0
 11
99.4625
 21
86.4941
 31
0.0
  0
LINE
  8
0
 62
     0
 10
99.4625
 20
86.4941
 30
0.0
 11
99.1306
 21
86.1617
 31
0.0
  0
LINE
  8
0
 62
     0
 10
99.1306
 20
86.1617
 30
0.0
 11
98.9182
 21
85.7444
 31
0.0
  0
LINE
  8
0
 62
     0
 10
98.9182
 20
85.7444
 30
0.0
 11
98.8452
 21
85.2798
 31
0.0
  0
LINE
  8
0
 62
     0
 10
98.8452
 20
85.2798
 30
0.0
 11
98.9182
 21
84.8169
 31
0.0
  0
LINE
  8
0
 62
     0
 10
98.9182
 20
84.8169
 30
0.0
 11
99.1306
 21
84.3993
 31
0.0
  0
LINE
  8
0
 62
     0
 10
99.1306
 20
84.3993
 30
0.0
 11
99.4625
 21
84.0673
 31
0.0
  0
LINE
  8
0
 62
     0
 10
99.4625
 20
84.0673
 30
0.0
 11
99.8802
 21
83.8535
 31
0.0
  0
LINE
  8
0
 62
     0
 10
99.8802
 20
83.8535
 30
0.0
 11
100.344
 21
83.7805
 31
0.0
  0
LINE
  8
0
 62
     0
 10
100.344
 20
83.7805
 30
0.0
 11
100.808
 21
83.8535
 31
0.0
  0
LINE
  8
0
 62
     0
 10
100.808
 20
83.8535
 30
0.0
 11
101.226
 21
84.0673
 31
0.0
  0
LINE
  8
0
 62
     0
 10
101.226
 20
84.0673
 30
0.0
 11
101.557
 21
84.3993
 31
0.0
  0
LINE
  8
0
 62
     0
 10
101.557
 20
84.3993
 30
0.0
 11
101.771
 21
84.8169
 31
0.0
  0
LINE
  8
0
 62
     0
 10
101.771
 20
84.8169
 30
0.0
 11
101.845
 21
85.2798
 31
0.0
  0
LINE
  8
0
 62
     0
 10
101.845
 20
85.2798
 30
0.0
 11
101.771
 21
85.7444
 31
0.0
  0
LINE
  8
0
 62
     0
 10
101.771
 20
85.7444
 30
0.0
 11
101.557
 21
86.1617
 31
0.0
  0
LINE
  8
0
 62
     0
 10
101.557
 20
86.1617
 30
0.0
 11
101.226
 21
86.4941
 31
0.0
  0
LINE
  8
0
 62
     0
 10
101.226
 20
86.4941
 30
0.0
 11
100.808
 21
86.7075
 31
0.0
  0
LINE
  8
0
 62
     0
 10
100.808
 20
86.7075
 30
0.0
 11
100.344
 21
86.7805
 31
0.0
  0
LINE
  8
0
 62
     0
 10
100.344
 20
86.7805
 30
0.0
 11
99.8802
 21
86.7075
 31
0.0
  0
LINE
  8
0
 62
     0
 10
197.131
 20
86.7075
 30
0.0
 11
196.712
 21
86.4941
 31
0.0
  0
LINE
  8
0
 62
     0
 10
196.712
 20
86.4941
 30
0.0
 11
196.382
 21
86.1617
 31
0.0
  0
LINE
  8
0
 62
     0
 10
196.382
 20
86.1617
 30
0.0
 11
196.169
 21
85.7444
 31
0.0
  0
LINE
  8
0
 62
     0
 10
196.169
 20
85.7444
 30
0.0
 11
196.095
 21
85.2798
 31
0.0
  0
LINE
  8
0
 62
     0
 10
196.095
 20
85.2798
 30
0.0
 11
196.169
 21
84.8169
 31
0.0
  0
LINE
  8
0
 62
     0
 10
196.169
 20
84.8169
 30
0.0
 11
196.382
 21
84.3993
 31
0.0
  0
LINE
  8
0
 62
     0
 10
196.382
 20
84.3993
 30
0.0
 11
196.712
 21
84.0673
 31
0.0
  0
LINE
  8
0
 62
     0
 10
196.712
 20
84.0673
 30
0.0
 11
197.131
 21
83.8535
 31
0.0
  0
LINE
  8
0
 62
     0
 10
197.131
 20
83.8535
 30
0.0
 11
197.594
 21
83.7805
 31
0.0
  0
LINE
  8
0
 62
     0
 10
197.594
 20
83.7805
 30
0.0
 11
198.059
 21
83.8535
 31
0.0
  0
LINE
  8
0
 62
     0
 10
198.059
 20
83.8535
 30
0.0
 11
198.476
 21
84.0673
 31
0.0
  0
LINE
  8
0
 62
     0
 10
198.476
 20
84.0673
 30
0.0
 11
198.808
 21
84.3993
 31
0.0
  0
LINE
  8
0
 62
     0
 10
198.808
 20
84.3993
 30
0.0
 11
199.022
 21
84.8169
 31
0.0
  0
LINE
  8
0
 62
     0
 10
199.022
 20
84.8169
 30
0.0
 11
199.095
 21
85.2798
 31
0.0
  0
LINE
  8
0
 62
     0
 10
199.095
 20
85.2798
 30
0.0
 11
199.022
 21
85.7444
 31
0.0
  0
LINE
  8
0
 62
     0
 10
199.022
 20
85.7444
 30
0.0
 11
198.808
 21
86.1617
 31
0.0
  0
LINE
  8
0
 62
     0
 10
198.808
 20
86.1617
 30
0.0
 11
198.476
 21
86.4941
 31
0.0
  0
LINE
  8
0
 62
     0
 10
198.476
 20
86.4941
 30
0.0
 11
198.059
 21
86.7075
 31
0.0
  0
LINE
  8
0
 62
     0
 10
198.059
 20
86.7075
 30
0.0
 11
197.594
 21
86.7805
 31
0.0
  0
LINE
  8
0
 62
     0
 10
197.594
 20
86.7805
 30
0.0
 11
197.131
 21
86.7075
 31
0.0
  0
LINE
  8
0
 62
     0
 10
294.382
 20
86.7075
 30
0.0
 11
293.963
 21
86.4941
 31
0.0
  0
LINE
  8
0
 62
     0
 10
293.963
 20
86.4941
 30
0.0
 11
293.632
 21
86.1617
 31
0.0
  0
LINE
  8
0
 62
     0
 10
293.632
 20
86.1617
 30
0.0
 11
293.419
 21
85.7444
 31
0.0
  0
LINE
  8
0
 62
     0
 10
293.419
 20
85.7444
 30
0.0
 11
293.346
 21
85.2798
 31
0.0
  0
LINE
  8
0
 62
     0
 10
293.346
 20
85.2798
 30
0.0
 11
293.419
 21
84.8169
 31
0.0
  0
LINE
  8
0
 62
     0
 10
293.419
 20
84.8169
 30
0.0
 11
293.632
 21
84.3993
 31
0.0
  0
LINE
  8
0
 62
     0
 10
293.632
 20
84.3993
 30
0.0
 11
293.963
 21
84.0673
 31
0.0
  0
LINE
  8
0
 62
     0
 10
293.963
 20
84.0673
 30
0.0
 11
294.382
 21
83.8535
 31
0.0
  0
LINE
  8
0
 62
     0
 10
294.382
 20
83.8535
 30
0.0
 11
294.846
 21
83.7805
 31
0.0
  0
LINE
  8
0
 62
     0
 10
294.846
 20
83.7805
 30
0.0
 11
295.308
 21
83.8535
 31
0.0
  0
LINE
  8
0
 62
     0
 10
295.308
 20
83.8535
 30
0.0
 11
295.727
 21
84.0673
 31
0.0
  0
LINE
  8
0
 62
     0
 10
295.727
 20
84.0673
 30
0.0
 11
296.059
 21
84.3993
 31
0.0
  0
LINE
  8
0
 62
     0
 10
296.059
 20
84.3993
 30
0.0
 11
296.271
 21
84.8169
 31
0.0
  0
LINE
  8
0
 62
     0
 10
296.271
 20
84.8169
 30
0.0
 11
296.346
 21
85.2798
 31
0.0
  0
LINE
  8
0
 62
     0
 10
296.346
 20
85.2798
 30
0.0
 11
296.271
 21
85.7444
 31
0.0
  0
LINE
  8
0
 62
     0
 10
296.271
 20
85.7444
 30
0.0
 11
296.059
 21
86.1617
 31
0.0
  0
LINE
  8
0
 62
     0
 10
296.059
 20
86.1617
 30
0.0
 11
295.727
 21
86.4941
 31
0.0
  0
LINE
  8
0
 62
     0
 10
295.727
 20
86.4941
 30
0.0
 11
295.308
 21
86.7075
 31
0.0
  0
LINE
  8
0
 62
     0
 10
295.308
 20
86.7075
 30
0.0
 11
294.846
 21
86.7805
 31
0.0
  0
LINE
  8
0
 62
     0
 10
294.846
 20
86.7805
 30
0.0
 11
294.382
 21
86.7075
 31
0.0
  0
LINE
  8
0
 62
     0
 10
2.63067
 20
86.7075
 30
0.0
 11
2.21313
 21
86.4941
 31
0.0
  0
LINE
  8
0
 62
     0
 10
2.21313
 20
86.4941
 30
0.0
 11
1.88102
 21
86.1617
 31
0.0
  0
LINE
  8
0
 62
     0
 10
1.88102
 20
86.1617
 30
0.0
 11
1.66743
 21
85.7444
 31
0.0
  0
LINE
  8
0
 62
     0
 10
1.66743
 20
85.7444
 30
0.0
 11
1.59439
 21
85.2798
 31
0.0
  0
LINE
  8
0
 62
     0
 10
1.59439
 20
85.2798
 30
0.0
 11
1.66743
 21
84.8169
 31
0.0
  0
LINE
  8
0
 62
     0
 10
1.66743
 20
84.8169
 30
0.0
 11
1.88102
 21
84.3993
 31
0.0
  0
LINE
  8
0
 62
     0
 10
1.88102
 20
84.3993
 30
0.0
 11
2.21313
 21
84.0673
 31
0.0
  0
LINE
  8
0
 62
     0
 10
2.21313
 20
84.0673
 30
0.0
 11
2.63067
 21
83.8535
 31
0.0
  0
LINE
  8
0
 62
     0
 10
2.63067
 20
83.8535
 30
0.0
 11
3.09507
 21
83.7805
 31
0.0
  0
LINE
  8
0
 62
     0
 10
3.09507
 20
83.7805
 30
0.0
 11
3.55808
 21
83.8535
 31
0.0
  0
LINE
  8
0
 62
     0
 10
3.55808
 20
83.8535
 30
0.0
 11
3.97563
 21
84.0673
 31
0.0
  0
LINE
  8
0
 62
     0
 10
3.97563
 20
84.0673
 30
0.0
 11
4.30773
 21
84.3993
 31
0.0
  0
LINE
  8
0
 62
     0
 10
4.30773
 20
84.3993
 30
0.0
 11
4.52134
 21
84.8169
 31
0.0
  0
LINE
  8
0
 62
     0
 10
4.52134
 20
84.8169
 30
0.0
 11
4.59437
 21
85.2798
 31
0.0
  0
LINE
  8
0
 62
     0
 10
4.59437
 20
85.2798
 30
0.0
 11
4.52134
 21
85.7444
 31
0.0
  0
LINE
  8
0
 62
     0
 10
4.52134
 20
85.7444
 30
0.0
 11
4.30773
 21
86.1617
 31
0.0
  0
LINE
  8
0
 62
     0
 10
4.30773
 20
86.1617
 30
0.0
 11
3.97563
 21
86.4941
 31
0.0
  0
LINE
  8
0
 62
     0
 10
3.97563
 20
86.4941
 30
0.0
 11
3.55808
 21
86.7075
 31
0.0
  0
LINE
  8
0
 62
     0
 10
3.55808
 20
86.7075
 30
0.0
 11
3.09507
 21
86.7805
 31
0.0
  0
LINE
  8
0
 62
     0
 10
3.09507
 20
86.7805
 30
0.0
 11
2.63067
 21
86.7075
 31
0.0
  0
ENDSEC
  0
EOF
