  0
SECTION
  2
HEADER
  9
$ACADVER
  1
AC1009
  9
$EXTMIN
 10
0.0
 20
0.0
 30
0.0
  9
$EXTMAX
 10
1000.0
 20
1000.0
 30
0.0
  9
$FILLMODE
 70
 0
  9
$SPLFRAME
 70
 1
  0
ENDSEC
  0
SECTION
  2
TABLES
  0
TABLE
  2
LAYER
 70
1
  0
LAYER
  2
0
 70
     0
 62
     7
  6
CONTINUOUS
  0
ENDTAB
  0
ENDSEC
  0
SECTION
  2
ENTITIES
  0
LINE
  8
0
 62
     0
 10
294.846
 20
90.2794
 30
0.0
 11
295.081
 21
90.2712
 31
0.0
  0
LINE
  8
0
 62
     0
 10
295.081
 20
90.2712
 30
0.0
 11
295.315
 21
90.2437
 31
0.0
  0
LINE
  8
0
 62
     0
 10
295.315
 20
90.2437
 30
0.0
 11
295.545
 21
90.1982
 31
0.0
  0
LINE
  8
0
 62
     0
 10
295.545
 20
90.1982
 30
0.0
 11
295.772
 21
90.1333
 31
0.0
  0
LINE
  8
0
 62
     0
 10
295.772
 20
90.1333
 30
0.0
 11
295.994
 21
90.0522
 31
0.0
  0
LINE
  8
0
 62
     0
 10
295.994
 20
90.0522
 30
0.0
 11
296.207
 21
89.9541
 31
0.0
  0
LINE
  8
0
 62
     0
 10
296.207
 20
89.9541
 30
0.0
 11
296.413
 21
89.837
 31
0.0
  0
LINE
  8
0
 62
     0
 10
296.413
 20
89.837
 30
0.0
 11
296.609
 21
89.7075
 31
0.0
  0
LINE
  8
0
 62
     0
 10
296.609
 20
89.7075
 30
0.0
 11
296.794
 21
89.5615
 31
0.0
  0
LINE
  8
0
 62
     0
 10
296.794
 20
89.5615
 30
0.0
 11
296.967
 21
89.4016
 31
0.0
  0
LINE
  8
0
 62
     0
 10
296.967
 20
89.4016
 30
0.0
 11
297.127
 21
89.2295
 31
0.0
  0
LINE
  8
0
 62
     0
 10
297.127
 20
89.2295
 30
0.0
 11
297.273
 21
89.0432
 31
0.0
  0
LINE
  8
0
 62
     0
 10
297.273
 20
89.0432
 30
0.0
 11
297.403
 21
88.8478
 31
0.0
  0
LINE
  8
0
 62
     0
 10
297.403
 20
88.8478
 30
0.0
 11
297.518
 21
88.6425
 31
0.0
  0
LINE
  8
0
 62
     0
 10
297.518
 20
88.6425
 30
0.0
 11
297.616
 21
88.4287
 31
0.0
  0
LINE
  8
0
 62
     0
 10
297.616
 20
88.4287
 30
0.0
 11
297.699
 21
88.2082
 31
0.0
  0
LINE
  8
0
 62
     0
 10
297.699
 20
88.2082
 30
0.0
 11
297.762
 21
87.981
 31
0.0
  0
LINE
  8
0
 62
     0
 10
297.762
 20
87.981
 30
0.0
 11
297.809
 21
87.7492
 31
0.0
  0
LINE
  8
0
 62
     0
 10
297.809
 20
87.7492
 30
0.0
 11
297.835
 21
87.515
 31
0.0
  0
LINE
  8
0
 62
     0
 10
297.835
 20
87.515
 30
0.0
 11
297.846
 21
87.2793
 31
0.0
  0
LINE
  8
0
 62
     0
 10
297.846
 20
87.2793
 30
0.0
 11
297.846
 21
3.07854
 31
0.0
  0
LINE
  8
0
 62
     0
 10
297.846
 20
3.07854
 30
0.0
 11
297.835
 21
2.84427
 31
0.0
  0
LINE
  8
0
 62
     0
 10
297.835
 20
2.84427
 30
0.0
 11
297.809
 21
2.61001
 31
0.0
  0
LINE
  8
0
 62
     0
 10
297.809
 20
2.61001
 30
0.0
 11
297.762
 21
2.37849
 31
0.0
  0
LINE
  8
0
 62
     0
 10
297.762
 20
2.37849
 30
0.0
 11
297.699
 21
2.15112
 31
0.0
  0
LINE
  8
0
 62
     0
 10
297.699
 20
2.15112
 30
0.0
 11
297.616
 21
1.93063
 31
0.0
  0
LINE
  8
0
 62
     0
 10
297.616
 20
1.93063
 30
0.0
 11
297.518
 21
1.71841
 31
0.0
  0
LINE
  8
0
 62
     0
 10
297.518
 20
1.71841
 30
0.0
 11
297.403
 21
1.51171
 31
0.0
  0
LINE
  8
0
 62
     0
 10
297.403
 20
1.51171
 30
0.0
 11
297.273
 21
1.31603
 31
0.0
  0
LINE
  8
0
 62
     0
 10
297.273
 20
1.31603
 30
0.0
 11
297.127
 21
1.13137
 31
0.0
  0
LINE
  8
0
 62
     0
 10
297.127
 20
1.13137
 30
0.0
 11
296.967
 21
0.957735
 31
0.0
  0
LINE
  8
0
 62
     0
 10
296.967
 20
0.957735
 30
0.0
 11
296.794
 21
0.797885
 31
0.0
  0
LINE
  8
0
 62
     0
 10
296.794
 20
0.797885
 30
0.0
 11
296.609
 21
0.651813
 31
0.0
  0
LINE
  8
0
 62
     0
 10
296.609
 20
0.651813
 30
0.0
 11
296.413
 21
0.522277
 31
0.0
  0
LINE
  8
0
 62
     0
 10
296.413
 20
0.522277
 30
0.0
 11
296.207
 21
0.405144
 31
0.0
  0
LINE
  8
0
 62
     0
 10
296.207
 20
0.405144
 30
0.0
 11
295.994
 21
0.307303
 31
0.0
  0
LINE
  8
0
 62
     0
 10
295.994
 20
0.307303
 30
0.0
 11
295.772
 21
0.225998
 31
0.0
  0
LINE
  8
0
 62
     0
 10
295.772
 20
0.225998
 30
0.0
 11
295.545
 21
0.16123
 31
0.0
  0
LINE
  8
0
 62
     0
 10
295.545
 20
0.16123
 30
0.0
 11
295.315
 21
0.115755
 31
0.0
  0
LINE
  8
0
 62
     0
 10
295.315
 20
0.115755
 30
0.0
 11
295.081
 21
0.0881944
 31
0.0
  0
LINE
  8
0
 62
     0
 10
295.081
 20
0.0881944
 30
0.0
 11
294.846
 21
0.0785481
 31
0.0
  0
LINE
  8
0
 62
     0
 10
294.846
 20
0.0785481
 30
0.0
 11
3.09507
 21
0.0785481
 31
0.0
  0
LINE
  8
0
 62
     0
 10
3.09507
 20
0.0785481
 30
0.0
 11
2.85943
 21
0.0881944
 31
0.0
  0
LINE
  8
0
 62
     0
 10
2.85943
 20
0.0881944
 30
0.0
 11
2.62516
 21
0.115755
 31
0.0
  0
LINE
  8
0
 62
     0
 10
2.62516
 20
0.115755
 30
0.0
 11
2.39365
 21
0.16123
 31
0.0
  0
LINE
  8
0
 62
     0
 10
2.39365
 20
0.16123
 30
0.0
 11
2.16628
 21
0.225998
 31
0.0
  0
LINE
  8
0
 62
     0
 10
2.16628
 20
0.225998
 30
0.0
 11
1.94579
 21
0.307303
 31
0.0
  0
LINE
  8
0
 62
     0
 10
1.94579
 20
0.307303
 30
0.0
 11
1.7322
 21
0.405144
 31
0.0
  0
LINE
  8
0
 62
     0
 10
1.7322
 20
0.405144
 30
0.0
 11
1.52687
 21
0.522277
 31
0.0
  0
LINE
  8
0
 62
     0
 10
1.52687
 20
0.522277
 30
0.0
 11
1.33119
 21
0.651813
 31
0.0
  0
LINE
  8
0
 62
     0
 10
1.33119
 20
0.651813
 30
0.0
 11
1.14515
 21
0.797885
 31
0.0
  0
LINE
  8
0
 62
     0
 10
1.14515
 20
0.797885
 30
0.0
 11
0.972894
 21
0.957735
 31
0.0
  0
LINE
  8
0
 62
     0
 10
0.972894
 20
0.957735
 30
0.0
 11
0.813043
 21
1.13137
 31
0.0
  0
LINE
  8
0
 62
     0
 10
0.813043
 20
1.13137
 30
0.0
 11
0.666972
 21
1.31603
 31
0.0
  0
LINE
  8
0
 62
     0
 10
0.666972
 20
1.31603
 30
0.0
 11
0.537436
 21
1.51171
 31
0.0
  0
LINE
  8
0
 62
     0
 10
0.537436
 20
1.51171
 30
0.0
 11
0.420303
 21
1.71841
 31
0.0
  0
LINE
  8
0
 62
     0
 10
0.420303
 20
1.71841
 30
0.0
 11
0.322461
 21
1.93063
 31
0.0
  0
LINE
  8
0
 62
     0
 10
0.322461
 20
1.93063
 30
0.0
 11
0.241157
 21
2.15112
 31
0.0
  0
LINE
  8
0
 62
     0
 10
0.241157
 20
2.15112
 30
0.0
 11
0.176389
 21
2.37849
 31
0.0
  0
LINE
  8
0
 62
     0
 10
0.176389
 20
2.37849
 30
0.0
 11
0.130914
 21
2.61001
 31
0.0
  0
LINE
  8
0
 62
     0
 10
0.130914
 20
2.61001
 30
0.0
 11
0.103353
 21
2.84427
 31
0.0
  0
LINE
  8
0
 62
     0
 10
0.103353
 20
2.84427
 30
0.0
 11
0.0937066
 21
3.07992
 31
0.0
  0
LINE
  8
0
 62
     0
 10
0.0937066
 20
3.07992
 30
0.0
 11
0.0950846
 21
87.2793
 31
0.0
  0
LINE
  8
0
 62
     0
 10
0.0950846
 20
87.2793
 30
0.0
 11
0.103353
 21
87.515
 31
0.0
  0
LINE
  8
0
 62
     0
 10
0.103353
 20
87.515
 30
0.0
 11
0.130914
 21
87.7492
 31
0.0
  0
LINE
  8
0
 62
     0
 10
0.130914
 20
87.7492
 30
0.0
 11
0.176389
 21
87.981
 31
0.0
  0
LINE
  8
0
 62
     0
 10
0.176389
 20
87.981
 30
0.0
 11
0.241157
 21
88.2082
 31
0.0
  0
LINE
  8
0
 62
     0
 10
0.241157
 20
88.2082
 30
0.0
 11
0.322461
 21
88.4287
 31
0.0
  0
LINE
  8
0
 62
     0
 10
0.322461
 20
88.4287
 30
0.0
 11
0.420303
 21
88.6425
 31
0.0
  0
LINE
  8
0
 62
     0
 10
0.420303
 20
88.6425
 30
0.0
 11
0.537436
 21
88.8478
 31
0.0
  0
LINE
  8
0
 62
     0
 10
0.537436
 20
88.8478
 30
0.0
 11
0.666972
 21
89.0432
 31
0.0
  0
LINE
  8
0
 62
     0
 10
0.666972
 20
89.0432
 30
0.0
 11
0.813043
 21
89.2295
 31
0.0
  0
LINE
  8
0
 62
     0
 10
0.813043
 20
89.2295
 30
0.0
 11
0.972894
 21
89.4016
 31
0.0
  0
LINE
  8
0
 62
     0
 10
0.972894
 20
89.4016
 30
0.0
 11
1.14515
 21
89.5615
 31
0.0
  0
LINE
  8
0
 62
     0
 10
1.14515
 20
89.5615
 30
0.0
 11
1.33119
 21
89.7075
 31
0.0
  0
LINE
  8
0
 62
     0
 10
1.33119
 20
89.7075
 30
0.0
 11
1.52687
 21
89.837
 31
0.0
  0
LINE
  8
0
 62
     0
 10
1.52687
 20
89.837
 30
0.0
 11
1.7322
 21
89.9541
 31
0.0
  0
LINE
  8
0
 62
     0
 10
1.7322
 20
89.9541
 30
0.0
 11
1.94579
 21
90.0522
 31
0.0
  0
LINE
  8
0
 62
     0
 10
1.94579
 20
90.0522
 30
0.0
 11
2.16628
 21
90.1333
 31
0.0
  0
LINE
  8
0
 62
     0
 10
2.16628
 20
90.1333
 30
0.0
 11
2.39365
 21
90.1982
 31
0.0
  0
LINE
  8
0
 62
     0
 10
2.39365
 20
90.1982
 30
0.0
 11
2.62516
 21
90.2437
 31
0.0
  0
LINE
  8
0
 62
     0
 10
2.62516
 20
90.2437
 30
0.0
 11
2.85943
 21
90.2712
 31
0.0
  0
LINE
  8
0
 62
     0
 10
2.85943
 20
90.2712
 30
0.0
 11
3.09507
 21
90.2808
 31
0.0
  0
LINE
  8
0
 62
     0
 10
3.09507
 20
90.2808
 30
0.0
 11
294.846
 21
90.2794
 31
0.0
  0
LINE
  8
0
 62
     0
 10
294.382
 20
4.50617
 30
0.0
 11
293.963
 21
4.2926
 31
0.0
  0
LINE
  8
0
 62
     0
 10
293.963
 20
4.2926
 30
0.0
 11
293.632
 21
3.96049
 31
0.0
  0
LINE
  8
0
 62
     0
 10
293.632
 20
3.96049
 30
0.0
 11
293.419
 21
3.54295
 31
0.0
  0
LINE
  8
0
 62
     0
 10
293.419
 20
3.54295
 30
0.0
 11
293.346
 21
3.07854
 31
0.0
  0
LINE
  8
0
 62
     0
 10
293.346
 20
3.07854
 30
0.0
 11
293.419
 21
2.61552
 31
0.0
  0
LINE
  8
0
 62
     0
 10
293.419
 20
2.61552
 30
0.0
 11
293.632
 21
2.19797
 31
0.0
  0
LINE
  8
0
 62
     0
 10
293.632
 20
2.19797
 30
0.0
 11
293.963
 21
1.86586
 31
0.0
  0
LINE
  8
0
 62
     0
 10
293.963
 20
1.86586
 30
0.0
 11
294.382
 21
1.65227
 31
0.0
  0
LINE
  8
0
 62
     0
 10
294.382
 20
1.65227
 30
0.0
 11
294.846
 21
1.57923
 31
0.0
  0
LINE
  8
0
 62
     0
 10
294.846
 20
1.57923
 30
0.0
 11
295.308
 21
1.65227
 31
0.0
  0
LINE
  8
0
 62
     0
 10
295.308
 20
1.65227
 30
0.0
 11
295.727
 21
1.86586
 31
0.0
  0
LINE
  8
0
 62
     0
 10
295.727
 20
1.86586
 30
0.0
 11
296.059
 21
2.19797
 31
0.0
  0
LINE
  8
0
 62
     0
 10
296.059
 20
2.19797
 30
0.0
 11
296.271
 21
2.61552
 31
0.0
  0
LINE
  8
0
 62
     0
 10
296.271
 20
2.61552
 30
0.0
 11
296.346
 21
3.07854
 31
0.0
  0
LINE
  8
0
 62
     0
 10
296.346
 20
3.07854
 30
0.0
 11
296.271
 21
3.54295
 31
0.0
  0
LINE
  8
0
 62
     0
 10
296.271
 20
3.54295
 30
0.0
 11
296.059
 21
3.96049
 31
0.0
  0
LINE
  8
0
 62
     0
 10
296.059
 20
3.96049
 30
0.0
 11
295.727
 21
4.2926
 31
0.0
  0
LINE
  8
0
 62
     0
 10
295.727
 20
4.2926
 30
0.0
 11
295.308
 21
4.50617
 31
0.0
  0
LINE
  8
0
 62
     0
 10
295.308
 20
4.50617
 30
0.0
 11
294.846
 21
4.57923
 31
0.0
  0
LINE
  8
0
 62
     0
 10
294.846
 20
4.57923
 30
0.0
 11
294.382
 21
4.50617
 31
0.0
  0
LINE
  8
0
 62
     0
 10
197.131
 20
4.50617
 30
0.0
 11
196.712
 21
4.2926
 31
0.0
  0
LINE
  8
0
 62
     0
 10
196.712
 20
4.2926
 30
0.0
 11
196.382
 21
3.96049
 31
0.0
  0
LINE
  8
0
 62
     0
 10
196.382
 20
3.96049
 30
0.0
 11
196.169
 21
3.54295
 31
0.0
  0
LINE
  8
0
 62
     0
 10
196.169
 20
3.54295
 30
0.0
 11
196.095
 21
3.07854
 31
0.0
  0
LINE
  8
0
 62
     0
 10
196.095
 20
3.07854
 30
0.0
 11
196.169
 21
2.61552
 31
0.0
  0
LINE
  8
0
 62
     0
 10
196.169
 20
2.61552
 30
0.0
 11
196.382
 21
2.19797
 31
0.0
  0
LINE
  8
0
 62
     0
 10
196.382
 20
2.19797
 30
0.0
 11
196.712
 21
1.86586
 31
0.0
  0
LINE
  8
0
 62
     0
 10
196.712
 20
1.86586
 30
0.0
 11
197.131
 21
1.65227
 31
0.0
  0
LINE
  8
0
 62
     0
 10
197.131
 20
1.65227
 30
0.0
 11
197.594
 21
1.57923
 31
0.0
  0
LINE
  8
0
 62
     0
 10
197.594
 20
1.57923
 30
0.0
 11
198.059
 21
1.65227
 31
0.0
  0
LINE
  8
0
 62
     0
 10
198.059
 20
1.65227
 30
0.0
 11
198.476
 21
1.86586
 31
0.0
  0
LINE
  8
0
 62
     0
 10
198.476
 20
1.86586
 30
0.0
 11
198.808
 21
2.19797
 31
0.0
  0
LINE
  8
0
 62
     0
 10
198.808
 20
2.19797
 30
0.0
 11
199.022
 21
2.61552
 31
0.0
  0
LINE
  8
0
 62
     0
 10
199.022
 20
2.61552
 30
0.0
 11
199.095
 21
3.07854
 31
0.0
  0
LINE
  8
0
 62
     0
 10
199.095
 20
3.07854
 30
0.0
 11
199.022
 21
3.54295
 31
0.0
  0
LINE
  8
0
 62
     0
 10
199.022
 20
3.54295
 30
0.0
 11
198.808
 21
3.96049
 31
0.0
  0
LINE
  8
0
 62
     0
 10
198.808
 20
3.96049
 30
0.0
 11
198.476
 21
4.2926
 31
0.0
  0
LINE
  8
0
 62
     0
 10
198.476
 20
4.2926
 30
0.0
 11
198.059
 21
4.50617
 31
0.0
  0
LINE
  8
0
 62
     0
 10
198.059
 20
4.50617
 30
0.0
 11
197.594
 21
4.57923
 31
0.0
  0
LINE
  8
0
 62
     0
 10
197.594
 20
4.57923
 30
0.0
 11
197.131
 21
4.50617
 31
0.0
  0
LINE
  8
0
 62
     0
 10
99.8802
 20
4.50617
 30
0.0
 11
99.4625
 21
4.2926
 31
0.0
  0
LINE
  8
0
 62
     0
 10
99.4625
 20
4.2926
 30
0.0
 11
99.1306
 21
3.96049
 31
0.0
  0
LINE
  8
0
 62
     0
 10
99.1306
 20
3.96049
 30
0.0
 11
98.9182
 21
3.54295
 31
0.0
  0
LINE
  8
0
 62
     0
 10
98.9182
 20
3.54295
 30
0.0
 11
98.8452
 21
3.07854
 31
0.0
  0
LINE
  8
0
 62
     0
 10
98.8452
 20
3.07854
 30
0.0
 11
98.9182
 21
2.61552
 31
0.0
  0
LINE
  8
0
 62
     0
 10
98.9182
 20
2.61552
 30
0.0
 11
99.1306
 21
2.19797
 31
0.0
  0
LINE
  8
0
 62
     0
 10
99.1306
 20
2.19797
 30
0.0
 11
99.4625
 21
1.86586
 31
0.0
  0
LINE
  8
0
 62
     0
 10
99.4625
 20
1.86586
 30
0.0
 11
99.8802
 21
1.65227
 31
0.0
  0
LINE
  8
0
 62
     0
 10
99.8802
 20
1.65227
 30
0.0
 11
100.344
 21
1.57923
 31
0.0
  0
LINE
  8
0
 62
     0
 10
100.344
 20
1.57923
 30
0.0
 11
100.808
 21
1.65227
 31
0.0
  0
LINE
  8
0
 62
     0
 10
100.808
 20
1.65227
 30
0.0
 11
101.226
 21
1.86586
 31
0.0
  0
LINE
  8
0
 62
     0
 10
101.226
 20
1.86586
 30
0.0
 11
101.557
 21
2.19797
 31
0.0
  0
LINE
  8
0
 62
     0
 10
101.557
 20
2.19797
 30
0.0
 11
101.771
 21
2.61552
 31
0.0
  0
LINE
  8
0
 62
     0
 10
101.771
 20
2.61552
 30
0.0
 11
101.845
 21
3.07854
 31
0.0
  0
LINE
  8
0
 62
     0
 10
101.845
 20
3.07854
 30
0.0
 11
101.771
 21
3.54295
 31
0.0
  0
LINE
  8
0
 62
     0
 10
101.771
 20
3.54295
 30
0.0
 11
101.557
 21
3.96049
 31
0.0
  0
LINE
  8
0
 62
     0
 10
101.557
 20
3.96049
 30
0.0
 11
101.226
 21
4.2926
 31
0.0
  0
LINE
  8
0
 62
     0
 10
101.226
 20
4.2926
 30
0.0
 11
100.808
 21
4.50617
 31
0.0
  0
LINE
  8
0
 62
     0
 10
100.808
 20
4.50617
 30
0.0
 11
100.344
 21
4.57923
 31
0.0
  0
LINE
  8
0
 62
     0
 10
100.344
 20
4.57923
 30
0.0
 11
99.8802
 21
4.50617
 31
0.0
  0
LINE
  8
0
 62
     0
 10
2.63067
 20
4.50617
 30
0.0
 11
2.21313
 21
4.2926
 31
0.0
  0
LINE
  8
0
 62
     0
 10
2.21313
 20
4.2926
 30
0.0
 11
1.88102
 21
3.96049
 31
0.0
  0
LINE
  8
0
 62
     0
 10
1.88102
 20
3.96049
 30
0.0
 11
1.66743
 21
3.54295
 31
0.0
  0
LINE
  8
0
 62
     0
 10
1.66743
 20
3.54295
 30
0.0
 11
1.59439
 21
3.07854
 31
0.0
  0
LINE
  8
0
 62
     0
 10
1.59439
 20
3.07854
 30
0.0
 11
1.66743
 21
2.61552
 31
0.0
  0
LINE
  8
0
 62
     0
 10
1.66743
 20
2.61552
 30
0.0
 11
1.88102
 21
2.19797
 31
0.0
  0
LINE
  8
0
 62
     0
 10
1.88102
 20
2.19797
 30
0.0
 11
2.21313
 21
1.86586
 31
0.0
  0
LINE
  8
0
 62
     0
 10
2.21313
 20
1.86586
 30
0.0
 11
2.63067
 21
1.65227
 31
0.0
  0
LINE
  8
0
 62
     0
 10
2.63067
 20
1.65227
 30
0.0
 11
3.09507
 21
1.57923
 31
0.0
  0
LINE
  8
0
 62
     0
 10
3.09507
 20
1.57923
 30
0.0
 11
3.55808
 21
1.65227
 31
0.0
  0
LINE
  8
0
 62
     0
 10
3.55808
 20
1.65227
 30
0.0
 11
3.97563
 21
1.86586
 31
0.0
  0
LINE
  8
0
 62
     0
 10
3.97563
 20
1.86586
 30
0.0
 11
4.30773
 21
2.19797
 31
0.0
  0
LINE
  8
0
 62
     0
 10
4.30773
 20
2.19797
 30
0.0
 11
4.52134
 21
2.61552
 31
0.0
  0
LINE
  8
0
 62
     0
 10
4.52134
 20
2.61552
 30
0.0
 11
4.59437
 21
3.07854
 31
0.0
  0
LINE
  8
0
 62
     0
 10
4.59437
 20
3.07854
 30
0.0
 11
4.52134
 21
3.54295
 31
0.0
  0
LINE
  8
0
 62
     0
 10
4.52134
 20
3.54295
 30
0.0
 11
4.30773
 21
3.96049
 31
0.0
  0
LINE
  8
0
 62
     0
 10
4.30773
 20
3.96049
 30
0.0
 11
3.97563
 21
4.2926
 31
0.0
  0
LINE
  8
0
 62
     0
 10
3.97563
 20
4.2926
 30
0.0
 11
3.55808
 21
4.50617
 31
0.0
  0
LINE
  8
0
 62
     0
 10
3.55808
 20
4.50617
 30
0.0
 11
3.09507
 21
4.57923
 31
0.0
  0
LINE
  8
0
 62
     0
 10
3.09507
 20
4.57923
 30
0.0
 11
2.63067
 21
4.50617
 31
0.0
  0
LINE
  8
0
 62
     0
 10
130.064
 20
24.6049
 30
0.0
 11
130.064
 21
23.6044
 31
0.0
  0
LINE
  8
0
 62
     0
 10
130.064
 20
23.6044
 30
0.0
 11
129.263
 21
23.6044
 31
0.0
  0
LINE
  8
0
 62
     0
 10
129.263
 20
23.6044
 30
0.0
 11
129.263
 21
20.5052
 31
0.0
  0
LINE
  8
0
 62
     0
 10
129.263
 20
20.5052
 30
0.0
 11
130.064
 21
20.5052
 31
0.0
  0
LINE
  8
0
 62
     0
 10
130.064
 20
20.5052
 30
0.0
 11
130.064
 21
19.9044
 31
0.0
  0
LINE
  8
0
 62
     0
 10
130.064
 20
19.9044
 30
0.0
 11
90.4378
 21
19.9044
 31
0.0
  0
LINE
  8
0
 62
     0
 10
90.4378
 20
19.9044
 30
0.0
 11
90.4378
 21
23.1345
 31
0.0
  0
LINE
  8
0
 62
     0
 10
90.4378
 20
23.1345
 30
0.0
 11
88.7127
 21
23.1345
 31
0.0
  0
LINE
  8
0
 62
     0
 10
88.7127
 20
23.1345
 30
0.0
 11
88.7127
 21
24.055
 31
0.0
  0
LINE
  8
0
 62
     0
 10
88.7127
 20
24.055
 30
0.0
 11
85.4121
 21
24.055
 31
0.0
  0
LINE
  8
0
 62
     0
 10
85.4121
 20
24.055
 30
0.0
 11
85.4121
 21
23.1345
 31
0.0
  0
LINE
  8
0
 62
     0
 10
85.4121
 20
23.1345
 30
0.0
 11
83.6884
 21
23.1345
 31
0.0
  0
LINE
  8
0
 62
     0
 10
83.6884
 20
23.1345
 30
0.0
 11
83.6884
 21
19.9044
 31
0.0
  0
LINE
  8
0
 62
     0
 10
83.6884
 20
19.9044
 30
0.0
 11
82.8629
 21
19.9044
 31
0.0
  0
LINE
  8
0
 62
     0
 10
82.8629
 20
19.9044
 30
0.0
 11
82.8629
 21
17.1042
 31
0.0
  0
LINE
  8
0
 62
     0
 10
82.8629
 20
17.1042
 30
0.0
 11
83.6884
 21
17.1042
 31
0.0
  0
LINE
  8
0
 62
     0
 10
83.6884
 20
17.1042
 30
0.0
 11
83.6884
 21
10.8341
 31
0.0
  0
LINE
  8
0
 62
     0
 10
83.6884
 20
10.8341
 30
0.0
 11
85.4121
 21
10.8341
 31
0.0
  0
LINE
  8
0
 62
     0
 10
85.4121
 20
10.8341
 30
0.0
 11
85.4121
 21
9.85435
 31
0.0
  0
LINE
  8
0
 62
     0
 10
85.4121
 20
9.85435
 30
0.0
 11
88.7127
 21
9.85435
 31
0.0
  0
LINE
  8
0
 62
     0
 10
88.7127
 20
9.85435
 30
0.0
 11
88.7127
 21
10.8341
 31
0.0
  0
LINE
  8
0
 62
     0
 10
88.7127
 20
10.8341
 30
0.0
 11
90.4378
 21
10.8341
 31
0.0
  0
LINE
  8
0
 62
     0
 10
90.4378
 20
10.8341
 30
0.0
 11
90.4378
 21
15.3045
 31
0.0
  0
LINE
  8
0
 62
     0
 10
90.4378
 20
15.3045
 30
0.0
 11
130.064
 21
15.3045
 31
0.0
  0
LINE
  8
0
 62
     0
 10
130.064
 20
15.3045
 30
0.0
 11
130.064
 21
14.705
 31
0.0
  0
LINE
  8
0
 62
     0
 10
130.064
 20
14.705
 30
0.0
 11
129.263
 21
14.705
 31
0.0
  0
LINE
  8
0
 62
     0
 10
129.263
 20
14.705
 30
0.0
 11
129.263
 21
11.6044
 31
0.0
  0
LINE
  8
0
 62
     0
 10
129.263
 20
11.6044
 30
0.0
 11
130.064
 21
11.6044
 31
0.0
  0
LINE
  8
0
 62
     0
 10
130.064
 20
11.6044
 30
0.0
 11
130.064
 21
10.6054
 31
0.0
  0
LINE
  8
0
 62
     0
 10
130.064
 20
10.6054
 30
0.0
 11
144.063
 21
10.6054
 31
0.0
  0
LINE
  8
0
 62
     0
 10
144.063
 20
10.6054
 30
0.0
 11
144.063
 21
11.6044
 31
0.0
  0
LINE
  8
0
 62
     0
 10
144.063
 20
11.6044
 30
0.0
 11
144.862
 21
11.6044
 31
0.0
  0
LINE
  8
0
 62
     0
 10
144.862
 20
11.6044
 30
0.0
 11
144.862
 21
14.705
 31
0.0
  0
LINE
  8
0
 62
     0
 10
144.862
 20
14.705
 30
0.0
 11
144.063
 21
14.705
 31
0.0
  0
LINE
  8
0
 62
     0
 10
144.063
 20
14.705
 30
0.0
 11
144.063
 21
15.3045
 31
0.0
  0
LINE
  8
0
 62
     0
 10
144.063
 20
15.3045
 30
0.0
 11
183.688
 21
15.3045
 31
0.0
  0
LINE
  8
0
 62
     0
 10
183.688
 20
15.3045
 30
0.0
 11
183.688
 21
10.8341
 31
0.0
  0
LINE
  8
0
 62
     0
 10
183.688
 20
10.8341
 30
0.0
 11
185.412
 21
10.8341
 31
0.0
  0
LINE
  8
0
 62
     0
 10
185.412
 20
10.8341
 30
0.0
 11
185.412
 21
9.85435
 31
0.0
  0
LINE
  8
0
 62
     0
 10
185.412
 20
9.85435
 30
0.0
 11
188.713
 21
9.85435
 31
0.0
  0
LINE
  8
0
 62
     0
 10
188.713
 20
9.85435
 30
0.0
 11
188.713
 21
10.8341
 31
0.0
  0
LINE
  8
0
 62
     0
 10
188.713
 20
10.8341
 30
0.0
 11
190.438
 21
10.8341
 31
0.0
  0
LINE
  8
0
 62
     0
 10
190.438
 20
10.8341
 30
0.0
 11
190.438
 21
17.1042
 31
0.0
  0
LINE
  8
0
 62
     0
 10
190.438
 20
17.1042
 30
0.0
 11
191.263
 21
17.1042
 31
0.0
  0
LINE
  8
0
 62
     0
 10
191.263
 20
17.1042
 30
0.0
 11
191.263
 21
19.9044
 31
0.0
  0
LINE
  8
0
 62
     0
 10
191.263
 20
19.9044
 30
0.0
 11
190.438
 21
19.9044
 31
0.0
  0
LINE
  8
0
 62
     0
 10
190.438
 20
19.9044
 30
0.0
 11
190.438
 21
23.1345
 31
0.0
  0
LINE
  8
0
 62
     0
 10
190.438
 20
23.1345
 30
0.0
 11
188.713
 21
23.1345
 31
0.0
  0
LINE
  8
0
 62
     0
 10
188.713
 20
23.1345
 30
0.0
 11
188.713
 21
24.055
 31
0.0
  0
LINE
  8
0
 62
     0
 10
188.713
 20
24.055
 30
0.0
 11
185.412
 21
24.055
 31
0.0
  0
LINE
  8
0
 62
     0
 10
185.412
 20
24.055
 30
0.0
 11
185.412
 21
23.1345
 31
0.0
  0
LINE
  8
0
 62
     0
 10
185.412
 20
23.1345
 30
0.0
 11
183.688
 21
23.1345
 31
0.0
  0
LINE
  8
0
 62
     0
 10
183.688
 20
23.1345
 30
0.0
 11
183.688
 21
19.9044
 31
0.0
  0
LINE
  8
0
 62
     0
 10
183.688
 20
19.9044
 30
0.0
 11
144.063
 21
19.9044
 31
0.0
  0
LINE
  8
0
 62
     0
 10
144.063
 20
19.9044
 30
0.0
 11
144.063
 21
20.5052
 31
0.0
  0
LINE
  8
0
 62
     0
 10
144.063
 20
20.5052
 30
0.0
 11
144.862
 21
20.5052
 31
0.0
  0
LINE
  8
0
 62
     0
 10
144.862
 20
20.5052
 30
0.0
 11
144.862
 21
23.6044
 31
0.0
  0
LINE
  8
0
 62
     0
 10
144.862
 20
23.6044
 30
0.0
 11
144.063
 21
23.6044
 31
0.0
  0
LINE
  8
0
 62
     0
 10
144.063
 20
23.6044
 30
0.0
 11
144.063
 21
24.6049
 31
0.0
  0
LINE
  8
0
 62
     0
 10
144.063
 20
24.6049
 30
0.0
 11
130.064
 21
24.6049
 31
0.0
  0
LINE
  8
0
 62
     0
 10
11.0009
 20
24.6049
 30
0.0
 11
11.0009
 21
23.6044
 31
0.0
  0
LINE
  8
0
 62
     0
 10
11.0009
 20
23.6044
 30
0.0
 11
10.2003
 21
23.6044
 31
0.0
  0
LINE
  8
0
 62
     0
 10
10.2003
 20
23.6044
 30
0.0
 11
10.2003
 21
20.5052
 31
0.0
  0
LINE
  8
0
 62
     0
 10
10.2003
 20
20.5052
 30
0.0
 11
11.0009
 21
20.5052
 31
0.0
  0
LINE
  8
0
 62
     0
 10
11.0009
 20
20.5052
 30
0.0
 11
11.0009
 21
14.705
 31
0.0
  0
LINE
  8
0
 62
     0
 10
11.0009
 20
14.705
 30
0.0
 11
10.2003
 21
14.705
 31
0.0
  0
LINE
  8
0
 62
     0
 10
10.2003
 20
14.705
 30
0.0
 11
10.2003
 21
11.6044
 31
0.0
  0
LINE
  8
0
 62
     0
 10
10.2003
 20
11.6044
 30
0.0
 11
11.0009
 21
11.6044
 31
0.0
  0
LINE
  8
0
 62
     0
 10
11.0009
 20
11.6044
 30
0.0
 11
11.0009
 21
10.6054
 31
0.0
  0
LINE
  8
0
 62
     0
 10
11.0009
 20
10.6054
 30
0.0
 11
25.0004
 21
10.6054
 31
0.0
  0
LINE
  8
0
 62
     0
 10
25.0004
 20
10.6054
 30
0.0
 11
25.0004
 21
11.6044
 31
0.0
  0
LINE
  8
0
 62
     0
 10
25.0004
 20
11.6044
 30
0.0
 11
25.801
 21
11.6044
 31
0.0
  0
LINE
  8
0
 62
     0
 10
25.801
 20
11.6044
 30
0.0
 11
25.801
 21
14.705
 31
0.0
  0
LINE
  8
0
 62
     0
 10
25.801
 20
14.705
 30
0.0
 11
25.0004
 21
14.705
 31
0.0
  0
LINE
  8
0
 62
     0
 10
25.0004
 20
14.705
 30
0.0
 11
25.0004
 21
20.5052
 31
0.0
  0
LINE
  8
0
 62
     0
 10
25.0004
 20
20.5052
 30
0.0
 11
25.801
 21
20.5052
 31
0.0
  0
LINE
  8
0
 62
     0
 10
25.801
 20
20.5052
 30
0.0
 11
25.801
 21
23.6044
 31
0.0
  0
LINE
  8
0
 62
     0
 10
25.801
 20
23.6044
 30
0.0
 11
25.0004
 21
23.6044
 31
0.0
  0
LINE
  8
0
 62
     0
 10
25.0004
 20
23.6044
 30
0.0
 11
25.0004
 21
24.6049
 31
0.0
  0
LINE
  8
0
 62
     0
 10
25.0004
 20
24.6049
 30
0.0
 11
11.0009
 21
24.6049
 31
0.0
  0
LINE
  8
0
 62
     0
 10
34.8134
 20
24.6049
 30
0.0
 11
34.8134
 21
23.6044
 31
0.0
  0
LINE
  8
0
 62
     0
 10
34.8134
 20
23.6044
 30
0.0
 11
34.0128
 21
23.6044
 31
0.0
  0
LINE
  8
0
 62
     0
 10
34.0128
 20
23.6044
 30
0.0
 11
34.0128
 21
20.5052
 31
0.0
  0
LINE
  8
0
 62
     0
 10
34.0128
 20
20.5052
 30
0.0
 11
34.8134
 21
20.5052
 31
0.0
  0
LINE
  8
0
 62
     0
 10
34.8134
 20
20.5052
 30
0.0
 11
34.8134
 21
14.705
 31
0.0
  0
LINE
  8
0
 62
     0
 10
34.8134
 20
14.705
 30
0.0
 11
34.0128
 21
14.705
 31
0.0
  0
LINE
  8
0
 62
     0
 10
34.0128
 20
14.705
 30
0.0
 11
34.0128
 21
11.6044
 31
0.0
  0
LINE
  8
0
 62
     0
 10
34.0128
 20
11.6044
 30
0.0
 11
34.8134
 21
11.6044
 31
0.0
  0
LINE
  8
0
 62
     0
 10
34.8134
 20
11.6044
 30
0.0
 11
34.8134
 21
10.6054
 31
0.0
  0
LINE
  8
0
 62
     0
 10
34.8134
 20
10.6054
 30
0.0
 11
48.8128
 21
10.6054
 31
0.0
  0
LINE
  8
0
 62
     0
 10
48.8128
 20
10.6054
 30
0.0
 11
48.8128
 21
11.6044
 31
0.0
  0
LINE
  8
0
 62
     0
 10
48.8128
 20
11.6044
 30
0.0
 11
49.6122
 21
11.6044
 31
0.0
  0
LINE
  8
0
 62
     0
 10
49.6122
 20
11.6044
 30
0.0
 11
49.6122
 21
14.705
 31
0.0
  0
LINE
  8
0
 62
     0
 10
49.6122
 20
14.705
 30
0.0
 11
48.8128
 21
14.705
 31
0.0
  0
LINE
  8
0
 62
     0
 10
48.8128
 20
14.705
 30
0.0
 11
48.8128
 21
20.5052
 31
0.0
  0
LINE
  8
0
 62
     0
 10
48.8128
 20
20.5052
 30
0.0
 11
49.6122
 21
20.5052
 31
0.0
  0
LINE
  8
0
 62
     0
 10
49.6122
 20
20.5052
 30
0.0
 11
49.6122
 21
23.6044
 31
0.0
  0
LINE
  8
0
 62
     0
 10
49.6122
 20
23.6044
 30
0.0
 11
48.8128
 21
23.6044
 31
0.0
  0
LINE
  8
0
 62
     0
 10
48.8128
 20
23.6044
 30
0.0
 11
48.8128
 21
24.6049
 31
0.0
  0
LINE
  8
0
 62
     0
 10
48.8128
 20
24.6049
 30
0.0
 11
34.8134
 21
24.6049
 31
0.0
  0
LINE
  8
0
 62
     0
 10
58.626
 20
24.6049
 30
0.0
 11
58.626
 21
23.6044
 31
0.0
  0
LINE
  8
0
 62
     0
 10
58.626
 20
23.6044
 30
0.0
 11
57.8252
 21
23.6044
 31
0.0
  0
LINE
  8
0
 62
     0
 10
57.8252
 20
23.6044
 30
0.0
 11
57.8252
 21
20.5052
 31
0.0
  0
LINE
  8
0
 62
     0
 10
57.8252
 20
20.5052
 30
0.0
 11
58.626
 21
20.5052
 31
0.0
  0
LINE
  8
0
 62
     0
 10
58.626
 20
20.5052
 30
0.0
 11
58.626
 21
14.705
 31
0.0
  0
LINE
  8
0
 62
     0
 10
58.626
 20
14.705
 30
0.0
 11
57.8252
 21
14.705
 31
0.0
  0
LINE
  8
0
 62
     0
 10
57.8252
 20
14.705
 30
0.0
 11
57.8252
 21
11.6044
 31
0.0
  0
LINE
  8
0
 62
     0
 10
57.8252
 20
11.6044
 30
0.0
 11
58.626
 21
11.6044
 31
0.0
  0
LINE
  8
0
 62
     0
 10
58.626
 20
11.6044
 30
0.0
 11
58.626
 21
10.6054
 31
0.0
  0
LINE
  8
0
 62
     0
 10
58.626
 20
10.6054
 30
0.0
 11
72.6253
 21
10.6054
 31
0.0
  0
LINE
  8
0
 62
     0
 10
72.6253
 20
10.6054
 30
0.0
 11
72.6253
 21
11.6044
 31
0.0
  0
LINE
  8
0
 62
     0
 10
72.6253
 20
11.6044
 30
0.0
 11
73.4261
 21
11.6044
 31
0.0
  0
LINE
  8
0
 62
     0
 10
73.4261
 20
11.6044
 30
0.0
 11
73.4261
 21
14.705
 31
0.0
  0
LINE
  8
0
 62
     0
 10
73.4261
 20
14.705
 30
0.0
 11
72.6253
 21
14.705
 31
0.0
  0
LINE
  8
0
 62
     0
 10
72.6253
 20
14.705
 30
0.0
 11
72.6253
 21
20.5052
 31
0.0
  0
LINE
  8
0
 62
     0
 10
72.6253
 20
20.5052
 30
0.0
 11
73.4261
 21
20.5052
 31
0.0
  0
LINE
  8
0
 62
     0
 10
73.4261
 20
20.5052
 30
0.0
 11
73.4261
 21
23.6044
 31
0.0
  0
LINE
  8
0
 62
     0
 10
73.4261
 20
23.6044
 30
0.0
 11
72.6253
 21
23.6044
 31
0.0
  0
LINE
  8
0
 62
     0
 10
72.6253
 20
23.6044
 30
0.0
 11
72.6253
 21
24.6049
 31
0.0
  0
LINE
  8
0
 62
     0
 10
72.6253
 20
24.6049
 30
0.0
 11
58.626
 21
24.6049
 31
0.0
  0
LINE
  8
0
 62
     0
 10
201.501
 20
24.6049
 30
0.0
 11
201.501
 21
23.6044
 31
0.0
  0
LINE
  8
0
 62
     0
 10
201.501
 20
23.6044
 30
0.0
 11
200.7
 21
23.6044
 31
0.0
  0
LINE
  8
0
 62
     0
 10
200.7
 20
23.6044
 30
0.0
 11
200.7
 21
20.5052
 31
0.0
  0
LINE
  8
0
 62
     0
 10
200.7
 20
20.5052
 30
0.0
 11
201.501
 21
20.5052
 31
0.0
  0
LINE
  8
0
 62
     0
 10
201.501
 20
20.5052
 30
0.0
 11
201.501
 21
14.705
 31
0.0
  0
LINE
  8
0
 62
     0
 10
201.501
 20
14.705
 30
0.0
 11
200.7
 21
14.705
 31
0.0
  0
LINE
  8
0
 62
     0
 10
200.7
 20
14.705
 30
0.0
 11
200.7
 21
11.6044
 31
0.0
  0
LINE
  8
0
 62
     0
 10
200.7
 20
11.6044
 30
0.0
 11
201.501
 21
11.6044
 31
0.0
  0
LINE
  8
0
 62
     0
 10
201.501
 20
11.6044
 30
0.0
 11
201.501
 21
10.6054
 31
0.0
  0
LINE
  8
0
 62
     0
 10
201.501
 20
10.6054
 30
0.0
 11
215.5
 21
10.6054
 31
0.0
  0
LINE
  8
0
 62
     0
 10
215.5
 20
10.6054
 30
0.0
 11
215.5
 21
11.6044
 31
0.0
  0
LINE
  8
0
 62
     0
 10
215.5
 20
11.6044
 30
0.0
 11
216.301
 21
11.6044
 31
0.0
  0
LINE
  8
0
 62
     0
 10
216.301
 20
11.6044
 30
0.0
 11
216.301
 21
14.705
 31
0.0
  0
LINE
  8
0
 62
     0
 10
216.301
 20
14.705
 30
0.0
 11
215.5
 21
14.705
 31
0.0
  0
LINE
  8
0
 62
     0
 10
215.5
 20
14.705
 30
0.0
 11
215.5
 21
20.5052
 31
0.0
  0
LINE
  8
0
 62
     0
 10
215.5
 20
20.5052
 30
0.0
 11
216.301
 21
20.5052
 31
0.0
  0
LINE
  8
0
 62
     0
 10
216.301
 20
20.5052
 30
0.0
 11
216.301
 21
23.6044
 31
0.0
  0
LINE
  8
0
 62
     0
 10
216.301
 20
23.6044
 30
0.0
 11
215.5
 21
23.6044
 31
0.0
  0
LINE
  8
0
 62
     0
 10
215.5
 20
23.6044
 30
0.0
 11
215.5
 21
24.6049
 31
0.0
  0
LINE
  8
0
 62
     0
 10
215.5
 20
24.6049
 30
0.0
 11
201.501
 21
24.6049
 31
0.0
  0
LINE
  8
0
 62
     0
 10
225.314
 20
24.6049
 30
0.0
 11
225.314
 21
23.6044
 31
0.0
  0
LINE
  8
0
 62
     0
 10
225.314
 20
23.6044
 30
0.0
 11
224.513
 21
23.6044
 31
0.0
  0
LINE
  8
0
 62
     0
 10
224.513
 20
23.6044
 30
0.0
 11
224.513
 21
20.5052
 31
0.0
  0
LINE
  8
0
 62
     0
 10
224.513
 20
20.5052
 30
0.0
 11
225.314
 21
20.5052
 31
0.0
  0
LINE
  8
0
 62
     0
 10
225.314
 20
20.5052
 30
0.0
 11
225.314
 21
14.705
 31
0.0
  0
LINE
  8
0
 62
     0
 10
225.314
 20
14.705
 30
0.0
 11
224.513
 21
14.705
 31
0.0
  0
LINE
  8
0
 62
     0
 10
224.513
 20
14.705
 30
0.0
 11
224.513
 21
11.6044
 31
0.0
  0
LINE
  8
0
 62
     0
 10
224.513
 20
11.6044
 30
0.0
 11
225.314
 21
11.6044
 31
0.0
  0
LINE
  8
0
 62
     0
 10
225.314
 20
11.6044
 30
0.0
 11
225.314
 21
10.6054
 31
0.0
  0
LINE
  8
0
 62
     0
 10
225.314
 20
10.6054
 30
0.0
 11
239.313
 21
10.6054
 31
0.0
  0
LINE
  8
0
 62
     0
 10
239.313
 20
10.6054
 30
0.0
 11
239.313
 21
11.6044
 31
0.0
  0
LINE
  8
0
 62
     0
 10
239.313
 20
11.6044
 30
0.0
 11
240.112
 21
11.6044
 31
0.0
  0
LINE
  8
0
 62
     0
 10
240.112
 20
11.6044
 30
0.0
 11
240.112
 21
14.705
 31
0.0
  0
LINE
  8
0
 62
     0
 10
240.112
 20
14.705
 30
0.0
 11
239.313
 21
14.705
 31
0.0
  0
LINE
  8
0
 62
     0
 10
239.313
 20
14.705
 30
0.0
 11
239.313
 21
20.5052
 31
0.0
  0
LINE
  8
0
 62
     0
 10
239.313
 20
20.5052
 30
0.0
 11
240.112
 21
20.5052
 31
0.0
  0
LINE
  8
0
 62
     0
 10
240.112
 20
20.5052
 30
0.0
 11
240.112
 21
23.6044
 31
0.0
  0
LINE
  8
0
 62
     0
 10
240.112
 20
23.6044
 30
0.0
 11
239.313
 21
23.6044
 31
0.0
  0
LINE
  8
0
 62
     0
 10
239.313
 20
23.6044
 30
0.0
 11
239.313
 21
24.6049
 31
0.0
  0
LINE
  8
0
 62
     0
 10
239.313
 20
24.6049
 30
0.0
 11
225.314
 21
24.6049
 31
0.0
  0
LINE
  8
0
 62
     0
 10
249.126
 20
24.6049
 30
0.0
 11
249.126
 21
23.6044
 31
0.0
  0
LINE
  8
0
 62
     0
 10
249.126
 20
23.6044
 30
0.0
 11
248.325
 21
23.6044
 31
0.0
  0
LINE
  8
0
 62
     0
 10
248.325
 20
23.6044
 30
0.0
 11
248.325
 21
20.5052
 31
0.0
  0
LINE
  8
0
 62
     0
 10
248.325
 20
20.5052
 30
0.0
 11
249.126
 21
20.5052
 31
0.0
  0
LINE
  8
0
 62
     0
 10
249.126
 20
20.5052
 30
0.0
 11
249.126
 21
14.705
 31
0.0
  0
LINE
  8
0
 62
     0
 10
249.126
 20
14.705
 30
0.0
 11
248.325
 21
14.705
 31
0.0
  0
LINE
  8
0
 62
     0
 10
248.325
 20
14.705
 30
0.0
 11
248.325
 21
11.6044
 31
0.0
  0
LINE
  8
0
 62
     0
 10
248.325
 20
11.6044
 30
0.0
 11
249.126
 21
11.6044
 31
0.0
  0
LINE
  8
0
 62
     0
 10
249.126
 20
11.6044
 30
0.0
 11
249.126
 21
10.6054
 31
0.0
  0
LINE
  8
0
 62
     0
 10
249.126
 20
10.6054
 30
0.0
 11
263.125
 21
10.6054
 31
0.0
  0
LINE
  8
0
 62
     0
 10
263.125
 20
10.6054
 30
0.0
 11
263.125
 21
11.6044
 31
0.0
  0
LINE
  8
0
 62
     0
 10
263.125
 20
11.6044
 30
0.0
 11
263.926
 21
11.6044
 31
0.0
  0
LINE
  8
0
 62
     0
 10
263.926
 20
11.6044
 30
0.0
 11
263.926
 21
14.705
 31
0.0
  0
LINE
  8
0
 62
     0
 10
263.926
 20
14.705
 30
0.0
 11
263.125
 21
14.705
 31
0.0
  0
LINE
  8
0
 62
     0
 10
263.125
 20
14.705
 30
0.0
 11
263.125
 21
20.5052
 31
0.0
  0
LINE
  8
0
 62
     0
 10
263.125
 20
20.5052
 30
0.0
 11
263.926
 21
20.5052
 31
0.0
  0
LINE
  8
0
 62
     0
 10
263.926
 20
20.5052
 30
0.0
 11
263.926
 21
23.6044
 31
0.0
  0
LINE
  8
0
 62
     0
 10
263.926
 20
23.6044
 30
0.0
 11
263.125
 21
23.6044
 31
0.0
  0
LINE
  8
0
 62
     0
 10
263.125
 20
23.6044
 30
0.0
 11
263.125
 21
24.6049
 31
0.0
  0
LINE
  8
0
 62
     0
 10
263.125
 20
24.6049
 30
0.0
 11
249.126
 21
24.6049
 31
0.0
  0
LINE
  8
0
 62
     0
 10
272.939
 20
24.6049
 30
0.0
 11
272.939
 21
23.6044
 31
0.0
  0
LINE
  8
0
 62
     0
 10
272.939
 20
23.6044
 30
0.0
 11
272.138
 21
23.6044
 31
0.0
  0
LINE
  8
0
 62
     0
 10
272.138
 20
23.6044
 30
0.0
 11
272.138
 21
20.5052
 31
0.0
  0
LINE
  8
0
 62
     0
 10
272.138
 20
20.5052
 30
0.0
 11
272.939
 21
20.5052
 31
0.0
  0
LINE
  8
0
 62
     0
 10
272.939
 20
20.5052
 30
0.0
 11
272.939
 21
14.705
 31
0.0
  0
LINE
  8
0
 62
     0
 10
272.939
 20
14.705
 30
0.0
 11
272.138
 21
14.705
 31
0.0
  0
LINE
  8
0
 62
     0
 10
272.138
 20
14.705
 30
0.0
 11
272.138
 21
11.6044
 31
0.0
  0
LINE
  8
0
 62
     0
 10
272.138
 20
11.6044
 30
0.0
 11
272.939
 21
11.6044
 31
0.0
  0
LINE
  8
0
 62
     0
 10
272.939
 20
11.6044
 30
0.0
 11
272.939
 21
10.6054
 31
0.0
  0
LINE
  8
0
 62
     0
 10
272.939
 20
10.6054
 30
0.0
 11
286.938
 21
10.6054
 31
0.0
  0
LINE
  8
0
 62
     0
 10
286.938
 20
10.6054
 30
0.0
 11
286.938
 21
11.6044
 31
0.0
  0
LINE
  8
0
 62
     0
 10
286.938
 20
11.6044
 30
0.0
 11
287.737
 21
11.6044
 31
0.0
  0
LINE
  8
0
 62
     0
 10
287.737
 20
11.6044
 30
0.0
 11
287.737
 21
14.705
 31
0.0
  0
LINE
  8
0
 62
     0
 10
287.737
 20
14.705
 30
0.0
 11
286.938
 21
14.705
 31
0.0
  0
LINE
  8
0
 62
     0
 10
286.938
 20
14.705
 30
0.0
 11
286.938
 21
20.5052
 31
0.0
  0
LINE
  8
0
 62
     0
 10
286.938
 20
20.5052
 30
0.0
 11
287.737
 21
20.5052
 31
0.0
  0
LINE
  8
0
 62
     0
 10
287.737
 20
20.5052
 30
0.0
 11
287.737
 21
23.6044
 31
0.0
  0
LINE
  8
0
 62
     0
 10
287.737
 20
23.6044
 30
0.0
 11
286.938
 21
23.6044
 31
0.0
  0
LINE
  8
0
 62
     0
 10
286.938
 20
23.6044
 30
0.0
 11
286.938
 21
24.6049
 31
0.0
  0
LINE
  8
0
 62
     0
 10
286.938
 20
24.6049
 30
0.0
 11
272.939
 21
24.6049
 31
0.0
  0
LINE
  8
0
 62
     0
 10
20.5259
 20
43.6548
 30
0.0
 11
20.5259
 21
42.6544
 31
0.0
  0
LINE
  8
0
 62
     0
 10
20.5259
 20
42.6544
 30
0.0
 11
19.7253
 21
42.6544
 31
0.0
  0
LINE
  8
0
 62
     0
 10
19.7253
 20
42.6544
 30
0.0
 11
19.7253
 21
39.5552
 31
0.0
  0
LINE
  8
0
 62
     0
 10
19.7253
 20
39.5552
 30
0.0
 11
20.5259
 21
39.5552
 31
0.0
  0
LINE
  8
0
 62
     0
 10
20.5259
 20
39.5552
 30
0.0
 11
20.5259
 21
38.9544
 31
0.0
  0
LINE
  8
0
 62
     0
 10
20.5259
 20
38.9544
 30
0.0
 11
19.0004
 21
38.9544
 31
0.0
  0
LINE
  8
0
 62
     0
 10
19.0004
 20
38.9544
 30
0.0
 11
19.0004
 21
42.1845
 31
0.0
  0
LINE
  8
0
 62
     0
 10
19.0004
 20
42.1845
 30
0.0
 11
17.2751
 21
42.1845
 31
0.0
  0
LINE
  8
0
 62
     0
 10
17.2751
 20
42.1845
 30
0.0
 11
17.2751
 21
43.1052
 31
0.0
  0
LINE
  8
0
 62
     0
 10
17.2751
 20
43.1052
 30
0.0
 11
13.9761
 21
43.1052
 31
0.0
  0
LINE
  8
0
 62
     0
 10
13.9761
 20
43.1052
 30
0.0
 11
13.9761
 21
42.1845
 31
0.0
  0
LINE
  8
0
 62
     0
 10
13.9761
 20
42.1845
 30
0.0
 11
12.2508
 21
42.1845
 31
0.0
  0
LINE
  8
0
 62
     0
 10
12.2508
 20
42.1845
 30
0.0
 11
12.2508
 21
38.9544
 31
0.0
  0
LINE
  8
0
 62
     0
 10
12.2508
 20
38.9544
 30
0.0
 11
11.4253
 21
38.9544
 31
0.0
  0
LINE
  8
0
 62
     0
 10
11.4253
 20
38.9544
 30
0.0
 11
11.4253
 21
36.1541
 31
0.0
  0
LINE
  8
0
 62
     0
 10
11.4253
 20
36.1541
 30
0.0
 11
12.2508
 21
36.1541
 31
0.0
  0
LINE
  8
0
 62
     0
 10
12.2508
 20
36.1541
 30
0.0
 11
12.2508
 21
29.8855
 31
0.0
  0
LINE
  8
0
 62
     0
 10
12.2508
 20
29.8855
 30
0.0
 11
13.9761
 21
29.8855
 31
0.0
  0
LINE
  8
0
 62
     0
 10
13.9761
 20
29.8855
 30
0.0
 11
13.9761
 21
28.9044
 31
0.0
  0
LINE
  8
0
 62
     0
 10
13.9761
 20
28.9044
 30
0.0
 11
17.2751
 21
28.9044
 31
0.0
  0
LINE
  8
0
 62
     0
 10
17.2751
 20
28.9044
 30
0.0
 11
17.2751
 21
29.8855
 31
0.0
  0
LINE
  8
0
 62
     0
 10
17.2751
 20
29.8855
 30
0.0
 11
19.0004
 21
29.8855
 31
0.0
  0
LINE
  8
0
 62
     0
 10
19.0004
 20
29.8855
 30
0.0
 11
19.0004
 21
34.3545
 31
0.0
  0
LINE
  8
0
 62
     0
 10
19.0004
 20
34.3545
 30
0.0
 11
20.5259
 21
34.3545
 31
0.0
  0
LINE
  8
0
 62
     0
 10
20.5259
 20
34.3545
 30
0.0
 11
20.5259
 21
33.755
 31
0.0
  0
LINE
  8
0
 62
     0
 10
20.5259
 20
33.755
 30
0.0
 11
19.7253
 21
33.755
 31
0.0
  0
LINE
  8
0
 62
     0
 10
19.7253
 20
33.755
 30
0.0
 11
19.7253
 21
30.6544
 31
0.0
  0
LINE
  8
0
 62
     0
 10
19.7253
 20
30.6544
 30
0.0
 11
20.5259
 21
30.6544
 31
0.0
  0
LINE
  8
0
 62
     0
 10
20.5259
 20
30.6544
 30
0.0
 11
20.5259
 21
29.6554
 31
0.0
  0
LINE
  8
0
 62
     0
 10
20.5259
 20
29.6554
 30
0.0
 11
34.5254
 21
29.6554
 31
0.0
  0
LINE
  8
0
 62
     0
 10
34.5254
 20
29.6554
 30
0.0
 11
34.5254
 21
30.6544
 31
0.0
  0
LINE
  8
0
 62
     0
 10
34.5254
 20
30.6544
 30
0.0
 11
35.3261
 21
30.6544
 31
0.0
  0
LINE
  8
0
 62
     0
 10
35.3261
 20
30.6544
 30
0.0
 11
35.3261
 21
33.755
 31
0.0
  0
LINE
  8
0
 62
     0
 10
35.3261
 20
33.755
 30
0.0
 11
34.5254
 21
33.755
 31
0.0
  0
LINE
  8
0
 62
     0
 10
34.5254
 20
33.755
 30
0.0
 11
34.5254
 21
34.3545
 31
0.0
  0
LINE
  8
0
 62
     0
 10
34.5254
 20
34.3545
 30
0.0
 11
36.0507
 21
34.3545
 31
0.0
  0
LINE
  8
0
 62
     0
 10
36.0507
 20
34.3545
 30
0.0
 11
36.0507
 21
29.8855
 31
0.0
  0
LINE
  8
0
 62
     0
 10
36.0507
 20
29.8855
 30
0.0
 11
37.7762
 21
29.8855
 31
0.0
  0
LINE
  8
0
 62
     0
 10
37.7762
 20
29.8855
 30
0.0
 11
37.7762
 21
28.9044
 31
0.0
  0
LINE
  8
0
 62
     0
 10
37.7762
 20
28.9044
 30
0.0
 11
41.0753
 21
28.9044
 31
0.0
  0
LINE
  8
0
 62
     0
 10
41.0753
 20
28.9044
 30
0.0
 11
41.0753
 21
29.8855
 31
0.0
  0
LINE
  8
0
 62
     0
 10
41.0753
 20
29.8855
 30
0.0
 11
42.8004
 21
29.8855
 31
0.0
  0
LINE
  8
0
 62
     0
 10
42.8004
 20
29.8855
 30
0.0
 11
42.8004
 21
36.1541
 31
0.0
  0
LINE
  8
0
 62
     0
 10
42.8004
 20
36.1541
 30
0.0
 11
43.6259
 21
36.1541
 31
0.0
  0
LINE
  8
0
 62
     0
 10
43.6259
 20
36.1541
 30
0.0
 11
43.6259
 21
38.9544
 31
0.0
  0
LINE
  8
0
 62
     0
 10
43.6259
 20
38.9544
 30
0.0
 11
42.8004
 21
38.9544
 31
0.0
  0
LINE
  8
0
 62
     0
 10
42.8004
 20
38.9544
 30
0.0
 11
42.8004
 21
42.1845
 31
0.0
  0
LINE
  8
0
 62
     0
 10
42.8004
 20
42.1845
 30
0.0
 11
41.0753
 21
42.1845
 31
0.0
  0
LINE
  8
0
 62
     0
 10
41.0753
 20
42.1845
 30
0.0
 11
41.0753
 21
43.1052
 31
0.0
  0
LINE
  8
0
 62
     0
 10
41.0753
 20
43.1052
 30
0.0
 11
37.7762
 21
43.1052
 31
0.0
  0
LINE
  8
0
 62
     0
 10
37.7762
 20
43.1052
 30
0.0
 11
37.7762
 21
42.1845
 31
0.0
  0
LINE
  8
0
 62
     0
 10
37.7762
 20
42.1845
 30
0.0
 11
36.0507
 21
42.1845
 31
0.0
  0
LINE
  8
0
 62
     0
 10
36.0507
 20
42.1845
 30
0.0
 11
36.0507
 21
38.9544
 31
0.0
  0
LINE
  8
0
 62
     0
 10
36.0507
 20
38.9544
 30
0.0
 11
34.5254
 21
38.9544
 31
0.0
  0
LINE
  8
0
 62
     0
 10
34.5254
 20
38.9544
 30
0.0
 11
34.5254
 21
39.5552
 31
0.0
  0
LINE
  8
0
 62
     0
 10
34.5254
 20
39.5552
 30
0.0
 11
35.3261
 21
39.5552
 31
0.0
  0
LINE
  8
0
 62
     0
 10
35.3261
 20
39.5552
 30
0.0
 11
35.3261
 21
42.6544
 31
0.0
  0
LINE
  8
0
 62
     0
 10
35.3261
 20
42.6544
 30
0.0
 11
34.5254
 21
42.6544
 31
0.0
  0
LINE
  8
0
 62
     0
 10
34.5254
 20
42.6544
 30
0.0
 11
34.5254
 21
43.6548
 31
0.0
  0
LINE
  8
0
 62
     0
 10
34.5254
 20
43.6548
 30
0.0
 11
20.5259
 21
43.6548
 31
0.0
  0
LINE
  8
0
 62
     0
 10
258.651
 20
43.6548
 30
0.0
 11
258.651
 21
42.6544
 31
0.0
  0
LINE
  8
0
 62
     0
 10
258.651
 20
42.6544
 30
0.0
 11
257.85
 21
42.6544
 31
0.0
  0
LINE
  8
0
 62
     0
 10
257.85
 20
42.6544
 30
0.0
 11
257.85
 21
39.5552
 31
0.0
  0
LINE
  8
0
 62
     0
 10
257.85
 20
39.5552
 30
0.0
 11
258.651
 21
39.5552
 31
0.0
  0
LINE
  8
0
 62
     0
 10
258.651
 20
39.5552
 30
0.0
 11
258.651
 21
38.9544
 31
0.0
  0
LINE
  8
0
 62
     0
 10
258.651
 20
38.9544
 30
0.0
 11
257.125
 21
38.9544
 31
0.0
  0
LINE
  8
0
 62
     0
 10
257.125
 20
38.9544
 30
0.0
 11
257.125
 21
42.1845
 31
0.0
  0
LINE
  8
0
 62
     0
 10
257.125
 20
42.1845
 30
0.0
 11
255.4
 21
42.1845
 31
0.0
  0
LINE
  8
0
 62
     0
 10
255.4
 20
42.1845
 30
0.0
 11
255.4
 21
43.1052
 31
0.0
  0
LINE
  8
0
 62
     0
 10
255.4
 20
43.1052
 30
0.0
 11
252.1
 21
43.1052
 31
0.0
  0
LINE
  8
0
 62
     0
 10
252.1
 20
43.1052
 30
0.0
 11
252.1
 21
42.1845
 31
0.0
  0
LINE
  8
0
 62
     0
 10
252.1
 20
42.1845
 30
0.0
 11
250.376
 21
42.1845
 31
0.0
  0
LINE
  8
0
 62
     0
 10
250.376
 20
42.1845
 30
0.0
 11
250.376
 21
38.9544
 31
0.0
  0
LINE
  8
0
 62
     0
 10
250.376
 20
38.9544
 30
0.0
 11
249.55
 21
38.9544
 31
0.0
  0
LINE
  8
0
 62
     0
 10
249.55
 20
38.9544
 30
0.0
 11
249.55
 21
36.1541
 31
0.0
  0
LINE
  8
0
 62
     0
 10
249.55
 20
36.1541
 30
0.0
 11
250.376
 21
36.1541
 31
0.0
  0
LINE
  8
0
 62
     0
 10
250.376
 20
36.1541
 30
0.0
 11
250.376
 21
29.8855
 31
0.0
  0
LINE
  8
0
 62
     0
 10
250.376
 20
29.8855
 30
0.0
 11
252.1
 21
29.8855
 31
0.0
  0
LINE
  8
0
 62
     0
 10
252.1
 20
29.8855
 30
0.0
 11
252.1
 21
28.9044
 31
0.0
  0
LINE
  8
0
 62
     0
 10
252.1
 20
28.9044
 30
0.0
 11
255.4
 21
28.9044
 31
0.0
  0
LINE
  8
0
 62
     0
 10
255.4
 20
28.9044
 30
0.0
 11
255.4
 21
29.8855
 31
0.0
  0
LINE
  8
0
 62
     0
 10
255.4
 20
29.8855
 30
0.0
 11
257.125
 21
29.8855
 31
0.0
  0
LINE
  8
0
 62
     0
 10
257.125
 20
29.8855
 30
0.0
 11
257.125
 21
34.3545
 31
0.0
  0
LINE
  8
0
 62
     0
 10
257.125
 20
34.3545
 30
0.0
 11
258.651
 21
34.3545
 31
0.0
  0
LINE
  8
0
 62
     0
 10
258.651
 20
34.3545
 30
0.0
 11
258.651
 21
33.755
 31
0.0
  0
LINE
  8
0
 62
     0
 10
258.651
 20
33.755
 30
0.0
 11
257.85
 21
33.755
 31
0.0
  0
LINE
  8
0
 62
     0
 10
257.85
 20
33.755
 30
0.0
 11
257.85
 21
30.6544
 31
0.0
  0
LINE
  8
0
 62
     0
 10
257.85
 20
30.6544
 30
0.0
 11
258.651
 21
30.6544
 31
0.0
  0
LINE
  8
0
 62
     0
 10
258.651
 20
30.6544
 30
0.0
 11
258.651
 21
29.6554
 31
0.0
  0
LINE
  8
0
 62
     0
 10
258.651
 20
29.6554
 30
0.0
 11
272.65
 21
29.6554
 31
0.0
  0
LINE
  8
0
 62
     0
 10
272.65
 20
29.6554
 30
0.0
 11
272.65
 21
30.6544
 31
0.0
  0
LINE
  8
0
 62
     0
 10
272.65
 20
30.6544
 30
0.0
 11
273.451
 21
30.6544
 31
0.0
  0
LINE
  8
0
 62
     0
 10
273.451
 20
30.6544
 30
0.0
 11
273.451
 21
33.755
 31
0.0
  0
LINE
  8
0
 62
     0
 10
273.451
 20
33.755
 30
0.0
 11
272.65
 21
33.755
 31
0.0
  0
LINE
  8
0
 62
     0
 10
272.65
 20
33.755
 30
0.0
 11
272.65
 21
34.3545
 31
0.0
  0
LINE
  8
0
 62
     0
 10
272.65
 20
34.3545
 30
0.0
 11
274.176
 21
34.3545
 31
0.0
  0
LINE
  8
0
 62
     0
 10
274.176
 20
34.3545
 30
0.0
 11
274.176
 21
29.8855
 31
0.0
  0
LINE
  8
0
 62
     0
 10
274.176
 20
29.8855
 30
0.0
 11
275.901
 21
29.8855
 31
0.0
  0
LINE
  8
0
 62
     0
 10
275.901
 20
29.8855
 30
0.0
 11
275.901
 21
28.9044
 31
0.0
  0
LINE
  8
0
 62
     0
 10
275.901
 20
28.9044
 30
0.0
 11
279.2
 21
28.9044
 31
0.0
  0
LINE
  8
0
 62
     0
 10
279.2
 20
28.9044
 30
0.0
 11
279.2
 21
29.8855
 31
0.0
  0
LINE
  8
0
 62
     0
 10
279.2
 20
29.8855
 30
0.0
 11
280.925
 21
29.8855
 31
0.0
  0
LINE
  8
0
 62
     0
 10
280.925
 20
29.8855
 30
0.0
 11
280.925
 21
36.1541
 31
0.0
  0
LINE
  8
0
 62
     0
 10
280.925
 20
36.1541
 30
0.0
 11
281.751
 21
36.1541
 31
0.0
  0
LINE
  8
0
 62
     0
 10
281.751
 20
36.1541
 30
0.0
 11
281.751
 21
38.9544
 31
0.0
  0
LINE
  8
0
 62
     0
 10
281.751
 20
38.9544
 30
0.0
 11
280.925
 21
38.9544
 31
0.0
  0
LINE
  8
0
 62
     0
 10
280.925
 20
38.9544
 30
0.0
 11
280.925
 21
42.1845
 31
0.0
  0
LINE
  8
0
 62
     0
 10
280.925
 20
42.1845
 30
0.0
 11
279.2
 21
42.1845
 31
0.0
  0
LINE
  8
0
 62
     0
 10
279.2
 20
42.1845
 30
0.0
 11
279.2
 21
43.1052
 31
0.0
  0
LINE
  8
0
 62
     0
 10
279.2
 20
43.1052
 30
0.0
 11
275.901
 21
43.1052
 31
0.0
  0
LINE
  8
0
 62
     0
 10
275.901
 20
43.1052
 30
0.0
 11
275.901
 21
42.1845
 31
0.0
  0
LINE
  8
0
 62
     0
 10
275.901
 20
42.1845
 30
0.0
 11
274.176
 21
42.1845
 31
0.0
  0
LINE
  8
0
 62
     0
 10
274.176
 20
42.1845
 30
0.0
 11
274.176
 21
38.9544
 31
0.0
  0
LINE
  8
0
 62
     0
 10
274.176
 20
38.9544
 30
0.0
 11
272.65
 21
38.9544
 31
0.0
  0
LINE
  8
0
 62
     0
 10
272.65
 20
38.9544
 30
0.0
 11
272.65
 21
39.5552
 31
0.0
  0
LINE
  8
0
 62
     0
 10
272.65
 20
39.5552
 30
0.0
 11
273.451
 21
39.5552
 31
0.0
  0
LINE
  8
0
 62
     0
 10
273.451
 20
39.5552
 30
0.0
 11
273.451
 21
42.6544
 31
0.0
  0
LINE
  8
0
 62
     0
 10
273.451
 20
42.6544
 30
0.0
 11
272.65
 21
42.6544
 31
0.0
  0
LINE
  8
0
 62
     0
 10
272.65
 20
42.6544
 30
0.0
 11
272.65
 21
43.6548
 31
0.0
  0
LINE
  8
0
 62
     0
 10
272.65
 20
43.6548
 30
0.0
 11
258.651
 21
43.6548
 31
0.0
  0
LINE
  8
0
 62
     0
 10
51.4823
 20
43.6548
 30
0.0
 11
51.4823
 21
42.6544
 31
0.0
  0
LINE
  8
0
 62
     0
 10
51.4823
 20
42.6544
 30
0.0
 11
50.6815
 21
42.6544
 31
0.0
  0
LINE
  8
0
 62
     0
 10
50.6815
 20
42.6544
 30
0.0
 11
50.6815
 21
39.5552
 31
0.0
  0
LINE
  8
0
 62
     0
 10
50.6815
 20
39.5552
 30
0.0
 11
51.4823
 21
39.5552
 31
0.0
  0
LINE
  8
0
 62
     0
 10
51.4823
 20
39.5552
 30
0.0
 11
51.4823
 21
33.755
 31
0.0
  0
LINE
  8
0
 62
     0
 10
51.4823
 20
33.755
 30
0.0
 11
50.6815
 21
33.755
 31
0.0
  0
LINE
  8
0
 62
     0
 10
50.6815
 20
33.755
 30
0.0
 11
50.6815
 21
30.6544
 31
0.0
  0
LINE
  8
0
 62
     0
 10
50.6815
 20
30.6544
 30
0.0
 11
51.4823
 21
30.6544
 31
0.0
  0
LINE
  8
0
 62
     0
 10
51.4823
 20
30.6544
 30
0.0
 11
51.4823
 21
29.6554
 31
0.0
  0
LINE
  8
0
 62
     0
 10
51.4823
 20
29.6554
 30
0.0
 11
65.4816
 21
29.6554
 31
0.0
  0
LINE
  8
0
 62
     0
 10
65.4816
 20
29.6554
 30
0.0
 11
65.4816
 21
30.6544
 31
0.0
  0
LINE
  8
0
 62
     0
 10
65.4816
 20
30.6544
 30
0.0
 11
66.2824
 21
30.6544
 31
0.0
  0
LINE
  8
0
 62
     0
 10
66.2824
 20
30.6544
 30
0.0
 11
66.2824
 21
33.755
 31
0.0
  0
LINE
  8
0
 62
     0
 10
66.2824
 20
33.755
 30
0.0
 11
65.4816
 21
33.755
 31
0.0
  0
LINE
  8
0
 62
     0
 10
65.4816
 20
33.755
 30
0.0
 11
65.4816
 21
39.5552
 31
0.0
  0
LINE
  8
0
 62
     0
 10
65.4816
 20
39.5552
 30
0.0
 11
66.2824
 21
39.5552
 31
0.0
  0
LINE
  8
0
 62
     0
 10
66.2824
 20
39.5552
 30
0.0
 11
66.2824
 21
42.6544
 31
0.0
  0
LINE
  8
0
 62
     0
 10
66.2824
 20
42.6544
 30
0.0
 11
65.4816
 21
42.6544
 31
0.0
  0
LINE
  8
0
 62
     0
 10
65.4816
 20
42.6544
 30
0.0
 11
65.4816
 21
43.6548
 31
0.0
  0
LINE
  8
0
 62
     0
 10
65.4816
 20
43.6548
 30
0.0
 11
51.4823
 21
43.6548
 31
0.0
  0
LINE
  8
0
 62
     0
 10
70.5323
 20
43.6548
 30
0.0
 11
70.5323
 21
42.6544
 31
0.0
  0
LINE
  8
0
 62
     0
 10
70.5323
 20
42.6544
 30
0.0
 11
69.7315
 21
42.6544
 31
0.0
  0
LINE
  8
0
 62
     0
 10
69.7315
 20
42.6544
 30
0.0
 11
69.7315
 21
39.5552
 31
0.0
  0
LINE
  8
0
 62
     0
 10
69.7315
 20
39.5552
 30
0.0
 11
70.5323
 21
39.5552
 31
0.0
  0
LINE
  8
0
 62
     0
 10
70.5323
 20
39.5552
 30
0.0
 11
70.5323
 21
33.755
 31
0.0
  0
LINE
  8
0
 62
     0
 10
70.5323
 20
33.755
 30
0.0
 11
69.7315
 21
33.755
 31
0.0
  0
LINE
  8
0
 62
     0
 10
69.7315
 20
33.755
 30
0.0
 11
69.7315
 21
30.6544
 31
0.0
  0
LINE
  8
0
 62
     0
 10
69.7315
 20
30.6544
 30
0.0
 11
70.5323
 21
30.6544
 31
0.0
  0
LINE
  8
0
 62
     0
 10
70.5323
 20
30.6544
 30
0.0
 11
70.5323
 21
29.6554
 31
0.0
  0
LINE
  8
0
 62
     0
 10
70.5323
 20
29.6554
 30
0.0
 11
84.5316
 21
29.6554
 31
0.0
  0
LINE
  8
0
 62
     0
 10
84.5316
 20
29.6554
 30
0.0
 11
84.5316
 21
30.6544
 31
0.0
  0
LINE
  8
0
 62
     0
 10
84.5316
 20
30.6544
 30
0.0
 11
85.3324
 21
30.6544
 31
0.0
  0
LINE
  8
0
 62
     0
 10
85.3324
 20
30.6544
 30
0.0
 11
85.3324
 21
33.755
 31
0.0
  0
LINE
  8
0
 62
     0
 10
85.3324
 20
33.755
 30
0.0
 11
84.5316
 21
33.755
 31
0.0
  0
LINE
  8
0
 62
     0
 10
84.5316
 20
33.755
 30
0.0
 11
84.5316
 21
39.5552
 31
0.0
  0
LINE
  8
0
 62
     0
 10
84.5316
 20
39.5552
 30
0.0
 11
85.3324
 21
39.5552
 31
0.0
  0
LINE
  8
0
 62
     0
 10
85.3324
 20
39.5552
 30
0.0
 11
85.3324
 21
42.6544
 31
0.0
  0
LINE
  8
0
 62
     0
 10
85.3324
 20
42.6544
 30
0.0
 11
84.5316
 21
42.6544
 31
0.0
  0
LINE
  8
0
 62
     0
 10
84.5316
 20
42.6544
 30
0.0
 11
84.5316
 21
43.6548
 31
0.0
  0
LINE
  8
0
 62
     0
 10
84.5316
 20
43.6548
 30
0.0
 11
70.5323
 21
43.6548
 31
0.0
  0
LINE
  8
0
 62
     0
 10
89.5823
 20
43.6548
 30
0.0
 11
89.5823
 21
42.6544
 31
0.0
  0
LINE
  8
0
 62
     0
 10
89.5823
 20
42.6544
 30
0.0
 11
88.7815
 21
42.6544
 31
0.0
  0
LINE
  8
0
 62
     0
 10
88.7815
 20
42.6544
 30
0.0
 11
88.7815
 21
39.5552
 31
0.0
  0
LINE
  8
0
 62
     0
 10
88.7815
 20
39.5552
 30
0.0
 11
89.5823
 21
39.5552
 31
0.0
  0
LINE
  8
0
 62
     0
 10
89.5823
 20
39.5552
 30
0.0
 11
89.5823
 21
33.755
 31
0.0
  0
LINE
  8
0
 62
     0
 10
89.5823
 20
33.755
 30
0.0
 11
88.7815
 21
33.755
 31
0.0
  0
LINE
  8
0
 62
     0
 10
88.7815
 20
33.755
 30
0.0
 11
88.7815
 21
30.6544
 31
0.0
  0
LINE
  8
0
 62
     0
 10
88.7815
 20
30.6544
 30
0.0
 11
89.5823
 21
30.6544
 31
0.0
  0
LINE
  8
0
 62
     0
 10
89.5823
 20
30.6544
 30
0.0
 11
89.5823
 21
29.6554
 31
0.0
  0
LINE
  8
0
 62
     0
 10
89.5823
 20
29.6554
 30
0.0
 11
103.582
 21
29.6554
 31
0.0
  0
LINE
  8
0
 62
     0
 10
103.582
 20
29.6554
 30
0.0
 11
103.582
 21
30.6544
 31
0.0
  0
LINE
  8
0
 62
     0
 10
103.582
 20
30.6544
 30
0.0
 11
104.382
 21
30.6544
 31
0.0
  0
LINE
  8
0
 62
     0
 10
104.382
 20
30.6544
 30
0.0
 11
104.382
 21
33.755
 31
0.0
  0
LINE
  8
0
 62
     0
 10
104.382
 20
33.755
 30
0.0
 11
103.582
 21
33.755
 31
0.0
  0
LINE
  8
0
 62
     0
 10
103.582
 20
33.755
 30
0.0
 11
103.582
 21
39.5552
 31
0.0
  0
LINE
  8
0
 62
     0
 10
103.582
 20
39.5552
 30
0.0
 11
104.382
 21
39.5552
 31
0.0
  0
LINE
  8
0
 62
     0
 10
104.382
 20
39.5552
 30
0.0
 11
104.382
 21
42.6544
 31
0.0
  0
LINE
  8
0
 62
     0
 10
104.382
 20
42.6544
 30
0.0
 11
103.582
 21
42.6544
 31
0.0
  0
LINE
  8
0
 62
     0
 10
103.582
 20
42.6544
 30
0.0
 11
103.582
 21
43.6548
 31
0.0
  0
LINE
  8
0
 62
     0
 10
103.582
 20
43.6548
 30
0.0
 11
89.5823
 21
43.6548
 31
0.0
  0
LINE
  8
0
 62
     0
 10
108.632
 20
43.6548
 30
0.0
 11
108.632
 21
42.6544
 31
0.0
  0
LINE
  8
0
 62
     0
 10
108.632
 20
42.6544
 30
0.0
 11
107.831
 21
42.6544
 31
0.0
  0
LINE
  8
0
 62
     0
 10
107.831
 20
42.6544
 30
0.0
 11
107.831
 21
39.5552
 31
0.0
  0
LINE
  8
0
 62
     0
 10
107.831
 20
39.5552
 30
0.0
 11
108.632
 21
39.5552
 31
0.0
  0
LINE
  8
0
 62
     0
 10
108.632
 20
39.5552
 30
0.0
 11
108.632
 21
33.755
 31
0.0
  0
LINE
  8
0
 62
     0
 10
108.632
 20
33.755
 30
0.0
 11
107.831
 21
33.755
 31
0.0
  0
LINE
  8
0
 62
     0
 10
107.831
 20
33.755
 30
0.0
 11
107.831
 21
30.6544
 31
0.0
  0
LINE
  8
0
 62
     0
 10
107.831
 20
30.6544
 30
0.0
 11
108.632
 21
30.6544
 31
0.0
  0
LINE
  8
0
 62
     0
 10
108.632
 20
30.6544
 30
0.0
 11
108.632
 21
29.6554
 31
0.0
  0
LINE
  8
0
 62
     0
 10
108.632
 20
29.6554
 30
0.0
 11
122.632
 21
29.6554
 31
0.0
  0
LINE
  8
0
 62
     0
 10
122.632
 20
29.6554
 30
0.0
 11
122.632
 21
30.6544
 31
0.0
  0
LINE
  8
0
 62
     0
 10
122.632
 20
30.6544
 30
0.0
 11
123.431
 21
30.6544
 31
0.0
  0
LINE
  8
0
 62
     0
 10
123.431
 20
30.6544
 30
0.0
 11
123.431
 21
33.755
 31
0.0
  0
LINE
  8
0
 62
     0
 10
123.431
 20
33.755
 30
0.0
 11
122.632
 21
33.755
 31
0.0
  0
LINE
  8
0
 62
     0
 10
122.632
 20
33.755
 30
0.0
 11
122.632
 21
39.5552
 31
0.0
  0
LINE
  8
0
 62
     0
 10
122.632
 20
39.5552
 30
0.0
 11
123.431
 21
39.5552
 31
0.0
  0
LINE
  8
0
 62
     0
 10
123.431
 20
39.5552
 30
0.0
 11
123.431
 21
42.6544
 31
0.0
  0
LINE
  8
0
 62
     0
 10
123.431
 20
42.6544
 30
0.0
 11
122.632
 21
42.6544
 31
0.0
  0
LINE
  8
0
 62
     0
 10
122.632
 20
42.6544
 30
0.0
 11
122.632
 21
43.6548
 31
0.0
  0
LINE
  8
0
 62
     0
 10
122.632
 20
43.6548
 30
0.0
 11
108.632
 21
43.6548
 31
0.0
  0
LINE
  8
0
 62
     0
 10
127.682
 20
43.6548
 30
0.0
 11
127.682
 21
42.6544
 31
0.0
  0
LINE
  8
0
 62
     0
 10
127.682
 20
42.6544
 30
0.0
 11
126.881
 21
42.6544
 31
0.0
  0
LINE
  8
0
 62
     0
 10
126.881
 20
42.6544
 30
0.0
 11
126.881
 21
39.5552
 31
0.0
  0
LINE
  8
0
 62
     0
 10
126.881
 20
39.5552
 30
0.0
 11
127.682
 21
39.5552
 31
0.0
  0
LINE
  8
0
 62
     0
 10
127.682
 20
39.5552
 30
0.0
 11
127.682
 21
33.755
 31
0.0
  0
LINE
  8
0
 62
     0
 10
127.682
 20
33.755
 30
0.0
 11
126.881
 21
33.755
 31
0.0
  0
LINE
  8
0
 62
     0
 10
126.881
 20
33.755
 30
0.0
 11
126.881
 21
30.6544
 31
0.0
  0
LINE
  8
0
 62
     0
 10
126.881
 20
30.6544
 30
0.0
 11
127.682
 21
30.6544
 31
0.0
  0
LINE
  8
0
 62
     0
 10
127.682
 20
30.6544
 30
0.0
 11
127.682
 21
29.6554
 31
0.0
  0
LINE
  8
0
 62
     0
 10
127.682
 20
29.6554
 30
0.0
 11
141.682
 21
29.6554
 31
0.0
  0
LINE
  8
0
 62
     0
 10
141.682
 20
29.6554
 30
0.0
 11
141.682
 21
30.6544
 31
0.0
  0
LINE
  8
0
 62
     0
 10
141.682
 20
30.6544
 30
0.0
 11
142.482
 21
30.6544
 31
0.0
  0
LINE
  8
0
 62
     0
 10
142.482
 20
30.6544
 30
0.0
 11
142.482
 21
33.755
 31
0.0
  0
LINE
  8
0
 62
     0
 10
142.482
 20
33.755
 30
0.0
 11
141.682
 21
33.755
 31
0.0
  0
LINE
  8
0
 62
     0
 10
141.682
 20
33.755
 30
0.0
 11
141.682
 21
39.5552
 31
0.0
  0
LINE
  8
0
 62
     0
 10
141.682
 20
39.5552
 30
0.0
 11
142.482
 21
39.5552
 31
0.0
  0
LINE
  8
0
 62
     0
 10
142.482
 20
39.5552
 30
0.0
 11
142.482
 21
42.6544
 31
0.0
  0
LINE
  8
0
 62
     0
 10
142.482
 20
42.6544
 30
0.0
 11
141.682
 21
42.6544
 31
0.0
  0
LINE
  8
0
 62
     0
 10
141.682
 20
42.6544
 30
0.0
 11
141.682
 21
43.6548
 31
0.0
  0
LINE
  8
0
 62
     0
 10
141.682
 20
43.6548
 30
0.0
 11
127.682
 21
43.6548
 31
0.0
  0
LINE
  8
0
 62
     0
 10
146.732
 20
43.6548
 30
0.0
 11
146.732
 21
42.6544
 31
0.0
  0
LINE
  8
0
 62
     0
 10
146.732
 20
42.6544
 30
0.0
 11
145.931
 21
42.6544
 31
0.0
  0
LINE
  8
0
 62
     0
 10
145.931
 20
42.6544
 30
0.0
 11
145.931
 21
39.5552
 31
0.0
  0
LINE
  8
0
 62
     0
 10
145.931
 20
39.5552
 30
0.0
 11
146.732
 21
39.5552
 31
0.0
  0
LINE
  8
0
 62
     0
 10
146.732
 20
39.5552
 30
0.0
 11
146.732
 21
33.755
 31
0.0
  0
LINE
  8
0
 62
     0
 10
146.732
 20
33.755
 30
0.0
 11
145.931
 21
33.755
 31
0.0
  0
LINE
  8
0
 62
     0
 10
145.931
 20
33.755
 30
0.0
 11
145.931
 21
30.6544
 31
0.0
  0
LINE
  8
0
 62
     0
 10
145.931
 20
30.6544
 30
0.0
 11
146.732
 21
30.6544
 31
0.0
  0
LINE
  8
0
 62
     0
 10
146.732
 20
30.6544
 30
0.0
 11
146.732
 21
29.6554
 31
0.0
  0
LINE
  8
0
 62
     0
 10
146.732
 20
29.6554
 30
0.0
 11
160.732
 21
29.6554
 31
0.0
  0
LINE
  8
0
 62
     0
 10
160.732
 20
29.6554
 30
0.0
 11
160.732
 21
30.6544
 31
0.0
  0
LINE
  8
0
 62
     0
 10
160.732
 20
30.6544
 30
0.0
 11
161.532
 21
30.6544
 31
0.0
  0
LINE
  8
0
 62
     0
 10
161.532
 20
30.6544
 30
0.0
 11
161.532
 21
33.755
 31
0.0
  0
LINE
  8
0
 62
     0
 10
161.532
 20
33.755
 30
0.0
 11
160.732
 21
33.755
 31
0.0
  0
LINE
  8
0
 62
     0
 10
160.732
 20
33.755
 30
0.0
 11
160.732
 21
39.5552
 31
0.0
  0
LINE
  8
0
 62
     0
 10
160.732
 20
39.5552
 30
0.0
 11
161.532
 21
39.5552
 31
0.0
  0
LINE
  8
0
 62
     0
 10
161.532
 20
39.5552
 30
0.0
 11
161.532
 21
42.6544
 31
0.0
  0
LINE
  8
0
 62
     0
 10
161.532
 20
42.6544
 30
0.0
 11
160.732
 21
42.6544
 31
0.0
  0
LINE
  8
0
 62
     0
 10
160.732
 20
42.6544
 30
0.0
 11
160.732
 21
43.6548
 31
0.0
  0
LINE
  8
0
 62
     0
 10
160.732
 20
43.6548
 30
0.0
 11
146.732
 21
43.6548
 31
0.0
  0
LINE
  8
0
 62
     0
 10
165.782
 20
43.6548
 30
0.0
 11
165.782
 21
42.6544
 31
0.0
  0
LINE
  8
0
 62
     0
 10
165.782
 20
42.6544
 30
0.0
 11
164.981
 21
42.6544
 31
0.0
  0
LINE
  8
0
 62
     0
 10
164.981
 20
42.6544
 30
0.0
 11
164.981
 21
39.5552
 31
0.0
  0
LINE
  8
0
 62
     0
 10
164.981
 20
39.5552
 30
0.0
 11
165.782
 21
39.5552
 31
0.0
  0
LINE
  8
0
 62
     0
 10
165.782
 20
39.5552
 30
0.0
 11
165.782
 21
33.755
 31
0.0
  0
LINE
  8
0
 62
     0
 10
165.782
 20
33.755
 30
0.0
 11
164.981
 21
33.755
 31
0.0
  0
LINE
  8
0
 62
     0
 10
164.981
 20
33.755
 30
0.0
 11
164.981
 21
30.6544
 31
0.0
  0
LINE
  8
0
 62
     0
 10
164.981
 20
30.6544
 30
0.0
 11
165.782
 21
30.6544
 31
0.0
  0
LINE
  8
0
 62
     0
 10
165.782
 20
30.6544
 30
0.0
 11
165.782
 21
29.6554
 31
0.0
  0
LINE
  8
0
 62
     0
 10
165.782
 20
29.6554
 30
0.0
 11
179.782
 21
29.6554
 31
0.0
  0
LINE
  8
0
 62
     0
 10
179.782
 20
29.6554
 30
0.0
 11
179.782
 21
30.6544
 31
0.0
  0
LINE
  8
0
 62
     0
 10
179.782
 20
30.6544
 30
0.0
 11
180.582
 21
30.6544
 31
0.0
  0
LINE
  8
0
 62
     0
 10
180.582
 20
30.6544
 30
0.0
 11
180.582
 21
33.755
 31
0.0
  0
LINE
  8
0
 62
     0
 10
180.582
 20
33.755
 30
0.0
 11
179.782
 21
33.755
 31
0.0
  0
LINE
  8
0
 62
     0
 10
179.782
 20
33.755
 30
0.0
 11
179.782
 21
39.5552
 31
0.0
  0
LINE
  8
0
 62
     0
 10
179.782
 20
39.5552
 30
0.0
 11
180.582
 21
39.5552
 31
0.0
  0
LINE
  8
0
 62
     0
 10
180.582
 20
39.5552
 30
0.0
 11
180.582
 21
42.6544
 31
0.0
  0
LINE
  8
0
 62
     0
 10
180.582
 20
42.6544
 30
0.0
 11
179.782
 21
42.6544
 31
0.0
  0
LINE
  8
0
 62
     0
 10
179.782
 20
42.6544
 30
0.0
 11
179.782
 21
43.6548
 31
0.0
  0
LINE
  8
0
 62
     0
 10
179.782
 20
43.6548
 30
0.0
 11
165.782
 21
43.6548
 31
0.0
  0
LINE
  8
0
 62
     0
 10
184.832
 20
43.6548
 30
0.0
 11
184.832
 21
42.6544
 31
0.0
  0
LINE
  8
0
 62
     0
 10
184.832
 20
42.6544
 30
0.0
 11
184.031
 21
42.6544
 31
0.0
  0
LINE
  8
0
 62
     0
 10
184.031
 20
42.6544
 30
0.0
 11
184.031
 21
39.5552
 31
0.0
  0
LINE
  8
0
 62
     0
 10
184.031
 20
39.5552
 30
0.0
 11
184.832
 21
39.5552
 31
0.0
  0
LINE
  8
0
 62
     0
 10
184.832
 20
39.5552
 30
0.0
 11
184.832
 21
33.755
 31
0.0
  0
LINE
  8
0
 62
     0
 10
184.832
 20
33.755
 30
0.0
 11
184.031
 21
33.755
 31
0.0
  0
LINE
  8
0
 62
     0
 10
184.031
 20
33.755
 30
0.0
 11
184.031
 21
30.6544
 31
0.0
  0
LINE
  8
0
 62
     0
 10
184.031
 20
30.6544
 30
0.0
 11
184.832
 21
30.6544
 31
0.0
  0
LINE
  8
0
 62
     0
 10
184.832
 20
30.6544
 30
0.0
 11
184.832
 21
29.6554
 31
0.0
  0
LINE
  8
0
 62
     0
 10
184.832
 20
29.6554
 30
0.0
 11
198.832
 21
29.6554
 31
0.0
  0
LINE
  8
0
 62
     0
 10
198.832
 20
29.6554
 30
0.0
 11
198.832
 21
30.6544
 31
0.0
  0
LINE
  8
0
 62
     0
 10
198.832
 20
30.6544
 30
0.0
 11
199.632
 21
30.6544
 31
0.0
  0
LINE
  8
0
 62
     0
 10
199.632
 20
30.6544
 30
0.0
 11
199.632
 21
33.755
 31
0.0
  0
LINE
  8
0
 62
     0
 10
199.632
 20
33.755
 30
0.0
 11
198.832
 21
33.755
 31
0.0
  0
LINE
  8
0
 62
     0
 10
198.832
 20
33.755
 30
0.0
 11
198.832
 21
39.5552
 31
0.0
  0
LINE
  8
0
 62
     0
 10
198.832
 20
39.5552
 30
0.0
 11
199.632
 21
39.5552
 31
0.0
  0
LINE
  8
0
 62
     0
 10
199.632
 20
39.5552
 30
0.0
 11
199.632
 21
42.6544
 31
0.0
  0
LINE
  8
0
 62
     0
 10
199.632
 20
42.6544
 30
0.0
 11
198.832
 21
42.6544
 31
0.0
  0
LINE
  8
0
 62
     0
 10
198.832
 20
42.6544
 30
0.0
 11
198.832
 21
43.6548
 31
0.0
  0
LINE
  8
0
 62
     0
 10
198.832
 20
43.6548
 30
0.0
 11
184.832
 21
43.6548
 31
0.0
  0
LINE
  8
0
 62
     0
 10
203.882
 20
43.6548
 30
0.0
 11
203.882
 21
42.6544
 31
0.0
  0
LINE
  8
0
 62
     0
 10
203.882
 20
42.6544
 30
0.0
 11
203.081
 21
42.6544
 31
0.0
  0
LINE
  8
0
 62
     0
 10
203.081
 20
42.6544
 30
0.0
 11
203.081
 21
39.5552
 31
0.0
  0
LINE
  8
0
 62
     0
 10
203.081
 20
39.5552
 30
0.0
 11
203.882
 21
39.5552
 31
0.0
  0
LINE
  8
0
 62
     0
 10
203.882
 20
39.5552
 30
0.0
 11
203.882
 21
33.755
 31
0.0
  0
LINE
  8
0
 62
     0
 10
203.882
 20
33.755
 30
0.0
 11
203.081
 21
33.755
 31
0.0
  0
LINE
  8
0
 62
     0
 10
203.081
 20
33.755
 30
0.0
 11
203.081
 21
30.6544
 31
0.0
  0
LINE
  8
0
 62
     0
 10
203.081
 20
30.6544
 30
0.0
 11
203.882
 21
30.6544
 31
0.0
  0
LINE
  8
0
 62
     0
 10
203.882
 20
30.6544
 30
0.0
 11
203.882
 21
29.6554
 31
0.0
  0
LINE
  8
0
 62
     0
 10
203.882
 20
29.6554
 30
0.0
 11
217.882
 21
29.6554
 31
0.0
  0
LINE
  8
0
 62
     0
 10
217.882
 20
29.6554
 30
0.0
 11
217.882
 21
30.6544
 31
0.0
  0
LINE
  8
0
 62
     0
 10
217.882
 20
30.6544
 30
0.0
 11
218.682
 21
30.6544
 31
0.0
  0
LINE
  8
0
 62
     0
 10
218.682
 20
30.6544
 30
0.0
 11
218.682
 21
33.755
 31
0.0
  0
LINE
  8
0
 62
     0
 10
218.682
 20
33.755
 30
0.0
 11
217.882
 21
33.755
 31
0.0
  0
LINE
  8
0
 62
     0
 10
217.882
 20
33.755
 30
0.0
 11
217.882
 21
39.5552
 31
0.0
  0
LINE
  8
0
 62
     0
 10
217.882
 20
39.5552
 30
0.0
 11
218.682
 21
39.5552
 31
0.0
  0
LINE
  8
0
 62
     0
 10
218.682
 20
39.5552
 30
0.0
 11
218.682
 21
42.6544
 31
0.0
  0
LINE
  8
0
 62
     0
 10
218.682
 20
42.6544
 30
0.0
 11
217.882
 21
42.6544
 31
0.0
  0
LINE
  8
0
 62
     0
 10
217.882
 20
42.6544
 30
0.0
 11
217.882
 21
43.6548
 31
0.0
  0
LINE
  8
0
 62
     0
 10
217.882
 20
43.6548
 30
0.0
 11
203.882
 21
43.6548
 31
0.0
  0
LINE
  8
0
 62
     0
 10
222.932
 20
43.6548
 30
0.0
 11
222.932
 21
42.6544
 31
0.0
  0
LINE
  8
0
 62
     0
 10
222.932
 20
42.6544
 30
0.0
 11
222.131
 21
42.6544
 31
0.0
  0
LINE
  8
0
 62
     0
 10
222.131
 20
42.6544
 30
0.0
 11
222.131
 21
39.5552
 31
0.0
  0
LINE
  8
0
 62
     0
 10
222.131
 20
39.5552
 30
0.0
 11
222.932
 21
39.5552
 31
0.0
  0
LINE
  8
0
 62
     0
 10
222.932
 20
39.5552
 30
0.0
 11
222.932
 21
33.755
 31
0.0
  0
LINE
  8
0
 62
     0
 10
222.932
 20
33.755
 30
0.0
 11
222.131
 21
33.755
 31
0.0
  0
LINE
  8
0
 62
     0
 10
222.131
 20
33.755
 30
0.0
 11
222.131
 21
30.6544
 31
0.0
  0
LINE
  8
0
 62
     0
 10
222.131
 20
30.6544
 30
0.0
 11
222.932
 21
30.6544
 31
0.0
  0
LINE
  8
0
 62
     0
 10
222.932
 20
30.6544
 30
0.0
 11
222.932
 21
29.6554
 31
0.0
  0
LINE
  8
0
 62
     0
 10
222.932
 20
29.6554
 30
0.0
 11
236.932
 21
29.6554
 31
0.0
  0
LINE
  8
0
 62
     0
 10
236.932
 20
29.6554
 30
0.0
 11
236.932
 21
30.6544
 31
0.0
  0
LINE
  8
0
 62
     0
 10
236.932
 20
30.6544
 30
0.0
 11
237.732
 21
30.6544
 31
0.0
  0
LINE
  8
0
 62
     0
 10
237.732
 20
30.6544
 30
0.0
 11
237.732
 21
33.755
 31
0.0
  0
LINE
  8
0
 62
     0
 10
237.732
 20
33.755
 30
0.0
 11
236.932
 21
33.755
 31
0.0
  0
LINE
  8
0
 62
     0
 10
236.932
 20
33.755
 30
0.0
 11
236.932
 21
39.5552
 31
0.0
  0
LINE
  8
0
 62
     0
 10
236.932
 20
39.5552
 30
0.0
 11
237.732
 21
39.5552
 31
0.0
  0
LINE
  8
0
 62
     0
 10
237.732
 20
39.5552
 30
0.0
 11
237.732
 21
42.6544
 31
0.0
  0
LINE
  8
0
 62
     0
 10
237.732
 20
42.6544
 30
0.0
 11
236.932
 21
42.6544
 31
0.0
  0
LINE
  8
0
 62
     0
 10
236.932
 20
42.6544
 30
0.0
 11
236.932
 21
43.6548
 31
0.0
  0
LINE
  8
0
 62
     0
 10
236.932
 20
43.6548
 30
0.0
 11
222.932
 21
43.6548
 31
0.0
  0
LINE
  8
0
 62
     0
 10
263.414
 20
62.7048
 30
0.0
 11
263.414
 21
61.7044
 31
0.0
  0
LINE
  8
0
 62
     0
 10
263.414
 20
61.7044
 30
0.0
 11
262.613
 21
61.7044
 31
0.0
  0
LINE
  8
0
 62
     0
 10
262.613
 20
61.7044
 30
0.0
 11
262.613
 21
58.6052
 31
0.0
  0
LINE
  8
0
 62
     0
 10
262.613
 20
58.6052
 30
0.0
 11
263.414
 21
58.6052
 31
0.0
  0
LINE
  8
0
 62
     0
 10
263.414
 20
58.6052
 30
0.0
 11
263.414
 21
58.0044
 31
0.0
  0
LINE
  8
0
 62
     0
 10
263.414
 20
58.0044
 30
0.0
 11
261.888
 21
58.0044
 31
0.0
  0
LINE
  8
0
 62
     0
 10
261.888
 20
58.0044
 30
0.0
 11
261.888
 21
61.2345
 31
0.0
  0
LINE
  8
0
 62
     0
 10
261.888
 20
61.2345
 30
0.0
 11
260.163
 21
61.2345
 31
0.0
  0
LINE
  8
0
 62
     0
 10
260.163
 20
61.2345
 30
0.0
 11
260.163
 21
62.1552
 31
0.0
  0
LINE
  8
0
 62
     0
 10
260.163
 20
62.1552
 30
0.0
 11
256.862
 21
62.1552
 31
0.0
  0
LINE
  8
0
 62
     0
 10
256.862
 20
62.1552
 30
0.0
 11
256.862
 21
61.2345
 31
0.0
  0
LINE
  8
0
 62
     0
 10
256.862
 20
61.2345
 30
0.0
 11
255.138
 21
61.2345
 31
0.0
  0
LINE
  8
0
 62
     0
 10
255.138
 20
61.2345
 30
0.0
 11
255.138
 21
58.0044
 31
0.0
  0
LINE
  8
0
 62
     0
 10
255.138
 20
58.0044
 30
0.0
 11
254.313
 21
58.0044
 31
0.0
  0
LINE
  8
0
 62
     0
 10
254.313
 20
58.0044
 30
0.0
 11
254.313
 21
55.2041
 31
0.0
  0
LINE
  8
0
 62
     0
 10
254.313
 20
55.2041
 30
0.0
 11
255.138
 21
55.2041
 31
0.0
  0
LINE
  8
0
 62
     0
 10
255.138
 20
55.2041
 30
0.0
 11
255.138
 21
48.9342
 31
0.0
  0
LINE
  8
0
 62
     0
 10
255.138
 20
48.9342
 30
0.0
 11
256.862
 21
48.9342
 31
0.0
  0
LINE
  8
0
 62
     0
 10
256.862
 20
48.9342
 30
0.0
 11
256.862
 21
47.9545
 31
0.0
  0
LINE
  8
0
 62
     0
 10
256.862
 20
47.9545
 30
0.0
 11
260.163
 21
47.9545
 31
0.0
  0
LINE
  8
0
 62
     0
 10
260.163
 20
47.9545
 30
0.0
 11
260.163
 21
48.9342
 31
0.0
  0
LINE
  8
0
 62
     0
 10
260.163
 20
48.9342
 30
0.0
 11
261.888
 21
48.9342
 31
0.0
  0
LINE
  8
0
 62
     0
 10
261.888
 20
48.9342
 30
0.0
 11
261.888
 21
53.4046
 31
0.0
  0
LINE
  8
0
 62
     0
 10
261.888
 20
53.4046
 30
0.0
 11
263.414
 21
53.4046
 31
0.0
  0
LINE
  8
0
 62
     0
 10
263.414
 20
53.4046
 30
0.0
 11
263.414
 21
52.8052
 31
0.0
  0
LINE
  8
0
 62
     0
 10
263.414
 20
52.8052
 30
0.0
 11
262.613
 21
52.8052
 31
0.0
  0
LINE
  8
0
 62
     0
 10
262.613
 20
52.8052
 30
0.0
 11
262.613
 21
49.7046
 31
0.0
  0
LINE
  8
0
 62
     0
 10
262.613
 20
49.7046
 30
0.0
 11
263.414
 21
49.7046
 31
0.0
  0
LINE
  8
0
 62
     0
 10
263.414
 20
49.7046
 30
0.0
 11
263.414
 21
48.7056
 31
0.0
  0
LINE
  8
0
 62
     0
 10
263.414
 20
48.7056
 30
0.0
 11
277.413
 21
48.7056
 31
0.0
  0
LINE
  8
0
 62
     0
 10
277.413
 20
48.7056
 30
0.0
 11
277.413
 21
49.7046
 31
0.0
  0
LINE
  8
0
 62
     0
 10
277.413
 20
49.7046
 30
0.0
 11
278.212
 21
49.7046
 31
0.0
  0
LINE
  8
0
 62
     0
 10
278.212
 20
49.7046
 30
0.0
 11
278.212
 21
52.8052
 31
0.0
  0
LINE
  8
0
 62
     0
 10
278.212
 20
52.8052
 30
0.0
 11
277.413
 21
52.8052
 31
0.0
  0
LINE
  8
0
 62
     0
 10
277.413
 20
52.8052
 30
0.0
 11
277.413
 21
53.4046
 31
0.0
  0
LINE
  8
0
 62
     0
 10
277.413
 20
53.4046
 30
0.0
 11
278.938
 21
53.4046
 31
0.0
  0
LINE
  8
0
 62
     0
 10
278.938
 20
53.4046
 30
0.0
 11
278.938
 21
48.9342
 31
0.0
  0
LINE
  8
0
 62
     0
 10
278.938
 20
48.9342
 30
0.0
 11
280.662
 21
48.9342
 31
0.0
  0
LINE
  8
0
 62
     0
 10
280.662
 20
48.9342
 30
0.0
 11
280.662
 21
47.9545
 31
0.0
  0
LINE
  8
0
 62
     0
 10
280.662
 20
47.9545
 30
0.0
 11
283.963
 21
47.9545
 31
0.0
  0
LINE
  8
0
 62
     0
 10
283.963
 20
47.9545
 30
0.0
 11
283.963
 21
48.9342
 31
0.0
  0
LINE
  8
0
 62
     0
 10
283.963
 20
48.9342
 30
0.0
 11
285.688
 21
48.9342
 31
0.0
  0
LINE
  8
0
 62
     0
 10
285.688
 20
48.9342
 30
0.0
 11
285.688
 21
55.2041
 31
0.0
  0
LINE
  8
0
 62
     0
 10
285.688
 20
55.2041
 30
0.0
 11
286.513
 21
55.2041
 31
0.0
  0
LINE
  8
0
 62
     0
 10
286.513
 20
55.2041
 30
0.0
 11
286.513
 21
58.0044
 31
0.0
  0
LINE
  8
0
 62
     0
 10
286.513
 20
58.0044
 30
0.0
 11
285.688
 21
58.0044
 31
0.0
  0
LINE
  8
0
 62
     0
 10
285.688
 20
58.0044
 30
0.0
 11
285.688
 21
61.2345
 31
0.0
  0
LINE
  8
0
 62
     0
 10
285.688
 20
61.2345
 30
0.0
 11
283.963
 21
61.2345
 31
0.0
  0
LINE
  8
0
 62
     0
 10
283.963
 20
61.2345
 30
0.0
 11
283.963
 21
62.1552
 31
0.0
  0
LINE
  8
0
 62
     0
 10
283.963
 20
62.1552
 30
0.0
 11
280.662
 21
62.1552
 31
0.0
  0
LINE
  8
0
 62
     0
 10
280.662
 20
62.1552
 30
0.0
 11
280.662
 21
61.2345
 31
0.0
  0
LINE
  8
0
 62
     0
 10
280.662
 20
61.2345
 30
0.0
 11
278.938
 21
61.2345
 31
0.0
  0
LINE
  8
0
 62
     0
 10
278.938
 20
61.2345
 30
0.0
 11
278.938
 21
58.0044
 31
0.0
  0
LINE
  8
0
 62
     0
 10
278.938
 20
58.0044
 30
0.0
 11
277.413
 21
58.0044
 31
0.0
  0
LINE
  8
0
 62
     0
 10
277.413
 20
58.0044
 30
0.0
 11
277.413
 21
58.6052
 31
0.0
  0
LINE
  8
0
 62
     0
 10
277.413
 20
58.6052
 30
0.0
 11
278.212
 21
58.6052
 31
0.0
  0
LINE
  8
0
 62
     0
 10
278.212
 20
58.6052
 30
0.0
 11
278.212
 21
61.7044
 31
0.0
  0
LINE
  8
0
 62
     0
 10
278.212
 20
61.7044
 30
0.0
 11
277.413
 21
61.7044
 31
0.0
  0
LINE
  8
0
 62
     0
 10
277.413
 20
61.7044
 30
0.0
 11
277.413
 21
62.7048
 31
0.0
  0
LINE
  8
0
 62
     0
 10
277.413
 20
62.7048
 30
0.0
 11
263.414
 21
62.7048
 31
0.0
  0
LINE
  8
0
 62
     0
 10
15.7634
 20
62.7048
 30
0.0
 11
15.7634
 21
61.7044
 31
0.0
  0
LINE
  8
0
 62
     0
 10
15.7634
 20
61.7044
 30
0.0
 11
14.9628
 21
61.7044
 31
0.0
  0
LINE
  8
0
 62
     0
 10
14.9628
 20
61.7044
 30
0.0
 11
14.9628
 21
58.6052
 31
0.0
  0
LINE
  8
0
 62
     0
 10
14.9628
 20
58.6052
 30
0.0
 11
15.7634
 21
58.6052
 31
0.0
  0
LINE
  8
0
 62
     0
 10
15.7634
 20
58.6052
 30
0.0
 11
15.7634
 21
52.8052
 31
0.0
  0
LINE
  8
0
 62
     0
 10
15.7634
 20
52.8052
 30
0.0
 11
14.9628
 21
52.8052
 31
0.0
  0
LINE
  8
0
 62
     0
 10
14.9628
 20
52.8052
 30
0.0
 11
14.9628
 21
49.7046
 31
0.0
  0
LINE
  8
0
 62
     0
 10
14.9628
 20
49.7046
 30
0.0
 11
15.7634
 21
49.7046
 31
0.0
  0
LINE
  8
0
 62
     0
 10
15.7634
 20
49.7046
 30
0.0
 11
15.7634
 21
48.7056
 31
0.0
  0
LINE
  8
0
 62
     0
 10
15.7634
 20
48.7056
 30
0.0
 11
29.7629
 21
48.7056
 31
0.0
  0
LINE
  8
0
 62
     0
 10
29.7629
 20
48.7056
 30
0.0
 11
29.7629
 21
49.7046
 31
0.0
  0
LINE
  8
0
 62
     0
 10
29.7629
 20
49.7046
 30
0.0
 11
30.5621
 21
49.7046
 31
0.0
  0
LINE
  8
0
 62
     0
 10
30.5621
 20
49.7046
 30
0.0
 11
30.5621
 21
52.8052
 31
0.0
  0
LINE
  8
0
 62
     0
 10
30.5621
 20
52.8052
 30
0.0
 11
29.7629
 21
52.8052
 31
0.0
  0
LINE
  8
0
 62
     0
 10
29.7629
 20
52.8052
 30
0.0
 11
29.7629
 21
58.6052
 31
0.0
  0
LINE
  8
0
 62
     0
 10
29.7629
 20
58.6052
 30
0.0
 11
30.5621
 21
58.6052
 31
0.0
  0
LINE
  8
0
 62
     0
 10
30.5621
 20
58.6052
 30
0.0
 11
30.5621
 21
61.7044
 31
0.0
  0
LINE
  8
0
 62
     0
 10
30.5621
 20
61.7044
 30
0.0
 11
29.7629
 21
61.7044
 31
0.0
  0
LINE
  8
0
 62
     0
 10
29.7629
 20
61.7044
 30
0.0
 11
29.7629
 21
62.7048
 31
0.0
  0
LINE
  8
0
 62
     0
 10
29.7629
 20
62.7048
 30
0.0
 11
15.7634
 21
62.7048
 31
0.0
  0
LINE
  8
0
 62
     0
 10
41.9573
 20
62.7048
 30
0.0
 11
41.9573
 21
61.7044
 31
0.0
  0
LINE
  8
0
 62
     0
 10
41.9573
 20
61.7044
 30
0.0
 11
41.1565
 21
61.7044
 31
0.0
  0
LINE
  8
0
 62
     0
 10
41.1565
 20
61.7044
 30
0.0
 11
41.1565
 21
58.6052
 31
0.0
  0
LINE
  8
0
 62
     0
 10
41.1565
 20
58.6052
 30
0.0
 11
41.9573
 21
58.6052
 31
0.0
  0
LINE
  8
0
 62
     0
 10
41.9573
 20
58.6052
 30
0.0
 11
41.9573
 21
52.8052
 31
0.0
  0
LINE
  8
0
 62
     0
 10
41.9573
 20
52.8052
 30
0.0
 11
41.1565
 21
52.8052
 31
0.0
  0
LINE
  8
0
 62
     0
 10
41.1565
 20
52.8052
 30
0.0
 11
41.1565
 21
49.7046
 31
0.0
  0
LINE
  8
0
 62
     0
 10
41.1565
 20
49.7046
 30
0.0
 11
41.9573
 21
49.7046
 31
0.0
  0
LINE
  8
0
 62
     0
 10
41.9573
 20
49.7046
 30
0.0
 11
41.9573
 21
48.7056
 31
0.0
  0
LINE
  8
0
 62
     0
 10
41.9573
 20
48.7056
 30
0.0
 11
55.9566
 21
48.7056
 31
0.0
  0
LINE
  8
0
 62
     0
 10
55.9566
 20
48.7056
 30
0.0
 11
55.9566
 21
49.7046
 31
0.0
  0
LINE
  8
0
 62
     0
 10
55.9566
 20
49.7046
 30
0.0
 11
56.7574
 21
49.7046
 31
0.0
  0
LINE
  8
0
 62
     0
 10
56.7574
 20
49.7046
 30
0.0
 11
56.7574
 21
52.8052
 31
0.0
  0
LINE
  8
0
 62
     0
 10
56.7574
 20
52.8052
 30
0.0
 11
55.9566
 21
52.8052
 31
0.0
  0
LINE
  8
0
 62
     0
 10
55.9566
 20
52.8052
 30
0.0
 11
55.9566
 21
58.6052
 31
0.0
  0
LINE
  8
0
 62
     0
 10
55.9566
 20
58.6052
 30
0.0
 11
56.7574
 21
58.6052
 31
0.0
  0
LINE
  8
0
 62
     0
 10
56.7574
 20
58.6052
 30
0.0
 11
56.7574
 21
61.7044
 31
0.0
  0
LINE
  8
0
 62
     0
 10
56.7574
 20
61.7044
 30
0.0
 11
55.9566
 21
61.7044
 31
0.0
  0
LINE
  8
0
 62
     0
 10
55.9566
 20
61.7044
 30
0.0
 11
55.9566
 21
62.7048
 31
0.0
  0
LINE
  8
0
 62
     0
 10
55.9566
 20
62.7048
 30
0.0
 11
41.9573
 21
62.7048
 31
0.0
  0
LINE
  8
0
 62
     0
 10
61.0073
 20
62.7048
 30
0.0
 11
61.0073
 21
61.7044
 31
0.0
  0
LINE
  8
0
 62
     0
 10
61.0073
 20
61.7044
 30
0.0
 11
60.2051
 21
61.7044
 31
0.0
  0
LINE
  8
0
 62
     0
 10
60.2051
 20
61.7044
 30
0.0
 11
60.2051
 21
58.6052
 31
0.0
  0
LINE
  8
0
 62
     0
 10
60.2051
 20
58.6052
 30
0.0
 11
61.0073
 21
58.6052
 31
0.0
  0
LINE
  8
0
 62
     0
 10
61.0073
 20
58.6052
 30
0.0
 11
61.0073
 21
52.8052
 31
0.0
  0
LINE
  8
0
 62
     0
 10
61.0073
 20
52.8052
 30
0.0
 11
60.2051
 21
52.8052
 31
0.0
  0
LINE
  8
0
 62
     0
 10
60.2051
 20
52.8052
 30
0.0
 11
60.2051
 21
49.7046
 31
0.0
  0
LINE
  8
0
 62
     0
 10
60.2051
 20
49.7046
 30
0.0
 11
61.0073
 21
49.7046
 31
0.0
  0
LINE
  8
0
 62
     0
 10
61.0073
 20
49.7046
 30
0.0
 11
61.0073
 21
48.7056
 31
0.0
  0
LINE
  8
0
 62
     0
 10
61.0073
 20
48.7056
 30
0.0
 11
75.0066
 21
48.7056
 31
0.0
  0
LINE
  8
0
 62
     0
 10
75.0066
 20
48.7056
 30
0.0
 11
75.0066
 21
49.7046
 31
0.0
  0
LINE
  8
0
 62
     0
 10
75.0066
 20
49.7046
 30
0.0
 11
75.8074
 21
49.7046
 31
0.0
  0
LINE
  8
0
 62
     0
 10
75.8074
 20
49.7046
 30
0.0
 11
75.8074
 21
52.8052
 31
0.0
  0
LINE
  8
0
 62
     0
 10
75.8074
 20
52.8052
 30
0.0
 11
75.0066
 21
52.8052
 31
0.0
  0
LINE
  8
0
 62
     0
 10
75.0066
 20
52.8052
 30
0.0
 11
75.0066
 21
58.6052
 31
0.0
  0
LINE
  8
0
 62
     0
 10
75.0066
 20
58.6052
 30
0.0
 11
75.8074
 21
58.6052
 31
0.0
  0
LINE
  8
0
 62
     0
 10
75.8074
 20
58.6052
 30
0.0
 11
75.8074
 21
61.7044
 31
0.0
  0
LINE
  8
0
 62
     0
 10
75.8074
 20
61.7044
 30
0.0
 11
75.0066
 21
61.7044
 31
0.0
  0
LINE
  8
0
 62
     0
 10
75.0066
 20
61.7044
 30
0.0
 11
75.0066
 21
62.7048
 31
0.0
  0
LINE
  8
0
 62
     0
 10
75.0066
 20
62.7048
 30
0.0
 11
61.0073
 21
62.7048
 31
0.0
  0
LINE
  8
0
 62
     0
 10
80.0573
 20
62.7048
 30
0.0
 11
80.0573
 21
61.7044
 31
0.0
  0
LINE
  8
0
 62
     0
 10
80.0573
 20
61.7044
 30
0.0
 11
79.2565
 21
61.7044
 31
0.0
  0
LINE
  8
0
 62
     0
 10
79.2565
 20
61.7044
 30
0.0
 11
79.2565
 21
58.6052
 31
0.0
  0
LINE
  8
0
 62
     0
 10
79.2565
 20
58.6052
 30
0.0
 11
80.0573
 21
58.6052
 31
0.0
  0
LINE
  8
0
 62
     0
 10
80.0573
 20
58.6052
 30
0.0
 11
80.0573
 21
52.8052
 31
0.0
  0
LINE
  8
0
 62
     0
 10
80.0573
 20
52.8052
 30
0.0
 11
79.2565
 21
52.8052
 31
0.0
  0
LINE
  8
0
 62
     0
 10
79.2565
 20
52.8052
 30
0.0
 11
79.2565
 21
49.7046
 31
0.0
  0
LINE
  8
0
 62
     0
 10
79.2565
 20
49.7046
 30
0.0
 11
80.0573
 21
49.7046
 31
0.0
  0
LINE
  8
0
 62
     0
 10
80.0573
 20
49.7046
 30
0.0
 11
80.0573
 21
48.7056
 31
0.0
  0
LINE
  8
0
 62
     0
 10
80.0573
 20
48.7056
 30
0.0
 11
94.0566
 21
48.7056
 31
0.0
  0
LINE
  8
0
 62
     0
 10
94.0566
 20
48.7056
 30
0.0
 11
94.0566
 21
49.7046
 31
0.0
  0
LINE
  8
0
 62
     0
 10
94.0566
 20
49.7046
 30
0.0
 11
94.8574
 21
49.7046
 31
0.0
  0
LINE
  8
0
 62
     0
 10
94.8574
 20
49.7046
 30
0.0
 11
94.8574
 21
52.8052
 31
0.0
  0
LINE
  8
0
 62
     0
 10
94.8574
 20
52.8052
 30
0.0
 11
94.0566
 21
52.8052
 31
0.0
  0
LINE
  8
0
 62
     0
 10
94.0566
 20
52.8052
 30
0.0
 11
94.0566
 21
58.6052
 31
0.0
  0
LINE
  8
0
 62
     0
 10
94.0566
 20
58.6052
 30
0.0
 11
94.8574
 21
58.6052
 31
0.0
  0
LINE
  8
0
 62
     0
 10
94.8574
 20
58.6052
 30
0.0
 11
94.8574
 21
61.7044
 31
0.0
  0
LINE
  8
0
 62
     0
 10
94.8574
 20
61.7044
 30
0.0
 11
94.0566
 21
61.7044
 31
0.0
  0
LINE
  8
0
 62
     0
 10
94.0566
 20
61.7044
 30
0.0
 11
94.0566
 21
62.7048
 31
0.0
  0
LINE
  8
0
 62
     0
 10
94.0566
 20
62.7048
 30
0.0
 11
80.0573
 21
62.7048
 31
0.0
  0
LINE
  8
0
 62
     0
 10
99.1073
 20
62.7048
 30
0.0
 11
99.1073
 21
61.7044
 31
0.0
  0
LINE
  8
0
 62
     0
 10
99.1073
 20
61.7044
 30
0.0
 11
98.3065
 21
61.7044
 31
0.0
  0
LINE
  8
0
 62
     0
 10
98.3065
 20
61.7044
 30
0.0
 11
98.3065
 21
58.6052
 31
0.0
  0
LINE
  8
0
 62
     0
 10
98.3065
 20
58.6052
 30
0.0
 11
99.1073
 21
58.6052
 31
0.0
  0
LINE
  8
0
 62
     0
 10
99.1073
 20
58.6052
 30
0.0
 11
99.1073
 21
52.8052
 31
0.0
  0
LINE
  8
0
 62
     0
 10
99.1073
 20
52.8052
 30
0.0
 11
98.3065
 21
52.8052
 31
0.0
  0
LINE
  8
0
 62
     0
 10
98.3065
 20
52.8052
 30
0.0
 11
98.3065
 21
49.7046
 31
0.0
  0
LINE
  8
0
 62
     0
 10
98.3065
 20
49.7046
 30
0.0
 11
99.1073
 21
49.7046
 31
0.0
  0
LINE
  8
0
 62
     0
 10
99.1073
 20
49.7046
 30
0.0
 11
99.1073
 21
48.7056
 31
0.0
  0
LINE
  8
0
 62
     0
 10
99.1073
 20
48.7056
 30
0.0
 11
113.107
 21
48.7056
 31
0.0
  0
LINE
  8
0
 62
     0
 10
113.107
 20
48.7056
 30
0.0
 11
113.107
 21
49.7046
 31
0.0
  0
LINE
  8
0
 62
     0
 10
113.107
 20
49.7046
 30
0.0
 11
113.907
 21
49.7046
 31
0.0
  0
LINE
  8
0
 62
     0
 10
113.907
 20
49.7046
 30
0.0
 11
113.907
 21
52.8052
 31
0.0
  0
LINE
  8
0
 62
     0
 10
113.907
 20
52.8052
 30
0.0
 11
113.107
 21
52.8052
 31
0.0
  0
LINE
  8
0
 62
     0
 10
113.107
 20
52.8052
 30
0.0
 11
113.107
 21
58.6052
 31
0.0
  0
LINE
  8
0
 62
     0
 10
113.107
 20
58.6052
 30
0.0
 11
113.907
 21
58.6052
 31
0.0
  0
LINE
  8
0
 62
     0
 10
113.907
 20
58.6052
 30
0.0
 11
113.907
 21
61.7044
 31
0.0
  0
LINE
  8
0
 62
     0
 10
113.907
 20
61.7044
 30
0.0
 11
113.107
 21
61.7044
 31
0.0
  0
LINE
  8
0
 62
     0
 10
113.107
 20
61.7044
 30
0.0
 11
113.107
 21
62.7048
 31
0.0
  0
LINE
  8
0
 62
     0
 10
113.107
 20
62.7048
 30
0.0
 11
99.1073
 21
62.7048
 31
0.0
  0
LINE
  8
0
 62
     0
 10
118.157
 20
62.7048
 30
0.0
 11
118.157
 21
61.7044
 31
0.0
  0
LINE
  8
0
 62
     0
 10
118.157
 20
61.7044
 30
0.0
 11
117.356
 21
61.7044
 31
0.0
  0
LINE
  8
0
 62
     0
 10
117.356
 20
61.7044
 30
0.0
 11
117.356
 21
58.6052
 31
0.0
  0
LINE
  8
0
 62
     0
 10
117.356
 20
58.6052
 30
0.0
 11
118.157
 21
58.6052
 31
0.0
  0
LINE
  8
0
 62
     0
 10
118.157
 20
58.6052
 30
0.0
 11
118.157
 21
52.8052
 31
0.0
  0
LINE
  8
0
 62
     0
 10
118.157
 20
52.8052
 30
0.0
 11
117.356
 21
52.8052
 31
0.0
  0
LINE
  8
0
 62
     0
 10
117.356
 20
52.8052
 30
0.0
 11
117.356
 21
49.7046
 31
0.0
  0
LINE
  8
0
 62
     0
 10
117.356
 20
49.7046
 30
0.0
 11
118.157
 21
49.7046
 31
0.0
  0
LINE
  8
0
 62
     0
 10
118.157
 20
49.7046
 30
0.0
 11
118.157
 21
48.7056
 31
0.0
  0
LINE
  8
0
 62
     0
 10
118.157
 20
48.7056
 30
0.0
 11
132.157
 21
48.7056
 31
0.0
  0
LINE
  8
0
 62
     0
 10
132.157
 20
48.7056
 30
0.0
 11
132.157
 21
49.7046
 31
0.0
  0
LINE
  8
0
 62
     0
 10
132.157
 20
49.7046
 30
0.0
 11
132.957
 21
49.7046
 31
0.0
  0
LINE
  8
0
 62
     0
 10
132.957
 20
49.7046
 30
0.0
 11
132.957
 21
52.8052
 31
0.0
  0
LINE
  8
0
 62
     0
 10
132.957
 20
52.8052
 30
0.0
 11
132.157
 21
52.8052
 31
0.0
  0
LINE
  8
0
 62
     0
 10
132.157
 20
52.8052
 30
0.0
 11
132.157
 21
58.6052
 31
0.0
  0
LINE
  8
0
 62
     0
 10
132.157
 20
58.6052
 30
0.0
 11
132.957
 21
58.6052
 31
0.0
  0
LINE
  8
0
 62
     0
 10
132.957
 20
58.6052
 30
0.0
 11
132.957
 21
61.7044
 31
0.0
  0
LINE
  8
0
 62
     0
 10
132.957
 20
61.7044
 30
0.0
 11
132.157
 21
61.7044
 31
0.0
  0
LINE
  8
0
 62
     0
 10
132.157
 20
61.7044
 30
0.0
 11
132.157
 21
62.7048
 31
0.0
  0
LINE
  8
0
 62
     0
 10
132.157
 20
62.7048
 30
0.0
 11
118.157
 21
62.7048
 31
0.0
  0
LINE
  8
0
 62
     0
 10
137.207
 20
62.7048
 30
0.0
 11
137.207
 21
61.7044
 31
0.0
  0
LINE
  8
0
 62
     0
 10
137.207
 20
61.7044
 30
0.0
 11
136.406
 21
61.7044
 31
0.0
  0
LINE
  8
0
 62
     0
 10
136.406
 20
61.7044
 30
0.0
 11
136.406
 21
58.6052
 31
0.0
  0
LINE
  8
0
 62
     0
 10
136.406
 20
58.6052
 30
0.0
 11
137.207
 21
58.6052
 31
0.0
  0
LINE
  8
0
 62
     0
 10
137.207
 20
58.6052
 30
0.0
 11
137.207
 21
52.8052
 31
0.0
  0
LINE
  8
0
 62
     0
 10
137.207
 20
52.8052
 30
0.0
 11
136.406
 21
52.8052
 31
0.0
  0
LINE
  8
0
 62
     0
 10
136.406
 20
52.8052
 30
0.0
 11
136.406
 21
49.7046
 31
0.0
  0
LINE
  8
0
 62
     0
 10
136.406
 20
49.7046
 30
0.0
 11
137.207
 21
49.7046
 31
0.0
  0
LINE
  8
0
 62
     0
 10
137.207
 20
49.7046
 30
0.0
 11
137.207
 21
48.7056
 31
0.0
  0
LINE
  8
0
 62
     0
 10
137.207
 20
48.7056
 30
0.0
 11
151.207
 21
48.7056
 31
0.0
  0
LINE
  8
0
 62
     0
 10
151.207
 20
48.7056
 30
0.0
 11
151.207
 21
49.7046
 31
0.0
  0
LINE
  8
0
 62
     0
 10
151.207
 20
49.7046
 30
0.0
 11
152.007
 21
49.7046
 31
0.0
  0
LINE
  8
0
 62
     0
 10
152.007
 20
49.7046
 30
0.0
 11
152.007
 21
52.8052
 31
0.0
  0
LINE
  8
0
 62
     0
 10
152.007
 20
52.8052
 30
0.0
 11
151.207
 21
52.8052
 31
0.0
  0
LINE
  8
0
 62
     0
 10
151.207
 20
52.8052
 30
0.0
 11
151.207
 21
58.6052
 31
0.0
  0
LINE
  8
0
 62
     0
 10
151.207
 20
58.6052
 30
0.0
 11
152.007
 21
58.6052
 31
0.0
  0
LINE
  8
0
 62
     0
 10
152.007
 20
58.6052
 30
0.0
 11
152.007
 21
61.7044
 31
0.0
  0
LINE
  8
0
 62
     0
 10
152.007
 20
61.7044
 30
0.0
 11
151.207
 21
61.7044
 31
0.0
  0
LINE
  8
0
 62
     0
 10
151.207
 20
61.7044
 30
0.0
 11
151.207
 21
62.7048
 31
0.0
  0
LINE
  8
0
 62
     0
 10
151.207
 20
62.7048
 30
0.0
 11
137.207
 21
62.7048
 31
0.0
  0
LINE
  8
0
 62
     0
 10
156.257
 20
62.7048
 30
0.0
 11
156.257
 21
61.7044
 31
0.0
  0
LINE
  8
0
 62
     0
 10
156.257
 20
61.7044
 30
0.0
 11
155.456
 21
61.7044
 31
0.0
  0
LINE
  8
0
 62
     0
 10
155.456
 20
61.7044
 30
0.0
 11
155.456
 21
58.6052
 31
0.0
  0
LINE
  8
0
 62
     0
 10
155.456
 20
58.6052
 30
0.0
 11
156.257
 21
58.6052
 31
0.0
  0
LINE
  8
0
 62
     0
 10
156.257
 20
58.6052
 30
0.0
 11
156.257
 21
52.8052
 31
0.0
  0
LINE
  8
0
 62
     0
 10
156.257
 20
52.8052
 30
0.0
 11
155.456
 21
52.8052
 31
0.0
  0
LINE
  8
0
 62
     0
 10
155.456
 20
52.8052
 30
0.0
 11
155.456
 21
49.7046
 31
0.0
  0
LINE
  8
0
 62
     0
 10
155.456
 20
49.7046
 30
0.0
 11
156.257
 21
49.7046
 31
0.0
  0
LINE
  8
0
 62
     0
 10
156.257
 20
49.7046
 30
0.0
 11
156.257
 21
48.7056
 31
0.0
  0
LINE
  8
0
 62
     0
 10
156.257
 20
48.7056
 30
0.0
 11
170.257
 21
48.7056
 31
0.0
  0
LINE
  8
0
 62
     0
 10
170.257
 20
48.7056
 30
0.0
 11
170.257
 21
49.7046
 31
0.0
  0
LINE
  8
0
 62
     0
 10
170.257
 20
49.7046
 30
0.0
 11
171.057
 21
49.7046
 31
0.0
  0
LINE
  8
0
 62
     0
 10
171.057
 20
49.7046
 30
0.0
 11
171.057
 21
52.8052
 31
0.0
  0
LINE
  8
0
 62
     0
 10
171.057
 20
52.8052
 30
0.0
 11
170.257
 21
52.8052
 31
0.0
  0
LINE
  8
0
 62
     0
 10
170.257
 20
52.8052
 30
0.0
 11
170.257
 21
58.6052
 31
0.0
  0
LINE
  8
0
 62
     0
 10
170.257
 20
58.6052
 30
0.0
 11
171.057
 21
58.6052
 31
0.0
  0
LINE
  8
0
 62
     0
 10
171.057
 20
58.6052
 30
0.0
 11
171.057
 21
61.7044
 31
0.0
  0
LINE
  8
0
 62
     0
 10
171.057
 20
61.7044
 30
0.0
 11
170.257
 21
61.7044
 31
0.0
  0
LINE
  8
0
 62
     0
 10
170.257
 20
61.7044
 30
0.0
 11
170.257
 21
62.7048
 31
0.0
  0
LINE
  8
0
 62
     0
 10
170.257
 20
62.7048
 30
0.0
 11
156.257
 21
62.7048
 31
0.0
  0
LINE
  8
0
 62
     0
 10
175.307
 20
62.7048
 30
0.0
 11
175.307
 21
61.7044
 31
0.0
  0
LINE
  8
0
 62
     0
 10
175.307
 20
61.7044
 30
0.0
 11
174.506
 21
61.7044
 31
0.0
  0
LINE
  8
0
 62
     0
 10
174.506
 20
61.7044
 30
0.0
 11
174.506
 21
58.6052
 31
0.0
  0
LINE
  8
0
 62
     0
 10
174.506
 20
58.6052
 30
0.0
 11
175.307
 21
58.6052
 31
0.0
  0
LINE
  8
0
 62
     0
 10
175.307
 20
58.6052
 30
0.0
 11
175.307
 21
52.8052
 31
0.0
  0
LINE
  8
0
 62
     0
 10
175.307
 20
52.8052
 30
0.0
 11
174.506
 21
52.8052
 31
0.0
  0
LINE
  8
0
 62
     0
 10
174.506
 20
52.8052
 30
0.0
 11
174.506
 21
49.7046
 31
0.0
  0
LINE
  8
0
 62
     0
 10
174.506
 20
49.7046
 30
0.0
 11
175.307
 21
49.7046
 31
0.0
  0
LINE
  8
0
 62
     0
 10
175.307
 20
49.7046
 30
0.0
 11
175.307
 21
48.7056
 31
0.0
  0
LINE
  8
0
 62
     0
 10
175.307
 20
48.7056
 30
0.0
 11
189.307
 21
48.7056
 31
0.0
  0
LINE
  8
0
 62
     0
 10
189.307
 20
48.7056
 30
0.0
 11
189.307
 21
49.7046
 31
0.0
  0
LINE
  8
0
 62
     0
 10
189.307
 20
49.7046
 30
0.0
 11
190.107
 21
49.7046
 31
0.0
  0
LINE
  8
0
 62
     0
 10
190.107
 20
49.7046
 30
0.0
 11
190.107
 21
52.8052
 31
0.0
  0
LINE
  8
0
 62
     0
 10
190.107
 20
52.8052
 30
0.0
 11
189.307
 21
52.8052
 31
0.0
  0
LINE
  8
0
 62
     0
 10
189.307
 20
52.8052
 30
0.0
 11
189.307
 21
58.6052
 31
0.0
  0
LINE
  8
0
 62
     0
 10
189.307
 20
58.6052
 30
0.0
 11
190.107
 21
58.6052
 31
0.0
  0
LINE
  8
0
 62
     0
 10
190.107
 20
58.6052
 30
0.0
 11
190.107
 21
61.7044
 31
0.0
  0
LINE
  8
0
 62
     0
 10
190.107
 20
61.7044
 30
0.0
 11
189.307
 21
61.7044
 31
0.0
  0
LINE
  8
0
 62
     0
 10
189.307
 20
61.7044
 30
0.0
 11
189.307
 21
62.7048
 31
0.0
  0
LINE
  8
0
 62
     0
 10
189.307
 20
62.7048
 30
0.0
 11
175.307
 21
62.7048
 31
0.0
  0
LINE
  8
0
 62
     0
 10
194.357
 20
62.7048
 30
0.0
 11
194.357
 21
61.7044
 31
0.0
  0
LINE
  8
0
 62
     0
 10
194.357
 20
61.7044
 30
0.0
 11
193.556
 21
61.7044
 31
0.0
  0
LINE
  8
0
 62
     0
 10
193.556
 20
61.7044
 30
0.0
 11
193.556
 21
58.6052
 31
0.0
  0
LINE
  8
0
 62
     0
 10
193.556
 20
58.6052
 30
0.0
 11
194.357
 21
58.6052
 31
0.0
  0
LINE
  8
0
 62
     0
 10
194.357
 20
58.6052
 30
0.0
 11
194.357
 21
52.8052
 31
0.0
  0
LINE
  8
0
 62
     0
 10
194.357
 20
52.8052
 30
0.0
 11
193.556
 21
52.8052
 31
0.0
  0
LINE
  8
0
 62
     0
 10
193.556
 20
52.8052
 30
0.0
 11
193.556
 21
49.7046
 31
0.0
  0
LINE
  8
0
 62
     0
 10
193.556
 20
49.7046
 30
0.0
 11
194.357
 21
49.7046
 31
0.0
  0
LINE
  8
0
 62
     0
 10
194.357
 20
49.7046
 30
0.0
 11
194.357
 21
48.7056
 31
0.0
  0
LINE
  8
0
 62
     0
 10
194.357
 20
48.7056
 30
0.0
 11
208.357
 21
48.7056
 31
0.0
  0
LINE
  8
0
 62
     0
 10
208.357
 20
48.7056
 30
0.0
 11
208.357
 21
49.7046
 31
0.0
  0
LINE
  8
0
 62
     0
 10
208.357
 20
49.7046
 30
0.0
 11
209.157
 21
49.7046
 31
0.0
  0
LINE
  8
0
 62
     0
 10
209.157
 20
49.7046
 30
0.0
 11
209.157
 21
52.8052
 31
0.0
  0
LINE
  8
0
 62
     0
 10
209.157
 20
52.8052
 30
0.0
 11
208.357
 21
52.8052
 31
0.0
  0
LINE
  8
0
 62
     0
 10
208.357
 20
52.8052
 30
0.0
 11
208.357
 21
58.6052
 31
0.0
  0
LINE
  8
0
 62
     0
 10
208.357
 20
58.6052
 30
0.0
 11
209.157
 21
58.6052
 31
0.0
  0
LINE
  8
0
 62
     0
 10
209.157
 20
58.6052
 30
0.0
 11
209.157
 21
61.7044
 31
0.0
  0
LINE
  8
0
 62
     0
 10
209.157
 20
61.7044
 30
0.0
 11
208.357
 21
61.7044
 31
0.0
  0
LINE
  8
0
 62
     0
 10
208.357
 20
61.7044
 30
0.0
 11
208.357
 21
62.7048
 31
0.0
  0
LINE
  8
0
 62
     0
 10
208.357
 20
62.7048
 30
0.0
 11
194.357
 21
62.7048
 31
0.0
  0
LINE
  8
0
 62
     0
 10
213.407
 20
62.7048
 30
0.0
 11
213.407
 21
61.7044
 31
0.0
  0
LINE
  8
0
 62
     0
 10
213.407
 20
61.7044
 30
0.0
 11
212.606
 21
61.7044
 31
0.0
  0
LINE
  8
0
 62
     0
 10
212.606
 20
61.7044
 30
0.0
 11
212.606
 21
58.6052
 31
0.0
  0
LINE
  8
0
 62
     0
 10
212.606
 20
58.6052
 30
0.0
 11
213.407
 21
58.6052
 31
0.0
  0
LINE
  8
0
 62
     0
 10
213.407
 20
58.6052
 30
0.0
 11
213.407
 21
52.8052
 31
0.0
  0
LINE
  8
0
 62
     0
 10
213.407
 20
52.8052
 30
0.0
 11
212.606
 21
52.8052
 31
0.0
  0
LINE
  8
0
 62
     0
 10
212.606
 20
52.8052
 30
0.0
 11
212.606
 21
49.7046
 31
0.0
  0
LINE
  8
0
 62
     0
 10
212.606
 20
49.7046
 30
0.0
 11
213.407
 21
49.7046
 31
0.0
  0
LINE
  8
0
 62
     0
 10
213.407
 20
49.7046
 30
0.0
 11
213.407
 21
48.7056
 31
0.0
  0
LINE
  8
0
 62
     0
 10
213.407
 20
48.7056
 30
0.0
 11
227.407
 21
48.7056
 31
0.0
  0
LINE
  8
0
 62
     0
 10
227.407
 20
48.7056
 30
0.0
 11
227.407
 21
49.7046
 31
0.0
  0
LINE
  8
0
 62
     0
 10
227.407
 20
49.7046
 30
0.0
 11
228.207
 21
49.7046
 31
0.0
  0
LINE
  8
0
 62
     0
 10
228.207
 20
49.7046
 30
0.0
 11
228.207
 21
52.8052
 31
0.0
  0
LINE
  8
0
 62
     0
 10
228.207
 20
52.8052
 30
0.0
 11
227.407
 21
52.8052
 31
0.0
  0
LINE
  8
0
 62
     0
 10
227.407
 20
52.8052
 30
0.0
 11
227.407
 21
58.6052
 31
0.0
  0
LINE
  8
0
 62
     0
 10
227.407
 20
58.6052
 30
0.0
 11
228.207
 21
58.6052
 31
0.0
  0
LINE
  8
0
 62
     0
 10
228.207
 20
58.6052
 30
0.0
 11
228.207
 21
61.7044
 31
0.0
  0
LINE
  8
0
 62
     0
 10
228.207
 20
61.7044
 30
0.0
 11
227.407
 21
61.7044
 31
0.0
  0
LINE
  8
0
 62
     0
 10
227.407
 20
61.7044
 30
0.0
 11
227.407
 21
62.7048
 31
0.0
  0
LINE
  8
0
 62
     0
 10
227.407
 20
62.7048
 30
0.0
 11
213.407
 21
62.7048
 31
0.0
  0
LINE
  8
0
 62
     0
 10
232.457
 20
62.7048
 30
0.0
 11
232.457
 21
61.7044
 31
0.0
  0
LINE
  8
0
 62
     0
 10
232.457
 20
61.7044
 30
0.0
 11
231.656
 21
61.7044
 31
0.0
  0
LINE
  8
0
 62
     0
 10
231.656
 20
61.7044
 30
0.0
 11
231.656
 21
58.6052
 31
0.0
  0
LINE
  8
0
 62
     0
 10
231.656
 20
58.6052
 30
0.0
 11
232.457
 21
58.6052
 31
0.0
  0
LINE
  8
0
 62
     0
 10
232.457
 20
58.6052
 30
0.0
 11
232.457
 21
52.8052
 31
0.0
  0
LINE
  8
0
 62
     0
 10
232.457
 20
52.8052
 30
0.0
 11
231.656
 21
52.8052
 31
0.0
  0
LINE
  8
0
 62
     0
 10
231.656
 20
52.8052
 30
0.0
 11
231.656
 21
49.7046
 31
0.0
  0
LINE
  8
0
 62
     0
 10
231.656
 20
49.7046
 30
0.0
 11
232.457
 21
49.7046
 31
0.0
  0
LINE
  8
0
 62
     0
 10
232.457
 20
49.7046
 30
0.0
 11
232.457
 21
48.7056
 31
0.0
  0
LINE
  8
0
 62
     0
 10
232.457
 20
48.7056
 30
0.0
 11
246.457
 21
48.7056
 31
0.0
  0
LINE
  8
0
 62
     0
 10
246.457
 20
48.7056
 30
0.0
 11
246.457
 21
49.7046
 31
0.0
  0
LINE
  8
0
 62
     0
 10
246.457
 20
49.7046
 30
0.0
 11
247.257
 21
49.7046
 31
0.0
  0
LINE
  8
0
 62
     0
 10
247.257
 20
49.7046
 30
0.0
 11
247.257
 21
52.8052
 31
0.0
  0
LINE
  8
0
 62
     0
 10
247.257
 20
52.8052
 30
0.0
 11
246.457
 21
52.8052
 31
0.0
  0
LINE
  8
0
 62
     0
 10
246.457
 20
52.8052
 30
0.0
 11
246.457
 21
58.6052
 31
0.0
  0
LINE
  8
0
 62
     0
 10
246.457
 20
58.6052
 30
0.0
 11
247.257
 21
58.6052
 31
0.0
  0
LINE
  8
0
 62
     0
 10
247.257
 20
58.6052
 30
0.0
 11
247.257
 21
61.7044
 31
0.0
  0
LINE
  8
0
 62
     0
 10
247.257
 20
61.7044
 30
0.0
 11
246.457
 21
61.7044
 31
0.0
  0
LINE
  8
0
 62
     0
 10
246.457
 20
61.7044
 30
0.0
 11
246.457
 21
62.7048
 31
0.0
  0
LINE
  8
0
 62
     0
 10
246.457
 20
62.7048
 30
0.0
 11
232.457
 21
62.7048
 31
0.0
  0
LINE
  8
0
 62
     0
 10
13.3821
 20
81.7563
 30
0.0
 11
13.3821
 21
80.7558
 31
0.0
  0
LINE
  8
0
 62
     0
 10
13.3821
 20
80.7558
 30
0.0
 11
12.5815
 21
80.7558
 31
0.0
  0
LINE
  8
0
 62
     0
 10
12.5815
 20
80.7558
 30
0.0
 11
12.5815
 21
77.6552
 31
0.0
  0
LINE
  8
0
 62
     0
 10
12.5815
 20
77.6552
 30
0.0
 11
13.3821
 21
77.6552
 31
0.0
  0
LINE
  8
0
 62
     0
 10
13.3821
 20
77.6552
 30
0.0
 11
13.3821
 21
71.8566
 31
0.0
  0
LINE
  8
0
 62
     0
 10
13.3821
 20
71.8566
 30
0.0
 11
12.5815
 21
71.8566
 31
0.0
  0
LINE
  8
0
 62
     0
 10
12.5815
 20
71.8566
 30
0.0
 11
12.5815
 21
68.7546
 31
0.0
  0
LINE
  8
0
 62
     0
 10
12.5815
 20
68.7546
 30
0.0
 11
13.3821
 21
68.7546
 31
0.0
  0
LINE
  8
0
 62
     0
 10
13.3821
 20
68.7546
 30
0.0
 11
13.3821
 21
67.7556
 31
0.0
  0
LINE
  8
0
 62
     0
 10
13.3821
 20
67.7556
 30
0.0
 11
27.3816
 21
67.7556
 31
0.0
  0
LINE
  8
0
 62
     0
 10
27.3816
 20
67.7556
 30
0.0
 11
27.3816
 21
68.7546
 31
0.0
  0
LINE
  8
0
 62
     0
 10
27.3816
 20
68.7546
 30
0.0
 11
28.1823
 21
68.7546
 31
0.0
  0
LINE
  8
0
 62
     0
 10
28.1823
 20
68.7546
 30
0.0
 11
28.1823
 21
71.8566
 31
0.0
  0
LINE
  8
0
 62
     0
 10
28.1823
 20
71.8566
 30
0.0
 11
27.3816
 21
71.8566
 31
0.0
  0
LINE
  8
0
 62
     0
 10
27.3816
 20
71.8566
 30
0.0
 11
27.3816
 21
77.6552
 31
0.0
  0
LINE
  8
0
 62
     0
 10
27.3816
 20
77.6552
 30
0.0
 11
28.1823
 21
77.6552
 31
0.0
  0
LINE
  8
0
 62
     0
 10
28.1823
 20
77.6552
 30
0.0
 11
28.1823
 21
80.7558
 31
0.0
  0
LINE
  8
0
 62
     0
 10
28.1823
 20
80.7558
 30
0.0
 11
27.3816
 21
80.7558
 31
0.0
  0
LINE
  8
0
 62
     0
 10
27.3816
 20
80.7558
 30
0.0
 11
27.3816
 21
81.7563
 31
0.0
  0
LINE
  8
0
 62
     0
 10
27.3816
 20
81.7563
 30
0.0
 11
13.3821
 21
81.7563
 31
0.0
  0
LINE
  8
0
 62
     0
 10
37.1948
 20
81.7563
 30
0.0
 11
37.1948
 21
80.7558
 31
0.0
  0
LINE
  8
0
 62
     0
 10
37.1948
 20
80.7558
 30
0.0
 11
36.3954
 21
80.7558
 31
0.0
  0
LINE
  8
0
 62
     0
 10
36.3954
 20
80.7558
 30
0.0
 11
36.3954
 21
77.6552
 31
0.0
  0
LINE
  8
0
 62
     0
 10
36.3954
 20
77.6552
 30
0.0
 11
37.1948
 21
77.6552
 31
0.0
  0
LINE
  8
0
 62
     0
 10
37.1948
 20
77.6552
 30
0.0
 11
37.1948
 21
71.8566
 31
0.0
  0
LINE
  8
0
 62
     0
 10
37.1948
 20
71.8566
 30
0.0
 11
36.3954
 21
71.8566
 31
0.0
  0
LINE
  8
0
 62
     0
 10
36.3954
 20
71.8566
 30
0.0
 11
36.3954
 21
68.7546
 31
0.0
  0
LINE
  8
0
 62
     0
 10
36.3954
 20
68.7546
 30
0.0
 11
37.1948
 21
68.7546
 31
0.0
  0
LINE
  8
0
 62
     0
 10
37.1948
 20
68.7546
 30
0.0
 11
37.1948
 21
67.7556
 31
0.0
  0
LINE
  8
0
 62
     0
 10
37.1948
 20
67.7556
 30
0.0
 11
51.1941
 21
67.7556
 31
0.0
  0
LINE
  8
0
 62
     0
 10
51.1941
 20
67.7556
 30
0.0
 11
51.1941
 21
68.7546
 31
0.0
  0
LINE
  8
0
 62
     0
 10
51.1941
 20
68.7546
 30
0.0
 11
51.9949
 21
68.7546
 31
0.0
  0
LINE
  8
0
 62
     0
 10
51.9949
 20
68.7546
 30
0.0
 11
51.9949
 21
71.8566
 31
0.0
  0
LINE
  8
0
 62
     0
 10
51.9949
 20
71.8566
 30
0.0
 11
51.1941
 21
71.8566
 31
0.0
  0
LINE
  8
0
 62
     0
 10
51.1941
 20
71.8566
 30
0.0
 11
51.1941
 21
77.6552
 31
0.0
  0
LINE
  8
0
 62
     0
 10
51.1941
 20
77.6552
 30
0.0
 11
51.9949
 21
77.6552
 31
0.0
  0
LINE
  8
0
 62
     0
 10
51.9949
 20
77.6552
 30
0.0
 11
51.9949
 21
80.7558
 31
0.0
  0
LINE
  8
0
 62
     0
 10
51.9949
 20
80.7558
 30
0.0
 11
51.1941
 21
80.7558
 31
0.0
  0
LINE
  8
0
 62
     0
 10
51.1941
 20
80.7558
 30
0.0
 11
51.1941
 21
81.7563
 31
0.0
  0
LINE
  8
0
 62
     0
 10
51.1941
 20
81.7563
 30
0.0
 11
37.1948
 21
81.7563
 31
0.0
  0
LINE
  8
0
 62
     0
 10
56.2448
 20
81.7563
 30
0.0
 11
56.2448
 21
80.7558
 31
0.0
  0
LINE
  8
0
 62
     0
 10
56.2448
 20
80.7558
 30
0.0
 11
55.4454
 21
80.7558
 31
0.0
  0
LINE
  8
0
 62
     0
 10
55.4454
 20
80.7558
 30
0.0
 11
55.4454
 21
77.6552
 31
0.0
  0
LINE
  8
0
 62
     0
 10
55.4454
 20
77.6552
 30
0.0
 11
56.2448
 21
77.6552
 31
0.0
  0
LINE
  8
0
 62
     0
 10
56.2448
 20
77.6552
 30
0.0
 11
56.2448
 21
71.8566
 31
0.0
  0
LINE
  8
0
 62
     0
 10
56.2448
 20
71.8566
 30
0.0
 11
55.4454
 21
71.8566
 31
0.0
  0
LINE
  8
0
 62
     0
 10
55.4454
 20
71.8566
 30
0.0
 11
55.4454
 21
68.7546
 31
0.0
  0
LINE
  8
0
 62
     0
 10
55.4454
 20
68.7546
 30
0.0
 11
56.2448
 21
68.7546
 31
0.0
  0
LINE
  8
0
 62
     0
 10
56.2448
 20
68.7546
 30
0.0
 11
56.2448
 21
67.7556
 31
0.0
  0
LINE
  8
0
 62
     0
 10
56.2448
 20
67.7556
 30
0.0
 11
70.2441
 21
67.7556
 31
0.0
  0
LINE
  8
0
 62
     0
 10
70.2441
 20
67.7556
 30
0.0
 11
70.2441
 21
68.7546
 31
0.0
  0
LINE
  8
0
 62
     0
 10
70.2441
 20
68.7546
 30
0.0
 11
71.0449
 21
68.7546
 31
0.0
  0
LINE
  8
0
 62
     0
 10
71.0449
 20
68.7546
 30
0.0
 11
71.0449
 21
71.8566
 31
0.0
  0
LINE
  8
0
 62
     0
 10
71.0449
 20
71.8566
 30
0.0
 11
70.2441
 21
71.8566
 31
0.0
  0
LINE
  8
0
 62
     0
 10
70.2441
 20
71.8566
 30
0.0
 11
70.2441
 21
77.6552
 31
0.0
  0
LINE
  8
0
 62
     0
 10
70.2441
 20
77.6552
 30
0.0
 11
71.0449
 21
77.6552
 31
0.0
  0
LINE
  8
0
 62
     0
 10
71.0449
 20
77.6552
 30
0.0
 11
71.0449
 21
80.7558
 31
0.0
  0
LINE
  8
0
 62
     0
 10
71.0449
 20
80.7558
 30
0.0
 11
70.2441
 21
80.7558
 31
0.0
  0
LINE
  8
0
 62
     0
 10
70.2441
 20
80.7558
 30
0.0
 11
70.2441
 21
81.7563
 31
0.0
  0
LINE
  8
0
 62
     0
 10
70.2441
 20
81.7563
 30
0.0
 11
56.2448
 21
81.7563
 31
0.0
  0
LINE
  8
0
 62
     0
 10
75.2948
 20
81.7563
 30
0.0
 11
75.2948
 21
80.7558
 31
0.0
  0
LINE
  8
0
 62
     0
 10
75.2948
 20
80.7558
 30
0.0
 11
74.4954
 21
80.7558
 31
0.0
  0
LINE
  8
0
 62
     0
 10
74.4954
 20
80.7558
 30
0.0
 11
74.4954
 21
77.6552
 31
0.0
  0
LINE
  8
0
 62
     0
 10
74.4954
 20
77.6552
 30
0.0
 11
75.2948
 21
77.6552
 31
0.0
  0
LINE
  8
0
 62
     0
 10
75.2948
 20
77.6552
 30
0.0
 11
75.2948
 21
71.8566
 31
0.0
  0
LINE
  8
0
 62
     0
 10
75.2948
 20
71.8566
 30
0.0
 11
74.4954
 21
71.8566
 31
0.0
  0
LINE
  8
0
 62
     0
 10
74.4954
 20
71.8566
 30
0.0
 11
74.4954
 21
68.7546
 31
0.0
  0
LINE
  8
0
 62
     0
 10
74.4954
 20
68.7546
 30
0.0
 11
75.2948
 21
68.7546
 31
0.0
  0
LINE
  8
0
 62
     0
 10
75.2948
 20
68.7546
 30
0.0
 11
75.2948
 21
67.7556
 31
0.0
  0
LINE
  8
0
 62
     0
 10
75.2948
 20
67.7556
 30
0.0
 11
89.2941
 21
67.7556
 31
0.0
  0
LINE
  8
0
 62
     0
 10
89.2941
 20
67.7556
 30
0.0
 11
89.2941
 21
68.7546
 31
0.0
  0
LINE
  8
0
 62
     0
 10
89.2941
 20
68.7546
 30
0.0
 11
90.0949
 21
68.7546
 31
0.0
  0
LINE
  8
0
 62
     0
 10
90.0949
 20
68.7546
 30
0.0
 11
90.0949
 21
71.8566
 31
0.0
  0
LINE
  8
0
 62
     0
 10
90.0949
 20
71.8566
 30
0.0
 11
89.2941
 21
71.8566
 31
0.0
  0
LINE
  8
0
 62
     0
 10
89.2941
 20
71.8566
 30
0.0
 11
89.2941
 21
77.6552
 31
0.0
  0
LINE
  8
0
 62
     0
 10
89.2941
 20
77.6552
 30
0.0
 11
90.0949
 21
77.6552
 31
0.0
  0
LINE
  8
0
 62
     0
 10
90.0949
 20
77.6552
 30
0.0
 11
90.0949
 21
80.7558
 31
0.0
  0
LINE
  8
0
 62
     0
 10
90.0949
 20
80.7558
 30
0.0
 11
89.2941
 21
80.7558
 31
0.0
  0
LINE
  8
0
 62
     0
 10
89.2941
 20
80.7558
 30
0.0
 11
89.2941
 21
81.7563
 31
0.0
  0
LINE
  8
0
 62
     0
 10
89.2941
 20
81.7563
 30
0.0
 11
75.2948
 21
81.7563
 31
0.0
  0
LINE
  8
0
 62
     0
 10
94.3448
 20
81.7563
 30
0.0
 11
94.3448
 21
80.7558
 31
0.0
  0
LINE
  8
0
 62
     0
 10
94.3448
 20
80.7558
 30
0.0
 11
93.5454
 21
80.7558
 31
0.0
  0
LINE
  8
0
 62
     0
 10
93.5454
 20
80.7558
 30
0.0
 11
93.5454
 21
77.6552
 31
0.0
  0
LINE
  8
0
 62
     0
 10
93.5454
 20
77.6552
 30
0.0
 11
94.3448
 21
77.6552
 31
0.0
  0
LINE
  8
0
 62
     0
 10
94.3448
 20
77.6552
 30
0.0
 11
94.3448
 21
71.8566
 31
0.0
  0
LINE
  8
0
 62
     0
 10
94.3448
 20
71.8566
 30
0.0
 11
93.5454
 21
71.8566
 31
0.0
  0
LINE
  8
0
 62
     0
 10
93.5454
 20
71.8566
 30
0.0
 11
93.5454
 21
68.7546
 31
0.0
  0
LINE
  8
0
 62
     0
 10
93.5454
 20
68.7546
 30
0.0
 11
94.3448
 21
68.7546
 31
0.0
  0
LINE
  8
0
 62
     0
 10
94.3448
 20
68.7546
 30
0.0
 11
94.3448
 21
67.7556
 31
0.0
  0
LINE
  8
0
 62
     0
 10
94.3448
 20
67.7556
 30
0.0
 11
108.344
 21
67.7556
 31
0.0
  0
LINE
  8
0
 62
     0
 10
108.344
 20
67.7556
 30
0.0
 11
108.344
 21
68.7546
 31
0.0
  0
LINE
  8
0
 62
     0
 10
108.344
 20
68.7546
 30
0.0
 11
109.145
 21
68.7546
 31
0.0
  0
LINE
  8
0
 62
     0
 10
109.145
 20
68.7546
 30
0.0
 11
109.145
 21
71.8566
 31
0.0
  0
LINE
  8
0
 62
     0
 10
109.145
 20
71.8566
 30
0.0
 11
108.344
 21
71.8566
 31
0.0
  0
LINE
  8
0
 62
     0
 10
108.344
 20
71.8566
 30
0.0
 11
108.344
 21
77.6552
 31
0.0
  0
LINE
  8
0
 62
     0
 10
108.344
 20
77.6552
 30
0.0
 11
109.145
 21
77.6552
 31
0.0
  0
LINE
  8
0
 62
     0
 10
109.145
 20
77.6552
 30
0.0
 11
109.145
 21
80.7558
 31
0.0
  0
LINE
  8
0
 62
     0
 10
109.145
 20
80.7558
 30
0.0
 11
108.344
 21
80.7558
 31
0.0
  0
LINE
  8
0
 62
     0
 10
108.344
 20
80.7558
 30
0.0
 11
108.344
 21
81.7563
 31
0.0
  0
LINE
  8
0
 62
     0
 10
108.344
 20
81.7563
 30
0.0
 11
94.3448
 21
81.7563
 31
0.0
  0
LINE
  8
0
 62
     0
 10
113.395
 20
81.7563
 30
0.0
 11
113.395
 21
80.7558
 31
0.0
  0
LINE
  8
0
 62
     0
 10
113.395
 20
80.7558
 30
0.0
 11
112.595
 21
80.7558
 31
0.0
  0
LINE
  8
0
 62
     0
 10
112.595
 20
80.7558
 30
0.0
 11
112.595
 21
77.6552
 31
0.0
  0
LINE
  8
0
 62
     0
 10
112.595
 20
77.6552
 30
0.0
 11
113.395
 21
77.6552
 31
0.0
  0
LINE
  8
0
 62
     0
 10
113.395
 20
77.6552
 30
0.0
 11
113.395
 21
71.8566
 31
0.0
  0
LINE
  8
0
 62
     0
 10
113.395
 20
71.8566
 30
0.0
 11
112.595
 21
71.8566
 31
0.0
  0
LINE
  8
0
 62
     0
 10
112.595
 20
71.8566
 30
0.0
 11
112.595
 21
68.7546
 31
0.0
  0
LINE
  8
0
 62
     0
 10
112.595
 20
68.7546
 30
0.0
 11
113.395
 21
68.7546
 31
0.0
  0
LINE
  8
0
 62
     0
 10
113.395
 20
68.7546
 30
0.0
 11
113.395
 21
67.7556
 31
0.0
  0
LINE
  8
0
 62
     0
 10
113.395
 20
67.7556
 30
0.0
 11
127.394
 21
67.7556
 31
0.0
  0
LINE
  8
0
 62
     0
 10
127.394
 20
67.7556
 30
0.0
 11
127.394
 21
68.7546
 31
0.0
  0
LINE
  8
0
 62
     0
 10
127.394
 20
68.7546
 30
0.0
 11
128.195
 21
68.7546
 31
0.0
  0
LINE
  8
0
 62
     0
 10
128.195
 20
68.7546
 30
0.0
 11
128.195
 21
71.8566
 31
0.0
  0
LINE
  8
0
 62
     0
 10
128.195
 20
71.8566
 30
0.0
 11
127.394
 21
71.8566
 31
0.0
  0
LINE
  8
0
 62
     0
 10
127.394
 20
71.8566
 30
0.0
 11
127.394
 21
77.6552
 31
0.0
  0
LINE
  8
0
 62
     0
 10
127.394
 20
77.6552
 30
0.0
 11
128.195
 21
77.6552
 31
0.0
  0
LINE
  8
0
 62
     0
 10
128.195
 20
77.6552
 30
0.0
 11
128.195
 21
80.7558
 31
0.0
  0
LINE
  8
0
 62
     0
 10
128.195
 20
80.7558
 30
0.0
 11
127.394
 21
80.7558
 31
0.0
  0
LINE
  8
0
 62
     0
 10
127.394
 20
80.7558
 30
0.0
 11
127.394
 21
81.7563
 31
0.0
  0
LINE
  8
0
 62
     0
 10
127.394
 20
81.7563
 30
0.0
 11
113.395
 21
81.7563
 31
0.0
  0
LINE
  8
0
 62
     0
 10
132.445
 20
81.7563
 30
0.0
 11
132.445
 21
80.7558
 31
0.0
  0
LINE
  8
0
 62
     0
 10
132.445
 20
80.7558
 30
0.0
 11
131.644
 21
80.7558
 31
0.0
  0
LINE
  8
0
 62
     0
 10
131.644
 20
80.7558
 30
0.0
 11
131.644
 21
77.6552
 31
0.0
  0
LINE
  8
0
 62
     0
 10
131.644
 20
77.6552
 30
0.0
 11
132.445
 21
77.6552
 31
0.0
  0
LINE
  8
0
 62
     0
 10
132.445
 20
77.6552
 30
0.0
 11
132.445
 21
71.8566
 31
0.0
  0
LINE
  8
0
 62
     0
 10
132.445
 20
71.8566
 30
0.0
 11
131.644
 21
71.8566
 31
0.0
  0
LINE
  8
0
 62
     0
 10
131.644
 20
71.8566
 30
0.0
 11
131.644
 21
68.7546
 31
0.0
  0
LINE
  8
0
 62
     0
 10
131.644
 20
68.7546
 30
0.0
 11
132.445
 21
68.7546
 31
0.0
  0
LINE
  8
0
 62
     0
 10
132.445
 20
68.7546
 30
0.0
 11
132.445
 21
67.7556
 31
0.0
  0
LINE
  8
0
 62
     0
 10
132.445
 20
67.7556
 30
0.0
 11
146.444
 21
67.7556
 31
0.0
  0
LINE
  8
0
 62
     0
 10
146.444
 20
67.7556
 30
0.0
 11
146.444
 21
68.7546
 31
0.0
  0
LINE
  8
0
 62
     0
 10
146.444
 20
68.7546
 30
0.0
 11
147.245
 21
68.7546
 31
0.0
  0
LINE
  8
0
 62
     0
 10
147.245
 20
68.7546
 30
0.0
 11
147.245
 21
71.8566
 31
0.0
  0
LINE
  8
0
 62
     0
 10
147.245
 20
71.8566
 30
0.0
 11
146.444
 21
71.8566
 31
0.0
  0
LINE
  8
0
 62
     0
 10
146.444
 20
71.8566
 30
0.0
 11
146.444
 21
77.6552
 31
0.0
  0
LINE
  8
0
 62
     0
 10
146.444
 20
77.6552
 30
0.0
 11
147.245
 21
77.6552
 31
0.0
  0
LINE
  8
0
 62
     0
 10
147.245
 20
77.6552
 30
0.0
 11
147.245
 21
80.7558
 31
0.0
  0
LINE
  8
0
 62
     0
 10
147.245
 20
80.7558
 30
0.0
 11
146.444
 21
80.7558
 31
0.0
  0
LINE
  8
0
 62
     0
 10
146.444
 20
80.7558
 30
0.0
 11
146.444
 21
81.7563
 31
0.0
  0
LINE
  8
0
 62
     0
 10
146.444
 20
81.7563
 30
0.0
 11
132.445
 21
81.7563
 31
0.0
  0
LINE
  8
0
 62
     0
 10
151.495
 20
81.7563
 30
0.0
 11
151.495
 21
80.7558
 31
0.0
  0
LINE
  8
0
 62
     0
 10
151.495
 20
80.7558
 30
0.0
 11
150.695
 21
80.7558
 31
0.0
  0
LINE
  8
0
 62
     0
 10
150.695
 20
80.7558
 30
0.0
 11
150.695
 21
77.6552
 31
0.0
  0
LINE
  8
0
 62
     0
 10
150.695
 20
77.6552
 30
0.0
 11
151.495
 21
77.6552
 31
0.0
  0
LINE
  8
0
 62
     0
 10
151.495
 20
77.6552
 30
0.0
 11
151.495
 21
71.8566
 31
0.0
  0
LINE
  8
0
 62
     0
 10
151.495
 20
71.8566
 30
0.0
 11
150.695
 21
71.8566
 31
0.0
  0
LINE
  8
0
 62
     0
 10
150.695
 20
71.8566
 30
0.0
 11
150.695
 21
68.7546
 31
0.0
  0
LINE
  8
0
 62
     0
 10
150.695
 20
68.7546
 30
0.0
 11
151.495
 21
68.7546
 31
0.0
  0
LINE
  8
0
 62
     0
 10
151.495
 20
68.7546
 30
0.0
 11
151.495
 21
67.7556
 31
0.0
  0
LINE
  8
0
 62
     0
 10
151.495
 20
67.7556
 30
0.0
 11
165.494
 21
67.7556
 31
0.0
  0
LINE
  8
0
 62
     0
 10
165.494
 20
67.7556
 30
0.0
 11
165.494
 21
68.7546
 31
0.0
  0
LINE
  8
0
 62
     0
 10
165.494
 20
68.7546
 30
0.0
 11
166.295
 21
68.7546
 31
0.0
  0
LINE
  8
0
 62
     0
 10
166.295
 20
68.7546
 30
0.0
 11
166.295
 21
71.8566
 31
0.0
  0
LINE
  8
0
 62
     0
 10
166.295
 20
71.8566
 30
0.0
 11
165.494
 21
71.8566
 31
0.0
  0
LINE
  8
0
 62
     0
 10
165.494
 20
71.8566
 30
0.0
 11
165.494
 21
77.6552
 31
0.0
  0
LINE
  8
0
 62
     0
 10
165.494
 20
77.6552
 30
0.0
 11
166.295
 21
77.6552
 31
0.0
  0
LINE
  8
0
 62
     0
 10
166.295
 20
77.6552
 30
0.0
 11
166.295
 21
80.7558
 31
0.0
  0
LINE
  8
0
 62
     0
 10
166.295
 20
80.7558
 30
0.0
 11
165.494
 21
80.7558
 31
0.0
  0
LINE
  8
0
 62
     0
 10
165.494
 20
80.7558
 30
0.0
 11
165.494
 21
81.7563
 31
0.0
  0
LINE
  8
0
 62
     0
 10
165.494
 20
81.7563
 30
0.0
 11
151.495
 21
81.7563
 31
0.0
  0
LINE
  8
0
 62
     0
 10
170.545
 20
81.7563
 30
0.0
 11
170.545
 21
80.7558
 31
0.0
  0
LINE
  8
0
 62
     0
 10
170.545
 20
80.7558
 30
0.0
 11
169.745
 21
80.7558
 31
0.0
  0
LINE
  8
0
 62
     0
 10
169.745
 20
80.7558
 30
0.0
 11
169.745
 21
77.6552
 31
0.0
  0
LINE
  8
0
 62
     0
 10
169.745
 20
77.6552
 30
0.0
 11
170.545
 21
77.6552
 31
0.0
  0
LINE
  8
0
 62
     0
 10
170.545
 20
77.6552
 30
0.0
 11
170.545
 21
71.8566
 31
0.0
  0
LINE
  8
0
 62
     0
 10
170.545
 20
71.8566
 30
0.0
 11
169.745
 21
71.8566
 31
0.0
  0
LINE
  8
0
 62
     0
 10
169.745
 20
71.8566
 30
0.0
 11
169.745
 21
68.7546
 31
0.0
  0
LINE
  8
0
 62
     0
 10
169.745
 20
68.7546
 30
0.0
 11
170.545
 21
68.7546
 31
0.0
  0
LINE
  8
0
 62
     0
 10
170.545
 20
68.7546
 30
0.0
 11
170.545
 21
67.7556
 31
0.0
  0
LINE
  8
0
 62
     0
 10
170.545
 20
67.7556
 30
0.0
 11
184.544
 21
67.7556
 31
0.0
  0
LINE
  8
0
 62
     0
 10
184.544
 20
67.7556
 30
0.0
 11
184.544
 21
68.7546
 31
0.0
  0
LINE
  8
0
 62
     0
 10
184.544
 20
68.7546
 30
0.0
 11
185.345
 21
68.7546
 31
0.0
  0
LINE
  8
0
 62
     0
 10
185.345
 20
68.7546
 30
0.0
 11
185.345
 21
71.8566
 31
0.0
  0
LINE
  8
0
 62
     0
 10
185.345
 20
71.8566
 30
0.0
 11
184.544
 21
71.8566
 31
0.0
  0
LINE
  8
0
 62
     0
 10
184.544
 20
71.8566
 30
0.0
 11
184.544
 21
77.6552
 31
0.0
  0
LINE
  8
0
 62
     0
 10
184.544
 20
77.6552
 30
0.0
 11
185.345
 21
77.6552
 31
0.0
  0
LINE
  8
0
 62
     0
 10
185.345
 20
77.6552
 30
0.0
 11
185.345
 21
80.7558
 31
0.0
  0
LINE
  8
0
 62
     0
 10
185.345
 20
80.7558
 30
0.0
 11
184.544
 21
80.7558
 31
0.0
  0
LINE
  8
0
 62
     0
 10
184.544
 20
80.7558
 30
0.0
 11
184.544
 21
81.7563
 31
0.0
  0
LINE
  8
0
 62
     0
 10
184.544
 20
81.7563
 30
0.0
 11
170.545
 21
81.7563
 31
0.0
  0
LINE
  8
0
 62
     0
 10
189.595
 20
81.7563
 30
0.0
 11
189.595
 21
80.7558
 31
0.0
  0
LINE
  8
0
 62
     0
 10
189.595
 20
80.7558
 30
0.0
 11
188.795
 21
80.7558
 31
0.0
  0
LINE
  8
0
 62
     0
 10
188.795
 20
80.7558
 30
0.0
 11
188.795
 21
77.6552
 31
0.0
  0
LINE
  8
0
 62
     0
 10
188.795
 20
77.6552
 30
0.0
 11
189.595
 21
77.6552
 31
0.0
  0
LINE
  8
0
 62
     0
 10
189.595
 20
77.6552
 30
0.0
 11
189.595
 21
71.8566
 31
0.0
  0
LINE
  8
0
 62
     0
 10
189.595
 20
71.8566
 30
0.0
 11
188.795
 21
71.8566
 31
0.0
  0
LINE
  8
0
 62
     0
 10
188.795
 20
71.8566
 30
0.0
 11
188.795
 21
68.7546
 31
0.0
  0
LINE
  8
0
 62
     0
 10
188.795
 20
68.7546
 30
0.0
 11
189.595
 21
68.7546
 31
0.0
  0
LINE
  8
0
 62
     0
 10
189.595
 20
68.7546
 30
0.0
 11
189.595
 21
67.7556
 31
0.0
  0
LINE
  8
0
 62
     0
 10
189.595
 20
67.7556
 30
0.0
 11
203.594
 21
67.7556
 31
0.0
  0
LINE
  8
0
 62
     0
 10
203.594
 20
67.7556
 30
0.0
 11
203.594
 21
68.7546
 31
0.0
  0
LINE
  8
0
 62
     0
 10
203.594
 20
68.7546
 30
0.0
 11
204.395
 21
68.7546
 31
0.0
  0
LINE
  8
0
 62
     0
 10
204.395
 20
68.7546
 30
0.0
 11
204.395
 21
71.8566
 31
0.0
  0
LINE
  8
0
 62
     0
 10
204.395
 20
71.8566
 30
0.0
 11
203.594
 21
71.8566
 31
0.0
  0
LINE
  8
0
 62
     0
 10
203.594
 20
71.8566
 30
0.0
 11
203.594
 21
77.6552
 31
0.0
  0
LINE
  8
0
 62
     0
 10
203.594
 20
77.6552
 30
0.0
 11
204.395
 21
77.6552
 31
0.0
  0
LINE
  8
0
 62
     0
 10
204.395
 20
77.6552
 30
0.0
 11
204.395
 21
80.7558
 31
0.0
  0
LINE
  8
0
 62
     0
 10
204.395
 20
80.7558
 30
0.0
 11
203.594
 21
80.7558
 31
0.0
  0
LINE
  8
0
 62
     0
 10
203.594
 20
80.7558
 30
0.0
 11
203.594
 21
81.7563
 31
0.0
  0
LINE
  8
0
 62
     0
 10
203.594
 20
81.7563
 30
0.0
 11
189.595
 21
81.7563
 31
0.0
  0
LINE
  8
0
 62
     0
 10
208.645
 20
81.7563
 30
0.0
 11
208.645
 21
80.7558
 31
0.0
  0
LINE
  8
0
 62
     0
 10
208.645
 20
80.7558
 30
0.0
 11
207.845
 21
80.7558
 31
0.0
  0
LINE
  8
0
 62
     0
 10
207.845
 20
80.7558
 30
0.0
 11
207.845
 21
77.6552
 31
0.0
  0
LINE
  8
0
 62
     0
 10
207.845
 20
77.6552
 30
0.0
 11
208.645
 21
77.6552
 31
0.0
  0
LINE
  8
0
 62
     0
 10
208.645
 20
77.6552
 30
0.0
 11
208.645
 21
71.8566
 31
0.0
  0
LINE
  8
0
 62
     0
 10
208.645
 20
71.8566
 30
0.0
 11
207.845
 21
71.8566
 31
0.0
  0
LINE
  8
0
 62
     0
 10
207.845
 20
71.8566
 30
0.0
 11
207.845
 21
68.7546
 31
0.0
  0
LINE
  8
0
 62
     0
 10
207.845
 20
68.7546
 30
0.0
 11
208.645
 21
68.7546
 31
0.0
  0
LINE
  8
0
 62
     0
 10
208.645
 20
68.7546
 30
0.0
 11
208.645
 21
67.7556
 31
0.0
  0
LINE
  8
0
 62
     0
 10
208.645
 20
67.7556
 30
0.0
 11
222.644
 21
67.7556
 31
0.0
  0
LINE
  8
0
 62
     0
 10
222.644
 20
67.7556
 30
0.0
 11
222.644
 21
68.7546
 31
0.0
  0
LINE
  8
0
 62
     0
 10
222.644
 20
68.7546
 30
0.0
 11
223.445
 21
68.7546
 31
0.0
  0
LINE
  8
0
 62
     0
 10
223.445
 20
68.7546
 30
0.0
 11
223.445
 21
71.8566
 31
0.0
  0
LINE
  8
0
 62
     0
 10
223.445
 20
71.8566
 30
0.0
 11
222.644
 21
71.8566
 31
0.0
  0
LINE
  8
0
 62
     0
 10
222.644
 20
71.8566
 30
0.0
 11
222.644
 21
77.6552
 31
0.0
  0
LINE
  8
0
 62
     0
 10
222.644
 20
77.6552
 30
0.0
 11
223.445
 21
77.6552
 31
0.0
  0
LINE
  8
0
 62
     0
 10
223.445
 20
77.6552
 30
0.0
 11
223.445
 21
80.7558
 31
0.0
  0
LINE
  8
0
 62
     0
 10
223.445
 20
80.7558
 30
0.0
 11
222.644
 21
80.7558
 31
0.0
  0
LINE
  8
0
 62
     0
 10
222.644
 20
80.7558
 30
0.0
 11
222.644
 21
81.7563
 31
0.0
  0
LINE
  8
0
 62
     0
 10
222.644
 20
81.7563
 30
0.0
 11
208.645
 21
81.7563
 31
0.0
  0
LINE
  8
0
 62
     0
 10
227.695
 20
81.7563
 30
0.0
 11
227.695
 21
80.7558
 31
0.0
  0
LINE
  8
0
 62
     0
 10
227.695
 20
80.7558
 30
0.0
 11
226.895
 21
80.7558
 31
0.0
  0
LINE
  8
0
 62
     0
 10
226.895
 20
80.7558
 30
0.0
 11
226.895
 21
77.6552
 31
0.0
  0
LINE
  8
0
 62
     0
 10
226.895
 20
77.6552
 30
0.0
 11
227.695
 21
77.6552
 31
0.0
  0
LINE
  8
0
 62
     0
 10
227.695
 20
77.6552
 30
0.0
 11
227.695
 21
71.8566
 31
0.0
  0
LINE
  8
0
 62
     0
 10
227.695
 20
71.8566
 30
0.0
 11
226.895
 21
71.8566
 31
0.0
  0
LINE
  8
0
 62
     0
 10
226.895
 20
71.8566
 30
0.0
 11
226.895
 21
68.7546
 31
0.0
  0
LINE
  8
0
 62
     0
 10
226.895
 20
68.7546
 30
0.0
 11
227.695
 21
68.7546
 31
0.0
  0
LINE
  8
0
 62
     0
 10
227.695
 20
68.7546
 30
0.0
 11
227.695
 21
67.7556
 31
0.0
  0
LINE
  8
0
 62
     0
 10
227.695
 20
67.7556
 30
0.0
 11
241.694
 21
67.7556
 31
0.0
  0
LINE
  8
0
 62
     0
 10
241.694
 20
67.7556
 30
0.0
 11
241.694
 21
68.7546
 31
0.0
  0
LINE
  8
0
 62
     0
 10
241.694
 20
68.7546
 30
0.0
 11
242.495
 21
68.7546
 31
0.0
  0
LINE
  8
0
 62
     0
 10
242.495
 20
68.7546
 30
0.0
 11
242.495
 21
71.8566
 31
0.0
  0
LINE
  8
0
 62
     0
 10
242.495
 20
71.8566
 30
0.0
 11
241.694
 21
71.8566
 31
0.0
  0
LINE
  8
0
 62
     0
 10
241.694
 20
71.8566
 30
0.0
 11
241.694
 21
77.6552
 31
0.0
  0
LINE
  8
0
 62
     0
 10
241.694
 20
77.6552
 30
0.0
 11
242.495
 21
77.6552
 31
0.0
  0
LINE
  8
0
 62
     0
 10
242.495
 20
77.6552
 30
0.0
 11
242.495
 21
80.7558
 31
0.0
  0
LINE
  8
0
 62
     0
 10
242.495
 20
80.7558
 30
0.0
 11
241.694
 21
80.7558
 31
0.0
  0
LINE
  8
0
 62
     0
 10
241.694
 20
80.7558
 30
0.0
 11
241.694
 21
81.7563
 31
0.0
  0
LINE
  8
0
 62
     0
 10
241.694
 20
81.7563
 30
0.0
 11
227.695
 21
81.7563
 31
0.0
  0
LINE
  8
0
 62
     0
 10
246.745
 20
81.7563
 30
0.0
 11
246.745
 21
80.7558
 31
0.0
  0
LINE
  8
0
 62
     0
 10
246.745
 20
80.7558
 30
0.0
 11
245.945
 21
80.7558
 31
0.0
  0
LINE
  8
0
 62
     0
 10
245.945
 20
80.7558
 30
0.0
 11
245.945
 21
77.6552
 31
0.0
  0
LINE
  8
0
 62
     0
 10
245.945
 20
77.6552
 30
0.0
 11
246.745
 21
77.6552
 31
0.0
  0
LINE
  8
0
 62
     0
 10
246.745
 20
77.6552
 30
0.0
 11
246.745
 21
71.8566
 31
0.0
  0
LINE
  8
0
 62
     0
 10
246.745
 20
71.8566
 30
0.0
 11
245.945
 21
71.8566
 31
0.0
  0
LINE
  8
0
 62
     0
 10
245.945
 20
71.8566
 30
0.0
 11
245.945
 21
68.7546
 31
0.0
  0
LINE
  8
0
 62
     0
 10
245.945
 20
68.7546
 30
0.0
 11
246.745
 21
68.7546
 31
0.0
  0
LINE
  8
0
 62
     0
 10
246.745
 20
68.7546
 30
0.0
 11
246.745
 21
67.7556
 31
0.0
  0
LINE
  8
0
 62
     0
 10
246.745
 20
67.7556
 30
0.0
 11
260.744
 21
67.7556
 31
0.0
  0
LINE
  8
0
 62
     0
 10
260.744
 20
67.7556
 30
0.0
 11
260.744
 21
68.7546
 31
0.0
  0
LINE
  8
0
 62
     0
 10
260.744
 20
68.7546
 30
0.0
 11
261.545
 21
68.7546
 31
0.0
  0
LINE
  8
0
 62
     0
 10
261.545
 20
68.7546
 30
0.0
 11
261.545
 21
71.8566
 31
0.0
  0
LINE
  8
0
 62
     0
 10
261.545
 20
71.8566
 30
0.0
 11
260.744
 21
71.8566
 31
0.0
  0
LINE
  8
0
 62
     0
 10
260.744
 20
71.8566
 30
0.0
 11
260.744
 21
77.6552
 31
0.0
  0
LINE
  8
0
 62
     0
 10
260.744
 20
77.6552
 30
0.0
 11
261.545
 21
77.6552
 31
0.0
  0
LINE
  8
0
 62
     0
 10
261.545
 20
77.6552
 30
0.0
 11
261.545
 21
80.7558
 31
0.0
  0
LINE
  8
0
 62
     0
 10
261.545
 20
80.7558
 30
0.0
 11
260.744
 21
80.7558
 31
0.0
  0
LINE
  8
0
 62
     0
 10
260.744
 20
80.7558
 30
0.0
 11
260.744
 21
81.7563
 31
0.0
  0
LINE
  8
0
 62
     0
 10
260.744
 20
81.7563
 30
0.0
 11
246.745
 21
81.7563
 31
0.0
  0
LINE
  8
0
 62
     0
 10
270.557
 20
81.7563
 30
0.0
 11
270.557
 21
80.7558
 31
0.0
  0
LINE
  8
0
 62
     0
 10
270.557
 20
80.7558
 30
0.0
 11
269.756
 21
80.7558
 31
0.0
  0
LINE
  8
0
 62
     0
 10
269.756
 20
80.7558
 30
0.0
 11
269.756
 21
77.6552
 31
0.0
  0
LINE
  8
0
 62
     0
 10
269.756
 20
77.6552
 30
0.0
 11
270.557
 21
77.6552
 31
0.0
  0
LINE
  8
0
 62
     0
 10
270.557
 20
77.6552
 30
0.0
 11
270.557
 21
71.8566
 31
0.0
  0
LINE
  8
0
 62
     0
 10
270.557
 20
71.8566
 30
0.0
 11
269.756
 21
71.8566
 31
0.0
  0
LINE
  8
0
 62
     0
 10
269.756
 20
71.8566
 30
0.0
 11
269.756
 21
68.7546
 31
0.0
  0
LINE
  8
0
 62
     0
 10
269.756
 20
68.7546
 30
0.0
 11
270.557
 21
68.7546
 31
0.0
  0
LINE
  8
0
 62
     0
 10
270.557
 20
68.7546
 30
0.0
 11
270.557
 21
67.7556
 31
0.0
  0
LINE
  8
0
 62
     0
 10
270.557
 20
67.7556
 30
0.0
 11
284.557
 21
67.7556
 31
0.0
  0
LINE
  8
0
 62
     0
 10
284.557
 20
67.7556
 30
0.0
 11
284.557
 21
68.7546
 31
0.0
  0
LINE
  8
0
 62
     0
 10
284.557
 20
68.7546
 30
0.0
 11
285.357
 21
68.7546
 31
0.0
  0
LINE
  8
0
 62
     0
 10
285.357
 20
68.7546
 30
0.0
 11
285.357
 21
71.8566
 31
0.0
  0
LINE
  8
0
 62
     0
 10
285.357
 20
71.8566
 30
0.0
 11
284.557
 21
71.8566
 31
0.0
  0
LINE
  8
0
 62
     0
 10
284.557
 20
71.8566
 30
0.0
 11
284.557
 21
77.6552
 31
0.0
  0
LINE
  8
0
 62
     0
 10
284.557
 20
77.6552
 30
0.0
 11
285.357
 21
77.6552
 31
0.0
  0
LINE
  8
0
 62
     0
 10
285.357
 20
77.6552
 30
0.0
 11
285.357
 21
80.7558
 31
0.0
  0
LINE
  8
0
 62
     0
 10
285.357
 20
80.7558
 30
0.0
 11
284.557
 21
80.7558
 31
0.0
  0
LINE
  8
0
 62
     0
 10
284.557
 20
80.7558
 30
0.0
 11
284.557
 21
81.7563
 31
0.0
  0
LINE
  8
0
 62
     0
 10
284.557
 20
81.7563
 30
0.0
 11
270.557
 21
81.7563
 31
0.0
  0
LINE
  8
0
 62
     0
 10
99.8802
 20
88.707
 30
0.0
 11
99.4625
 21
88.4936
 31
0.0
  0
LINE
  8
0
 62
     0
 10
99.4625
 20
88.4936
 30
0.0
 11
99.1306
 21
88.1613
 31
0.0
  0
LINE
  8
0
 62
     0
 10
99.1306
 20
88.1613
 30
0.0
 11
98.9182
 21
87.744
 31
0.0
  0
LINE
  8
0
 62
     0
 10
98.9182
 20
87.744
 30
0.0
 11
98.8452
 21
87.2793
 31
0.0
  0
LINE
  8
0
 62
     0
 10
98.8452
 20
87.2793
 30
0.0
 11
98.9182
 21
86.8165
 31
0.0
  0
LINE
  8
0
 62
     0
 10
98.9182
 20
86.8165
 30
0.0
 11
99.1306
 21
86.3988
 31
0.0
  0
LINE
  8
0
 62
     0
 10
99.1306
 20
86.3988
 30
0.0
 11
99.4625
 21
86.0668
 31
0.0
  0
LINE
  8
0
 62
     0
 10
99.4625
 20
86.0668
 30
0.0
 11
99.8802
 21
85.8531
 31
0.0
  0
LINE
  8
0
 62
     0
 10
99.8802
 20
85.8531
 30
0.0
 11
100.344
 21
85.78
 31
0.0
  0
LINE
  8
0
 62
     0
 10
100.344
 20
85.78
 30
0.0
 11
100.808
 21
85.8531
 31
0.0
  0
LINE
  8
0
 62
     0
 10
100.808
 20
85.8531
 30
0.0
 11
101.226
 21
86.0668
 31
0.0
  0
LINE
  8
0
 62
     0
 10
101.226
 20
86.0668
 30
0.0
 11
101.557
 21
86.3988
 31
0.0
  0
LINE
  8
0
 62
     0
 10
101.557
 20
86.3988
 30
0.0
 11
101.771
 21
86.8165
 31
0.0
  0
LINE
  8
0
 62
     0
 10
101.771
 20
86.8165
 30
0.0
 11
101.845
 21
87.2793
 31
0.0
  0
LINE
  8
0
 62
     0
 10
101.845
 20
87.2793
 30
0.0
 11
101.771
 21
87.744
 31
0.0
  0
LINE
  8
0
 62
     0
 10
101.771
 20
87.744
 30
0.0
 11
101.557
 21
88.1613
 31
0.0
  0
LINE
  8
0
 62
     0
 10
101.557
 20
88.1613
 30
0.0
 11
101.226
 21
88.4936
 31
0.0
  0
LINE
  8
0
 62
     0
 10
101.226
 20
88.4936
 30
0.0
 11
100.808
 21
88.707
 31
0.0
  0
LINE
  8
0
 62
     0
 10
100.808
 20
88.707
 30
0.0
 11
100.344
 21
88.7801
 31
0.0
  0
LINE
  8
0
 62
     0
 10
100.344
 20
88.7801
 30
0.0
 11
99.8802
 21
88.707
 31
0.0
  0
LINE
  8
0
 62
     0
 10
197.131
 20
88.707
 30
0.0
 11
196.712
 21
88.4936
 31
0.0
  0
LINE
  8
0
 62
     0
 10
196.712
 20
88.4936
 30
0.0
 11
196.382
 21
88.1613
 31
0.0
  0
LINE
  8
0
 62
     0
 10
196.382
 20
88.1613
 30
0.0
 11
196.169
 21
87.744
 31
0.0
  0
LINE
  8
0
 62
     0
 10
196.169
 20
87.744
 30
0.0
 11
196.095
 21
87.2793
 31
0.0
  0
LINE
  8
0
 62
     0
 10
196.095
 20
87.2793
 30
0.0
 11
196.169
 21
86.8165
 31
0.0
  0
LINE
  8
0
 62
     0
 10
196.169
 20
86.8165
 30
0.0
 11
196.382
 21
86.3988
 31
0.0
  0
LINE
  8
0
 62
     0
 10
196.382
 20
86.3988
 30
0.0
 11
196.712
 21
86.0668
 31
0.0
  0
LINE
  8
0
 62
     0
 10
196.712
 20
86.0668
 30
0.0
 11
197.131
 21
85.8531
 31
0.0
  0
LINE
  8
0
 62
     0
 10
197.131
 20
85.8531
 30
0.0
 11
197.594
 21
85.78
 31
0.0
  0
LINE
  8
0
 62
     0
 10
197.594
 20
85.78
 30
0.0
 11
198.059
 21
85.8531
 31
0.0
  0
LINE
  8
0
 62
     0
 10
198.059
 20
85.8531
 30
0.0
 11
198.476
 21
86.0668
 31
0.0
  0
LINE
  8
0
 62
     0
 10
198.476
 20
86.0668
 30
0.0
 11
198.808
 21
86.3988
 31
0.0
  0
LINE
  8
0
 62
     0
 10
198.808
 20
86.3988
 30
0.0
 11
199.022
 21
86.8165
 31
0.0
  0
LINE
  8
0
 62
     0
 10
199.022
 20
86.8165
 30
0.0
 11
199.095
 21
87.2793
 31
0.0
  0
LINE
  8
0
 62
     0
 10
199.095
 20
87.2793
 30
0.0
 11
199.022
 21
87.744
 31
0.0
  0
LINE
  8
0
 62
     0
 10
199.022
 20
87.744
 30
0.0
 11
198.808
 21
88.1613
 31
0.0
  0
LINE
  8
0
 62
     0
 10
198.808
 20
88.1613
 30
0.0
 11
198.476
 21
88.4936
 31
0.0
  0
LINE
  8
0
 62
     0
 10
198.476
 20
88.4936
 30
0.0
 11
198.059
 21
88.707
 31
0.0
  0
LINE
  8
0
 62
     0
 10
198.059
 20
88.707
 30
0.0
 11
197.594
 21
88.7801
 31
0.0
  0
LINE
  8
0
 62
     0
 10
197.594
 20
88.7801
 30
0.0
 11
197.131
 21
88.707
 31
0.0
  0
LINE
  8
0
 62
     0
 10
294.382
 20
88.707
 30
0.0
 11
293.963
 21
88.4936
 31
0.0
  0
LINE
  8
0
 62
     0
 10
293.963
 20
88.4936
 30
0.0
 11
293.632
 21
88.1613
 31
0.0
  0
LINE
  8
0
 62
     0
 10
293.632
 20
88.1613
 30
0.0
 11
293.419
 21
87.744
 31
0.0
  0
LINE
  8
0
 62
     0
 10
293.419
 20
87.744
 30
0.0
 11
293.346
 21
87.2793
 31
0.0
  0
LINE
  8
0
 62
     0
 10
293.346
 20
87.2793
 30
0.0
 11
293.419
 21
86.8165
 31
0.0
  0
LINE
  8
0
 62
     0
 10
293.419
 20
86.8165
 30
0.0
 11
293.632
 21
86.3988
 31
0.0
  0
LINE
  8
0
 62
     0
 10
293.632
 20
86.3988
 30
0.0
 11
293.963
 21
86.0668
 31
0.0
  0
LINE
  8
0
 62
     0
 10
293.963
 20
86.0668
 30
0.0
 11
294.382
 21
85.8531
 31
0.0
  0
LINE
  8
0
 62
     0
 10
294.382
 20
85.8531
 30
0.0
 11
294.846
 21
85.78
 31
0.0
  0
LINE
  8
0
 62
     0
 10
294.846
 20
85.78
 30
0.0
 11
295.308
 21
85.8531
 31
0.0
  0
LINE
  8
0
 62
     0
 10
295.308
 20
85.8531
 30
0.0
 11
295.727
 21
86.0668
 31
0.0
  0
LINE
  8
0
 62
     0
 10
295.727
 20
86.0668
 30
0.0
 11
296.059
 21
86.3988
 31
0.0
  0
LINE
  8
0
 62
     0
 10
296.059
 20
86.3988
 30
0.0
 11
296.271
 21
86.8165
 31
0.0
  0
LINE
  8
0
 62
     0
 10
296.271
 20
86.8165
 30
0.0
 11
296.346
 21
87.2793
 31
0.0
  0
LINE
  8
0
 62
     0
 10
296.346
 20
87.2793
 30
0.0
 11
296.271
 21
87.744
 31
0.0
  0
LINE
  8
0
 62
     0
 10
296.271
 20
87.744
 30
0.0
 11
296.059
 21
88.1613
 31
0.0
  0
LINE
  8
0
 62
     0
 10
296.059
 20
88.1613
 30
0.0
 11
295.727
 21
88.4936
 31
0.0
  0
LINE
  8
0
 62
     0
 10
295.727
 20
88.4936
 30
0.0
 11
295.308
 21
88.707
 31
0.0
  0
LINE
  8
0
 62
     0
 10
295.308
 20
88.707
 30
0.0
 11
294.846
 21
88.7801
 31
0.0
  0
LINE
  8
0
 62
     0
 10
294.846
 20
88.7801
 30
0.0
 11
294.382
 21
88.707
 31
0.0
  0
LINE
  8
0
 62
     0
 10
2.63067
 20
88.707
 30
0.0
 11
2.21313
 21
88.4936
 31
0.0
  0
LINE
  8
0
 62
     0
 10
2.21313
 20
88.4936
 30
0.0
 11
1.88102
 21
88.1613
 31
0.0
  0
LINE
  8
0
 62
     0
 10
1.88102
 20
88.1613
 30
0.0
 11
1.66743
 21
87.744
 31
0.0
  0
LINE
  8
0
 62
     0
 10
1.66743
 20
87.744
 30
0.0
 11
1.59439
 21
87.2793
 31
0.0
  0
LINE
  8
0
 62
     0
 10
1.59439
 20
87.2793
 30
0.0
 11
1.66743
 21
86.8165
 31
0.0
  0
LINE
  8
0
 62
     0
 10
1.66743
 20
86.8165
 30
0.0
 11
1.88102
 21
86.3988
 31
0.0
  0
LINE
  8
0
 62
     0
 10
1.88102
 20
86.3988
 30
0.0
 11
2.21313
 21
86.0668
 31
0.0
  0
LINE
  8
0
 62
     0
 10
2.21313
 20
86.0668
 30
0.0
 11
2.63067
 21
85.8531
 31
0.0
  0
LINE
  8
0
 62
     0
 10
2.63067
 20
85.8531
 30
0.0
 11
3.09507
 21
85.78
 31
0.0
  0
LINE
  8
0
 62
     0
 10
3.09507
 20
85.78
 30
0.0
 11
3.55808
 21
85.8531
 31
0.0
  0
LINE
  8
0
 62
     0
 10
3.55808
 20
85.8531
 30
0.0
 11
3.97563
 21
86.0668
 31
0.0
  0
LINE
  8
0
 62
     0
 10
3.97563
 20
86.0668
 30
0.0
 11
4.30773
 21
86.3988
 31
0.0
  0
LINE
  8
0
 62
     0
 10
4.30773
 20
86.3988
 30
0.0
 11
4.52134
 21
86.8165
 31
0.0
  0
LINE
  8
0
 62
     0
 10
4.52134
 20
86.8165
 30
0.0
 11
4.59437
 21
87.2793
 31
0.0
  0
LINE
  8
0
 62
     0
 10
4.59437
 20
87.2793
 30
0.0
 11
4.52134
 21
87.744
 31
0.0
  0
LINE
  8
0
 62
     0
 10
4.52134
 20
87.744
 30
0.0
 11
4.30773
 21
88.1613
 31
0.0
  0
LINE
  8
0
 62
     0
 10
4.30773
 20
88.1613
 30
0.0
 11
3.97563
 21
88.4936
 31
0.0
  0
LINE
  8
0
 62
     0
 10
3.97563
 20
88.4936
 30
0.0
 11
3.55808
 21
88.707
 31
0.0
  0
LINE
  8
0
 62
     0
 10
3.55808
 20
88.707
 30
0.0
 11
3.09507
 21
88.7801
 31
0.0
  0
LINE
  8
0
 62
     0
 10
3.09507
 20
88.7801
 30
0.0
 11
2.63067
 21
88.707
 31
0.0
  0
ENDSEC
  0
EOF
