  0
SECTION
  2
HEADER
  9
$ACADVER
  1
AC1009
  9
$EXTMIN
 10
0.0
 20
0.0
 30
0.0
  9
$EXTMAX
 10
1000.0
 20
1000.0
 30
0.0
  9
$FILLMODE
 70
 0
  9
$SPLFRAME
 70
 1
  0
ENDSEC
  0
SECTION
  2
TABLES
  0
TABLE
  2
LAYER
 70
1
  0
LAYER
  2
0
 70
     0
 62
     7
  6
CONTINUOUS
  0
ENDTAB
  0
ENDSEC
  0
SECTION
  2
ENTITIES
  0
LINE
  8
0
 62
     0
 10
142.97
 20
90.2808
 30
0.0
 11
142.97
 21
84.2793
 31
0.0
  0
LINE
  8
0
 62
     0
 10
142.97
 20
84.2793
 30
0.0
 11
6.09505
 21
84.2793
 31
0.0
  0
LINE
  8
0
 62
     0
 10
6.09505
 20
84.2793
 30
0.0
 11
6.09505
 21
6.07854
 31
0.0
  0
LINE
  8
0
 62
     0
 10
6.09505
 20
6.07854
 30
0.0
 11
291.845
 21
6.07854
 31
0.0
  0
LINE
  8
0
 62
     0
 10
291.845
 20
6.07854
 30
0.0
 11
291.845
 21
84.2793
 31
0.0
  0
LINE
  8
0
 62
     0
 10
291.845
 20
84.2793
 30
0.0
 11
154.97
 21
84.2793
 31
0.0
  0
LINE
  8
0
 62
     0
 10
154.97
 20
84.2793
 30
0.0
 11
154.97
 21
90.2794
 31
0.0
  0
LINE
  8
0
 62
     0
 10
154.97
 20
90.2794
 30
0.0
 11
294.846
 21
90.2794
 31
0.0
  0
LINE
  8
0
 62
     0
 10
294.846
 20
90.2794
 30
0.0
 11
295.081
 21
90.2712
 31
0.0
  0
LINE
  8
0
 62
     0
 10
295.081
 20
90.2712
 30
0.0
 11
295.315
 21
90.2437
 31
0.0
  0
LINE
  8
0
 62
     0
 10
295.315
 20
90.2437
 30
0.0
 11
295.545
 21
90.1982
 31
0.0
  0
LINE
  8
0
 62
     0
 10
295.545
 20
90.1982
 30
0.0
 11
295.772
 21
90.1333
 31
0.0
  0
LINE
  8
0
 62
     0
 10
295.772
 20
90.1333
 30
0.0
 11
295.994
 21
90.0522
 31
0.0
  0
LINE
  8
0
 62
     0
 10
295.994
 20
90.0522
 30
0.0
 11
296.207
 21
89.9541
 31
0.0
  0
LINE
  8
0
 62
     0
 10
296.207
 20
89.9541
 30
0.0
 11
296.413
 21
89.837
 31
0.0
  0
LINE
  8
0
 62
     0
 10
296.413
 20
89.837
 30
0.0
 11
296.609
 21
89.7075
 31
0.0
  0
LINE
  8
0
 62
     0
 10
296.609
 20
89.7075
 30
0.0
 11
296.794
 21
89.5615
 31
0.0
  0
LINE
  8
0
 62
     0
 10
296.794
 20
89.5615
 30
0.0
 11
296.967
 21
89.4016
 31
0.0
  0
LINE
  8
0
 62
     0
 10
296.967
 20
89.4016
 30
0.0
 11
297.127
 21
89.2295
 31
0.0
  0
LINE
  8
0
 62
     0
 10
297.127
 20
89.2295
 30
0.0
 11
297.273
 21
89.0432
 31
0.0
  0
LINE
  8
0
 62
     0
 10
297.273
 20
89.0432
 30
0.0
 11
297.403
 21
88.8478
 31
0.0
  0
LINE
  8
0
 62
     0
 10
297.403
 20
88.8478
 30
0.0
 11
297.518
 21
88.6425
 31
0.0
  0
LINE
  8
0
 62
     0
 10
297.518
 20
88.6425
 30
0.0
 11
297.616
 21
88.4287
 31
0.0
  0
LINE
  8
0
 62
     0
 10
297.616
 20
88.4287
 30
0.0
 11
297.699
 21
88.2082
 31
0.0
  0
LINE
  8
0
 62
     0
 10
297.699
 20
88.2082
 30
0.0
 11
297.762
 21
87.981
 31
0.0
  0
LINE
  8
0
 62
     0
 10
297.762
 20
87.981
 30
0.0
 11
297.809
 21
87.7492
 31
0.0
  0
LINE
  8
0
 62
     0
 10
297.809
 20
87.7492
 30
0.0
 11
297.835
 21
87.515
 31
0.0
  0
LINE
  8
0
 62
     0
 10
297.835
 20
87.515
 30
0.0
 11
297.846
 21
87.2793
 31
0.0
  0
LINE
  8
0
 62
     0
 10
297.846
 20
87.2793
 30
0.0
 11
297.846
 21
3.07854
 31
0.0
  0
LINE
  8
0
 62
     0
 10
297.846
 20
3.07854
 30
0.0
 11
297.835
 21
2.84427
 31
0.0
  0
LINE
  8
0
 62
     0
 10
297.835
 20
2.84427
 30
0.0
 11
297.809
 21
2.61001
 31
0.0
  0
LINE
  8
0
 62
     0
 10
297.809
 20
2.61001
 30
0.0
 11
297.762
 21
2.37849
 31
0.0
  0
LINE
  8
0
 62
     0
 10
297.762
 20
2.37849
 30
0.0
 11
297.699
 21
2.15112
 31
0.0
  0
LINE
  8
0
 62
     0
 10
297.699
 20
2.15112
 30
0.0
 11
297.616
 21
1.93063
 31
0.0
  0
LINE
  8
0
 62
     0
 10
297.616
 20
1.93063
 30
0.0
 11
297.518
 21
1.71841
 31
0.0
  0
LINE
  8
0
 62
     0
 10
297.518
 20
1.71841
 30
0.0
 11
297.403
 21
1.51171
 31
0.0
  0
LINE
  8
0
 62
     0
 10
297.403
 20
1.51171
 30
0.0
 11
297.273
 21
1.31603
 31
0.0
  0
LINE
  8
0
 62
     0
 10
297.273
 20
1.31603
 30
0.0
 11
297.127
 21
1.13137
 31
0.0
  0
LINE
  8
0
 62
     0
 10
297.127
 20
1.13137
 30
0.0
 11
296.967
 21
0.957735
 31
0.0
  0
LINE
  8
0
 62
     0
 10
296.967
 20
0.957735
 30
0.0
 11
296.794
 21
0.797885
 31
0.0
  0
LINE
  8
0
 62
     0
 10
296.794
 20
0.797885
 30
0.0
 11
296.609
 21
0.651813
 31
0.0
  0
LINE
  8
0
 62
     0
 10
296.609
 20
0.651813
 30
0.0
 11
296.413
 21
0.522277
 31
0.0
  0
LINE
  8
0
 62
     0
 10
296.413
 20
0.522277
 30
0.0
 11
296.207
 21
0.405144
 31
0.0
  0
LINE
  8
0
 62
     0
 10
296.207
 20
0.405144
 30
0.0
 11
295.994
 21
0.307303
 31
0.0
  0
LINE
  8
0
 62
     0
 10
295.994
 20
0.307303
 30
0.0
 11
295.772
 21
0.225998
 31
0.0
  0
LINE
  8
0
 62
     0
 10
295.772
 20
0.225998
 30
0.0
 11
295.545
 21
0.16123
 31
0.0
  0
LINE
  8
0
 62
     0
 10
295.545
 20
0.16123
 30
0.0
 11
295.315
 21
0.115755
 31
0.0
  0
LINE
  8
0
 62
     0
 10
295.315
 20
0.115755
 30
0.0
 11
295.081
 21
0.0881944
 31
0.0
  0
LINE
  8
0
 62
     0
 10
295.081
 20
0.0881944
 30
0.0
 11
294.846
 21
0.0785481
 31
0.0
  0
LINE
  8
0
 62
     0
 10
294.846
 20
0.0785481
 30
0.0
 11
3.09507
 21
0.0785481
 31
0.0
  0
LINE
  8
0
 62
     0
 10
3.09507
 20
0.0785481
 30
0.0
 11
2.85943
 21
0.0881944
 31
0.0
  0
LINE
  8
0
 62
     0
 10
2.85943
 20
0.0881944
 30
0.0
 11
2.62516
 21
0.115755
 31
0.0
  0
LINE
  8
0
 62
     0
 10
2.62516
 20
0.115755
 30
0.0
 11
2.39365
 21
0.16123
 31
0.0
  0
LINE
  8
0
 62
     0
 10
2.39365
 20
0.16123
 30
0.0
 11
2.16628
 21
0.225998
 31
0.0
  0
LINE
  8
0
 62
     0
 10
2.16628
 20
0.225998
 30
0.0
 11
1.94579
 21
0.307303
 31
0.0
  0
LINE
  8
0
 62
     0
 10
1.94579
 20
0.307303
 30
0.0
 11
1.7322
 21
0.405144
 31
0.0
  0
LINE
  8
0
 62
     0
 10
1.7322
 20
0.405144
 30
0.0
 11
1.52687
 21
0.522277
 31
0.0
  0
LINE
  8
0
 62
     0
 10
1.52687
 20
0.522277
 30
0.0
 11
1.33119
 21
0.651813
 31
0.0
  0
LINE
  8
0
 62
     0
 10
1.33119
 20
0.651813
 30
0.0
 11
1.14515
 21
0.797885
 31
0.0
  0
LINE
  8
0
 62
     0
 10
1.14515
 20
0.797885
 30
0.0
 11
0.972894
 21
0.957735
 31
0.0
  0
LINE
  8
0
 62
     0
 10
0.972894
 20
0.957735
 30
0.0
 11
0.813043
 21
1.13137
 31
0.0
  0
LINE
  8
0
 62
     0
 10
0.813043
 20
1.13137
 30
0.0
 11
0.666972
 21
1.31603
 31
0.0
  0
LINE
  8
0
 62
     0
 10
0.666972
 20
1.31603
 30
0.0
 11
0.537436
 21
1.51171
 31
0.0
  0
LINE
  8
0
 62
     0
 10
0.537436
 20
1.51171
 30
0.0
 11
0.420303
 21
1.71841
 31
0.0
  0
LINE
  8
0
 62
     0
 10
0.420303
 20
1.71841
 30
0.0
 11
0.322461
 21
1.93063
 31
0.0
  0
LINE
  8
0
 62
     0
 10
0.322461
 20
1.93063
 30
0.0
 11
0.241157
 21
2.15112
 31
0.0
  0
LINE
  8
0
 62
     0
 10
0.241157
 20
2.15112
 30
0.0
 11
0.176389
 21
2.37849
 31
0.0
  0
LINE
  8
0
 62
     0
 10
0.176389
 20
2.37849
 30
0.0
 11
0.130914
 21
2.61001
 31
0.0
  0
LINE
  8
0
 62
     0
 10
0.130914
 20
2.61001
 30
0.0
 11
0.103353
 21
2.84427
 31
0.0
  0
LINE
  8
0
 62
     0
 10
0.103353
 20
2.84427
 30
0.0
 11
0.0937066
 21
3.07992
 31
0.0
  0
LINE
  8
0
 62
     0
 10
0.0937066
 20
3.07992
 30
0.0
 11
0.0950846
 21
87.2793
 31
0.0
  0
LINE
  8
0
 62
     0
 10
0.0950846
 20
87.2793
 30
0.0
 11
0.103353
 21
87.515
 31
0.0
  0
LINE
  8
0
 62
     0
 10
0.103353
 20
87.515
 30
0.0
 11
0.130914
 21
87.7492
 31
0.0
  0
LINE
  8
0
 62
     0
 10
0.130914
 20
87.7492
 30
0.0
 11
0.176389
 21
87.981
 31
0.0
  0
LINE
  8
0
 62
     0
 10
0.176389
 20
87.981
 30
0.0
 11
0.241157
 21
88.2082
 31
0.0
  0
LINE
  8
0
 62
     0
 10
0.241157
 20
88.2082
 30
0.0
 11
0.322461
 21
88.4287
 31
0.0
  0
LINE
  8
0
 62
     0
 10
0.322461
 20
88.4287
 30
0.0
 11
0.420303
 21
88.6425
 31
0.0
  0
LINE
  8
0
 62
     0
 10
0.420303
 20
88.6425
 30
0.0
 11
0.537436
 21
88.8478
 31
0.0
  0
LINE
  8
0
 62
     0
 10
0.537436
 20
88.8478
 30
0.0
 11
0.666972
 21
89.0432
 31
0.0
  0
LINE
  8
0
 62
     0
 10
0.666972
 20
89.0432
 30
0.0
 11
0.813043
 21
89.2295
 31
0.0
  0
LINE
  8
0
 62
     0
 10
0.813043
 20
89.2295
 30
0.0
 11
0.972894
 21
89.4016
 31
0.0
  0
LINE
  8
0
 62
     0
 10
0.972894
 20
89.4016
 30
0.0
 11
1.14515
 21
89.5615
 31
0.0
  0
LINE
  8
0
 62
     0
 10
1.14515
 20
89.5615
 30
0.0
 11
1.33119
 21
89.7075
 31
0.0
  0
LINE
  8
0
 62
     0
 10
1.33119
 20
89.7075
 30
0.0
 11
1.52687
 21
89.837
 31
0.0
  0
LINE
  8
0
 62
     0
 10
1.52687
 20
89.837
 30
0.0
 11
1.7322
 21
89.9541
 31
0.0
  0
LINE
  8
0
 62
     0
 10
1.7322
 20
89.9541
 30
0.0
 11
1.94579
 21
90.0522
 31
0.0
  0
LINE
  8
0
 62
     0
 10
1.94579
 20
90.0522
 30
0.0
 11
2.16628
 21
90.1333
 31
0.0
  0
LINE
  8
0
 62
     0
 10
2.16628
 20
90.1333
 30
0.0
 11
2.39365
 21
90.1982
 31
0.0
  0
LINE
  8
0
 62
     0
 10
2.39365
 20
90.1982
 30
0.0
 11
2.62516
 21
90.2437
 31
0.0
  0
LINE
  8
0
 62
     0
 10
2.62516
 20
90.2437
 30
0.0
 11
2.85943
 21
90.2712
 31
0.0
  0
LINE
  8
0
 62
     0
 10
2.85943
 20
90.2712
 30
0.0
 11
3.09507
 21
90.2808
 31
0.0
  0
LINE
  8
0
 62
     0
 10
3.09507
 20
90.2808
 30
0.0
 11
142.97
 21
90.2808
 31
0.0
  0
LINE
  8
0
 62
     0
 10
294.382
 20
4.50617
 30
0.0
 11
293.963
 21
4.2926
 31
0.0
  0
LINE
  8
0
 62
     0
 10
293.963
 20
4.2926
 30
0.0
 11
293.632
 21
3.96049
 31
0.0
  0
LINE
  8
0
 62
     0
 10
293.632
 20
3.96049
 30
0.0
 11
293.419
 21
3.54295
 31
0.0
  0
LINE
  8
0
 62
     0
 10
293.419
 20
3.54295
 30
0.0
 11
293.346
 21
3.07854
 31
0.0
  0
LINE
  8
0
 62
     0
 10
293.346
 20
3.07854
 30
0.0
 11
293.419
 21
2.61552
 31
0.0
  0
LINE
  8
0
 62
     0
 10
293.419
 20
2.61552
 30
0.0
 11
293.632
 21
2.19797
 31
0.0
  0
LINE
  8
0
 62
     0
 10
293.632
 20
2.19797
 30
0.0
 11
293.963
 21
1.86586
 31
0.0
  0
LINE
  8
0
 62
     0
 10
293.963
 20
1.86586
 30
0.0
 11
294.382
 21
1.65227
 31
0.0
  0
LINE
  8
0
 62
     0
 10
294.382
 20
1.65227
 30
0.0
 11
294.846
 21
1.57923
 31
0.0
  0
LINE
  8
0
 62
     0
 10
294.846
 20
1.57923
 30
0.0
 11
295.308
 21
1.65227
 31
0.0
  0
LINE
  8
0
 62
     0
 10
295.308
 20
1.65227
 30
0.0
 11
295.727
 21
1.86586
 31
0.0
  0
LINE
  8
0
 62
     0
 10
295.727
 20
1.86586
 30
0.0
 11
296.059
 21
2.19797
 31
0.0
  0
LINE
  8
0
 62
     0
 10
296.059
 20
2.19797
 30
0.0
 11
296.271
 21
2.61552
 31
0.0
  0
LINE
  8
0
 62
     0
 10
296.271
 20
2.61552
 30
0.0
 11
296.346
 21
3.07854
 31
0.0
  0
LINE
  8
0
 62
     0
 10
296.346
 20
3.07854
 30
0.0
 11
296.271
 21
3.54295
 31
0.0
  0
LINE
  8
0
 62
     0
 10
296.271
 20
3.54295
 30
0.0
 11
296.059
 21
3.96049
 31
0.0
  0
LINE
  8
0
 62
     0
 10
296.059
 20
3.96049
 30
0.0
 11
295.727
 21
4.2926
 31
0.0
  0
LINE
  8
0
 62
     0
 10
295.727
 20
4.2926
 30
0.0
 11
295.308
 21
4.50617
 31
0.0
  0
LINE
  8
0
 62
     0
 10
295.308
 20
4.50617
 30
0.0
 11
294.846
 21
4.57923
 31
0.0
  0
LINE
  8
0
 62
     0
 10
294.846
 20
4.57923
 30
0.0
 11
294.382
 21
4.50617
 31
0.0
  0
LINE
  8
0
 62
     0
 10
197.131
 20
4.50617
 30
0.0
 11
196.712
 21
4.2926
 31
0.0
  0
LINE
  8
0
 62
     0
 10
196.712
 20
4.2926
 30
0.0
 11
196.382
 21
3.96049
 31
0.0
  0
LINE
  8
0
 62
     0
 10
196.382
 20
3.96049
 30
0.0
 11
196.169
 21
3.54295
 31
0.0
  0
LINE
  8
0
 62
     0
 10
196.169
 20
3.54295
 30
0.0
 11
196.095
 21
3.07854
 31
0.0
  0
LINE
  8
0
 62
     0
 10
196.095
 20
3.07854
 30
0.0
 11
196.169
 21
2.61552
 31
0.0
  0
LINE
  8
0
 62
     0
 10
196.169
 20
2.61552
 30
0.0
 11
196.382
 21
2.19797
 31
0.0
  0
LINE
  8
0
 62
     0
 10
196.382
 20
2.19797
 30
0.0
 11
196.712
 21
1.86586
 31
0.0
  0
LINE
  8
0
 62
     0
 10
196.712
 20
1.86586
 30
0.0
 11
197.131
 21
1.65227
 31
0.0
  0
LINE
  8
0
 62
     0
 10
197.131
 20
1.65227
 30
0.0
 11
197.594
 21
1.57923
 31
0.0
  0
LINE
  8
0
 62
     0
 10
197.594
 20
1.57923
 30
0.0
 11
198.059
 21
1.65227
 31
0.0
  0
LINE
  8
0
 62
     0
 10
198.059
 20
1.65227
 30
0.0
 11
198.476
 21
1.86586
 31
0.0
  0
LINE
  8
0
 62
     0
 10
198.476
 20
1.86586
 30
0.0
 11
198.808
 21
2.19797
 31
0.0
  0
LINE
  8
0
 62
     0
 10
198.808
 20
2.19797
 30
0.0
 11
199.022
 21
2.61552
 31
0.0
  0
LINE
  8
0
 62
     0
 10
199.022
 20
2.61552
 30
0.0
 11
199.095
 21
3.07854
 31
0.0
  0
LINE
  8
0
 62
     0
 10
199.095
 20
3.07854
 30
0.0
 11
199.022
 21
3.54295
 31
0.0
  0
LINE
  8
0
 62
     0
 10
199.022
 20
3.54295
 30
0.0
 11
198.808
 21
3.96049
 31
0.0
  0
LINE
  8
0
 62
     0
 10
198.808
 20
3.96049
 30
0.0
 11
198.476
 21
4.2926
 31
0.0
  0
LINE
  8
0
 62
     0
 10
198.476
 20
4.2926
 30
0.0
 11
198.059
 21
4.50617
 31
0.0
  0
LINE
  8
0
 62
     0
 10
198.059
 20
4.50617
 30
0.0
 11
197.594
 21
4.57923
 31
0.0
  0
LINE
  8
0
 62
     0
 10
197.594
 20
4.57923
 30
0.0
 11
197.131
 21
4.50617
 31
0.0
  0
LINE
  8
0
 62
     0
 10
99.8802
 20
4.50617
 30
0.0
 11
99.4625
 21
4.2926
 31
0.0
  0
LINE
  8
0
 62
     0
 10
99.4625
 20
4.2926
 30
0.0
 11
99.1306
 21
3.96049
 31
0.0
  0
LINE
  8
0
 62
     0
 10
99.1306
 20
3.96049
 30
0.0
 11
98.9182
 21
3.54295
 31
0.0
  0
LINE
  8
0
 62
     0
 10
98.9182
 20
3.54295
 30
0.0
 11
98.8452
 21
3.07854
 31
0.0
  0
LINE
  8
0
 62
     0
 10
98.8452
 20
3.07854
 30
0.0
 11
98.9182
 21
2.61552
 31
0.0
  0
LINE
  8
0
 62
     0
 10
98.9182
 20
2.61552
 30
0.0
 11
99.1306
 21
2.19797
 31
0.0
  0
LINE
  8
0
 62
     0
 10
99.1306
 20
2.19797
 30
0.0
 11
99.4625
 21
1.86586
 31
0.0
  0
LINE
  8
0
 62
     0
 10
99.4625
 20
1.86586
 30
0.0
 11
99.8802
 21
1.65227
 31
0.0
  0
LINE
  8
0
 62
     0
 10
99.8802
 20
1.65227
 30
0.0
 11
100.344
 21
1.57923
 31
0.0
  0
LINE
  8
0
 62
     0
 10
100.344
 20
1.57923
 30
0.0
 11
100.808
 21
1.65227
 31
0.0
  0
LINE
  8
0
 62
     0
 10
100.808
 20
1.65227
 30
0.0
 11
101.226
 21
1.86586
 31
0.0
  0
LINE
  8
0
 62
     0
 10
101.226
 20
1.86586
 30
0.0
 11
101.557
 21
2.19797
 31
0.0
  0
LINE
  8
0
 62
     0
 10
101.557
 20
2.19797
 30
0.0
 11
101.771
 21
2.61552
 31
0.0
  0
LINE
  8
0
 62
     0
 10
101.771
 20
2.61552
 30
0.0
 11
101.845
 21
3.07854
 31
0.0
  0
LINE
  8
0
 62
     0
 10
101.845
 20
3.07854
 30
0.0
 11
101.771
 21
3.54295
 31
0.0
  0
LINE
  8
0
 62
     0
 10
101.771
 20
3.54295
 30
0.0
 11
101.557
 21
3.96049
 31
0.0
  0
LINE
  8
0
 62
     0
 10
101.557
 20
3.96049
 30
0.0
 11
101.226
 21
4.2926
 31
0.0
  0
LINE
  8
0
 62
     0
 10
101.226
 20
4.2926
 30
0.0
 11
100.808
 21
4.50617
 31
0.0
  0
LINE
  8
0
 62
     0
 10
100.808
 20
4.50617
 30
0.0
 11
100.344
 21
4.57923
 31
0.0
  0
LINE
  8
0
 62
     0
 10
100.344
 20
4.57923
 30
0.0
 11
99.8802
 21
4.50617
 31
0.0
  0
LINE
  8
0
 62
     0
 10
2.63067
 20
4.50617
 30
0.0
 11
2.21313
 21
4.2926
 31
0.0
  0
LINE
  8
0
 62
     0
 10
2.21313
 20
4.2926
 30
0.0
 11
1.88102
 21
3.96049
 31
0.0
  0
LINE
  8
0
 62
     0
 10
1.88102
 20
3.96049
 30
0.0
 11
1.66743
 21
3.54295
 31
0.0
  0
LINE
  8
0
 62
     0
 10
1.66743
 20
3.54295
 30
0.0
 11
1.59439
 21
3.07854
 31
0.0
  0
LINE
  8
0
 62
     0
 10
1.59439
 20
3.07854
 30
0.0
 11
1.66743
 21
2.61552
 31
0.0
  0
LINE
  8
0
 62
     0
 10
1.66743
 20
2.61552
 30
0.0
 11
1.88102
 21
2.19797
 31
0.0
  0
LINE
  8
0
 62
     0
 10
1.88102
 20
2.19797
 30
0.0
 11
2.21313
 21
1.86586
 31
0.0
  0
LINE
  8
0
 62
     0
 10
2.21313
 20
1.86586
 30
0.0
 11
2.63067
 21
1.65227
 31
0.0
  0
LINE
  8
0
 62
     0
 10
2.63067
 20
1.65227
 30
0.0
 11
3.09507
 21
1.57923
 31
0.0
  0
LINE
  8
0
 62
     0
 10
3.09507
 20
1.57923
 30
0.0
 11
3.55808
 21
1.65227
 31
0.0
  0
LINE
  8
0
 62
     0
 10
3.55808
 20
1.65227
 30
0.0
 11
3.97563
 21
1.86586
 31
0.0
  0
LINE
  8
0
 62
     0
 10
3.97563
 20
1.86586
 30
0.0
 11
4.30773
 21
2.19797
 31
0.0
  0
LINE
  8
0
 62
     0
 10
4.30773
 20
2.19797
 30
0.0
 11
4.52134
 21
2.61552
 31
0.0
  0
LINE
  8
0
 62
     0
 10
4.52134
 20
2.61552
 30
0.0
 11
4.59437
 21
3.07854
 31
0.0
  0
LINE
  8
0
 62
     0
 10
4.59437
 20
3.07854
 30
0.0
 11
4.52134
 21
3.54295
 31
0.0
  0
LINE
  8
0
 62
     0
 10
4.52134
 20
3.54295
 30
0.0
 11
4.30773
 21
3.96049
 31
0.0
  0
LINE
  8
0
 62
     0
 10
4.30773
 20
3.96049
 30
0.0
 11
3.97563
 21
4.2926
 31
0.0
  0
LINE
  8
0
 62
     0
 10
3.97563
 20
4.2926
 30
0.0
 11
3.55808
 21
4.50617
 31
0.0
  0
LINE
  8
0
 62
     0
 10
3.55808
 20
4.50617
 30
0.0
 11
3.09507
 21
4.57923
 31
0.0
  0
LINE
  8
0
 62
     0
 10
3.09507
 20
4.57923
 30
0.0
 11
2.63067
 21
4.50617
 31
0.0
  0
LINE
  8
0
 62
     0
 10
99.8802
 20
88.707
 30
0.0
 11
99.4625
 21
88.4936
 31
0.0
  0
LINE
  8
0
 62
     0
 10
99.4625
 20
88.4936
 30
0.0
 11
99.1306
 21
88.1613
 31
0.0
  0
LINE
  8
0
 62
     0
 10
99.1306
 20
88.1613
 30
0.0
 11
98.9182
 21
87.744
 31
0.0
  0
LINE
  8
0
 62
     0
 10
98.9182
 20
87.744
 30
0.0
 11
98.8452
 21
87.2793
 31
0.0
  0
LINE
  8
0
 62
     0
 10
98.8452
 20
87.2793
 30
0.0
 11
98.9182
 21
86.8165
 31
0.0
  0
LINE
  8
0
 62
     0
 10
98.9182
 20
86.8165
 30
0.0
 11
99.1306
 21
86.3988
 31
0.0
  0
LINE
  8
0
 62
     0
 10
99.1306
 20
86.3988
 30
0.0
 11
99.4625
 21
86.0668
 31
0.0
  0
LINE
  8
0
 62
     0
 10
99.4625
 20
86.0668
 30
0.0
 11
99.8802
 21
85.8531
 31
0.0
  0
LINE
  8
0
 62
     0
 10
99.8802
 20
85.8531
 30
0.0
 11
100.344
 21
85.78
 31
0.0
  0
LINE
  8
0
 62
     0
 10
100.344
 20
85.78
 30
0.0
 11
100.808
 21
85.8531
 31
0.0
  0
LINE
  8
0
 62
     0
 10
100.808
 20
85.8531
 30
0.0
 11
101.226
 21
86.0668
 31
0.0
  0
LINE
  8
0
 62
     0
 10
101.226
 20
86.0668
 30
0.0
 11
101.557
 21
86.3988
 31
0.0
  0
LINE
  8
0
 62
     0
 10
101.557
 20
86.3988
 30
0.0
 11
101.771
 21
86.8165
 31
0.0
  0
LINE
  8
0
 62
     0
 10
101.771
 20
86.8165
 30
0.0
 11
101.845
 21
87.2793
 31
0.0
  0
LINE
  8
0
 62
     0
 10
101.845
 20
87.2793
 30
0.0
 11
101.771
 21
87.744
 31
0.0
  0
LINE
  8
0
 62
     0
 10
101.771
 20
87.744
 30
0.0
 11
101.557
 21
88.1613
 31
0.0
  0
LINE
  8
0
 62
     0
 10
101.557
 20
88.1613
 30
0.0
 11
101.226
 21
88.4936
 31
0.0
  0
LINE
  8
0
 62
     0
 10
101.226
 20
88.4936
 30
0.0
 11
100.808
 21
88.707
 31
0.0
  0
LINE
  8
0
 62
     0
 10
100.808
 20
88.707
 30
0.0
 11
100.344
 21
88.7801
 31
0.0
  0
LINE
  8
0
 62
     0
 10
100.344
 20
88.7801
 30
0.0
 11
99.8802
 21
88.707
 31
0.0
  0
LINE
  8
0
 62
     0
 10
197.131
 20
88.707
 30
0.0
 11
196.712
 21
88.4936
 31
0.0
  0
LINE
  8
0
 62
     0
 10
196.712
 20
88.4936
 30
0.0
 11
196.382
 21
88.1613
 31
0.0
  0
LINE
  8
0
 62
     0
 10
196.382
 20
88.1613
 30
0.0
 11
196.169
 21
87.744
 31
0.0
  0
LINE
  8
0
 62
     0
 10
196.169
 20
87.744
 30
0.0
 11
196.095
 21
87.2793
 31
0.0
  0
LINE
  8
0
 62
     0
 10
196.095
 20
87.2793
 30
0.0
 11
196.169
 21
86.8165
 31
0.0
  0
LINE
  8
0
 62
     0
 10
196.169
 20
86.8165
 30
0.0
 11
196.382
 21
86.3988
 31
0.0
  0
LINE
  8
0
 62
     0
 10
196.382
 20
86.3988
 30
0.0
 11
196.712
 21
86.0668
 31
0.0
  0
LINE
  8
0
 62
     0
 10
196.712
 20
86.0668
 30
0.0
 11
197.131
 21
85.8531
 31
0.0
  0
LINE
  8
0
 62
     0
 10
197.131
 20
85.8531
 30
0.0
 11
197.594
 21
85.78
 31
0.0
  0
LINE
  8
0
 62
     0
 10
197.594
 20
85.78
 30
0.0
 11
198.059
 21
85.8531
 31
0.0
  0
LINE
  8
0
 62
     0
 10
198.059
 20
85.8531
 30
0.0
 11
198.476
 21
86.0668
 31
0.0
  0
LINE
  8
0
 62
     0
 10
198.476
 20
86.0668
 30
0.0
 11
198.808
 21
86.3988
 31
0.0
  0
LINE
  8
0
 62
     0
 10
198.808
 20
86.3988
 30
0.0
 11
199.022
 21
86.8165
 31
0.0
  0
LINE
  8
0
 62
     0
 10
199.022
 20
86.8165
 30
0.0
 11
199.095
 21
87.2793
 31
0.0
  0
LINE
  8
0
 62
     0
 10
199.095
 20
87.2793
 30
0.0
 11
199.022
 21
87.744
 31
0.0
  0
LINE
  8
0
 62
     0
 10
199.022
 20
87.744
 30
0.0
 11
198.808
 21
88.1613
 31
0.0
  0
LINE
  8
0
 62
     0
 10
198.808
 20
88.1613
 30
0.0
 11
198.476
 21
88.4936
 31
0.0
  0
LINE
  8
0
 62
     0
 10
198.476
 20
88.4936
 30
0.0
 11
198.059
 21
88.707
 31
0.0
  0
LINE
  8
0
 62
     0
 10
198.059
 20
88.707
 30
0.0
 11
197.594
 21
88.7801
 31
0.0
  0
LINE
  8
0
 62
     0
 10
197.594
 20
88.7801
 30
0.0
 11
197.131
 21
88.707
 31
0.0
  0
LINE
  8
0
 62
     0
 10
294.382
 20
88.707
 30
0.0
 11
293.963
 21
88.4936
 31
0.0
  0
LINE
  8
0
 62
     0
 10
293.963
 20
88.4936
 30
0.0
 11
293.632
 21
88.1613
 31
0.0
  0
LINE
  8
0
 62
     0
 10
293.632
 20
88.1613
 30
0.0
 11
293.419
 21
87.744
 31
0.0
  0
LINE
  8
0
 62
     0
 10
293.419
 20
87.744
 30
0.0
 11
293.346
 21
87.2793
 31
0.0
  0
LINE
  8
0
 62
     0
 10
293.346
 20
87.2793
 30
0.0
 11
293.419
 21
86.8165
 31
0.0
  0
LINE
  8
0
 62
     0
 10
293.419
 20
86.8165
 30
0.0
 11
293.632
 21
86.3988
 31
0.0
  0
LINE
  8
0
 62
     0
 10
293.632
 20
86.3988
 30
0.0
 11
293.963
 21
86.0668
 31
0.0
  0
LINE
  8
0
 62
     0
 10
293.963
 20
86.0668
 30
0.0
 11
294.382
 21
85.8531
 31
0.0
  0
LINE
  8
0
 62
     0
 10
294.382
 20
85.8531
 30
0.0
 11
294.846
 21
85.78
 31
0.0
  0
LINE
  8
0
 62
     0
 10
294.846
 20
85.78
 30
0.0
 11
295.308
 21
85.8531
 31
0.0
  0
LINE
  8
0
 62
     0
 10
295.308
 20
85.8531
 30
0.0
 11
295.727
 21
86.0668
 31
0.0
  0
LINE
  8
0
 62
     0
 10
295.727
 20
86.0668
 30
0.0
 11
296.059
 21
86.3988
 31
0.0
  0
LINE
  8
0
 62
     0
 10
296.059
 20
86.3988
 30
0.0
 11
296.271
 21
86.8165
 31
0.0
  0
LINE
  8
0
 62
     0
 10
296.271
 20
86.8165
 30
0.0
 11
296.346
 21
87.2793
 31
0.0
  0
LINE
  8
0
 62
     0
 10
296.346
 20
87.2793
 30
0.0
 11
296.271
 21
87.744
 31
0.0
  0
LINE
  8
0
 62
     0
 10
296.271
 20
87.744
 30
0.0
 11
296.059
 21
88.1613
 31
0.0
  0
LINE
  8
0
 62
     0
 10
296.059
 20
88.1613
 30
0.0
 11
295.727
 21
88.4936
 31
0.0
  0
LINE
  8
0
 62
     0
 10
295.727
 20
88.4936
 30
0.0
 11
295.308
 21
88.707
 31
0.0
  0
LINE
  8
0
 62
     0
 10
295.308
 20
88.707
 30
0.0
 11
294.846
 21
88.7801
 31
0.0
  0
LINE
  8
0
 62
     0
 10
294.846
 20
88.7801
 30
0.0
 11
294.382
 21
88.707
 31
0.0
  0
LINE
  8
0
 62
     0
 10
2.63067
 20
88.707
 30
0.0
 11
2.21313
 21
88.4936
 31
0.0
  0
LINE
  8
0
 62
     0
 10
2.21313
 20
88.4936
 30
0.0
 11
1.88102
 21
88.1613
 31
0.0
  0
LINE
  8
0
 62
     0
 10
1.88102
 20
88.1613
 30
0.0
 11
1.66743
 21
87.744
 31
0.0
  0
LINE
  8
0
 62
     0
 10
1.66743
 20
87.744
 30
0.0
 11
1.59439
 21
87.2793
 31
0.0
  0
LINE
  8
0
 62
     0
 10
1.59439
 20
87.2793
 30
0.0
 11
1.66743
 21
86.8165
 31
0.0
  0
LINE
  8
0
 62
     0
 10
1.66743
 20
86.8165
 30
0.0
 11
1.88102
 21
86.3988
 31
0.0
  0
LINE
  8
0
 62
     0
 10
1.88102
 20
86.3988
 30
0.0
 11
2.21313
 21
86.0668
 31
0.0
  0
LINE
  8
0
 62
     0
 10
2.21313
 20
86.0668
 30
0.0
 11
2.63067
 21
85.8531
 31
0.0
  0
LINE
  8
0
 62
     0
 10
2.63067
 20
85.8531
 30
0.0
 11
3.09507
 21
85.78
 31
0.0
  0
LINE
  8
0
 62
     0
 10
3.09507
 20
85.78
 30
0.0
 11
3.55808
 21
85.8531
 31
0.0
  0
LINE
  8
0
 62
     0
 10
3.55808
 20
85.8531
 30
0.0
 11
3.97563
 21
86.0668
 31
0.0
  0
LINE
  8
0
 62
     0
 10
3.97563
 20
86.0668
 30
0.0
 11
4.30773
 21
86.3988
 31
0.0
  0
LINE
  8
0
 62
     0
 10
4.30773
 20
86.3988
 30
0.0
 11
4.52134
 21
86.8165
 31
0.0
  0
LINE
  8
0
 62
     0
 10
4.52134
 20
86.8165
 30
0.0
 11
4.59437
 21
87.2793
 31
0.0
  0
LINE
  8
0
 62
     0
 10
4.59437
 20
87.2793
 30
0.0
 11
4.52134
 21
87.744
 31
0.0
  0
LINE
  8
0
 62
     0
 10
4.52134
 20
87.744
 30
0.0
 11
4.30773
 21
88.1613
 31
0.0
  0
LINE
  8
0
 62
     0
 10
4.30773
 20
88.1613
 30
0.0
 11
3.97563
 21
88.4936
 31
0.0
  0
LINE
  8
0
 62
     0
 10
3.97563
 20
88.4936
 30
0.0
 11
3.55808
 21
88.707
 31
0.0
  0
LINE
  8
0
 62
     0
 10
3.55808
 20
88.707
 30
0.0
 11
3.09507
 21
88.7801
 31
0.0
  0
LINE
  8
0
 62
     0
 10
3.09507
 20
88.7801
 30
0.0
 11
2.63067
 21
88.707
 31
0.0
  0
ENDSEC
  0
EOF
