M48
;DRILL file {KiCad 4.0.2+dfsg1-stable} date zo 09 apr 2017 14:04:10 CEST
;FORMAT={3:3/ absolute / metric / keep zeros}
FMAT,2
METRIC,TZ
T1C0.300
T2C0.400
T3C0.762
T4C0.996
T5C1.000
T6C1.092
T7C1.092
T8C1.499
T9C1.500
%
G90
G05
M71
T1
X030480Y009906
X032004Y076454
X042164Y009906
X052324Y009906
X065532Y009906
X073660Y009906
X102616Y009398
X120142Y019304
X130556Y077216
X136906Y009398
X138176Y017018
X144780Y023876
X148844Y041402
X149860Y010922
X161036Y037338
X175260Y036322
X180086Y021590
X192024Y038354
X197104Y039878
X208534Y009906
X220726Y010160
X232410Y009906
X244602Y010160
X256286Y009652
X266192Y077978
X267462Y010160
X280162Y009652
T2
X058928Y015748
X073660Y022606
X119126Y011176
X143002Y012700
X144780Y012446
X145288Y013462
X145542Y014478
X145796Y015748
X148336Y071247
X148336Y068326
X153416Y050038
X157988Y069342
X176276Y034290
X183388Y033274
X183896Y031750
X257048Y033274
T3
X147371Y078544
X147438Y021944
X148171Y079743
X148971Y078544
X149234Y023740
X149771Y079743
X150571Y078544
X151030Y025536
T4
X014224Y009906
X016510Y067056
X019050Y048006
X021844Y009906
X023622Y028702
X024130Y067056
X026670Y048006
X031242Y028702
X038100Y009906
X040386Y067056
X045212Y048006
X045720Y009906
X048006Y067056
X052832Y048006
X054610Y028956
X059436Y067056
X061722Y009906
X062230Y028956
X064262Y048006
X067056Y067056
X069342Y009906
X071882Y048006
X073660Y028956
X078486Y067056
X081280Y028956
X083312Y048006
X086106Y067056
X090932Y048006
X092710Y028956
X097536Y067056
X100330Y028956
X102362Y048006
X105156Y067056
X109982Y048006
X111760Y028956
X116586Y067056
X119380Y028956
X121412Y048006
X124206Y067056
X129032Y048006
X130810Y028956
X133350Y009906
X135636Y067056
X138430Y028956
X140462Y048006
X140970Y009906
X143256Y067056
X148082Y048006
X149860Y028956
X154686Y067056
X157480Y028956
X159512Y048006
X162306Y067056
X167132Y048006
X168910Y028956
X173736Y067056
X176530Y028956
X178562Y048006
X181356Y067056
X186182Y048006
X187960Y028956
X192786Y067056
X195580Y028956
X197612Y048006
X200406Y067056
X204724Y009779
X205232Y048006
X207010Y028956
X211836Y067056
X212344Y009779
X214630Y028956
X216662Y048006
X219456Y067056
X224282Y048006
X226060Y028956
X228600Y009906
X230886Y067056
X233680Y028956
X235712Y048006
X236220Y009906
X238506Y067056
X243332Y048006
X249936Y067056
X252476Y009906
X257556Y067056
X260096Y009906
X261874Y028702
X266700Y047752
X269494Y028702
X273812Y067056
X274320Y047752
X276098Y009906
X281432Y067056
X283718Y009906
T5
X107284Y019494
X107284Y015494
X113284Y019494
X113284Y015494
T6
X154178Y025654
T7
X154178Y010414
X156718Y025654
X156718Y010414
X159258Y025654
X159258Y010414
X161798Y025654
X161798Y010414
X164338Y025654
X164338Y010414
X166878Y025654
X166878Y010414
X169418Y025654
X169418Y010414
X171958Y025654
X171958Y010414
X174498Y025654
X174498Y010414
X177038Y025654
X177038Y010414
X179578Y025654
X179578Y010414
X182118Y025654
X182118Y010414
T8
X014224Y020066
X015494Y022860
X016510Y077216
X017780Y080010
X019050Y058166
X020320Y060960
X023622Y038862
X024892Y041656
X038100Y020066
X039370Y022860
X040386Y077216
X041656Y080010
X045212Y058166
X046482Y060960
X054610Y039116
X055880Y041910
X059436Y077216
X060706Y080010
X061722Y020066
X062992Y022860
X064262Y058166
X065532Y060960
X073660Y039116
X074930Y041910
X078486Y077216
X079756Y080010
X083312Y058166
X084582Y060960
X092710Y039116
X093980Y041910
X097536Y077216
X098806Y080010
X102362Y058166
X103632Y060960
X111760Y039116
X113030Y041910
X116586Y077216
X117856Y080010
X121412Y058166
X122682Y060960
X130810Y039116
X132080Y041910
X133350Y020066
X134620Y022860
X135636Y077216
X136906Y080010
X140462Y058166
X141732Y060960
X149860Y039116
X151130Y041910
X154686Y077216
X155956Y080010
X159512Y058166
X160782Y060960
X168910Y039116
X170180Y041910
X173736Y077216
X175006Y080010
X178562Y058166
X179832Y060960
X187960Y039116
X189230Y041910
X192786Y077216
X194056Y080010
X197612Y058166
X198882Y060960
X204724Y019939
X205994Y022733
X207010Y039116
X208280Y041910
X211836Y077216
X213106Y080010
X216662Y058166
X217932Y060960
X226060Y039116
X227330Y041910
X228600Y020066
X229870Y022860
X230886Y077216
X232156Y080010
X235712Y058166
X236982Y060960
X249936Y077216
X251206Y080010
X252476Y020066
X253746Y022860
X261874Y038862
X263144Y041656
X266700Y057912
X267970Y060706
X273812Y077216
X275082Y080010
X276098Y020066
X277368Y022860
T3
X145324Y084165G85X145324Y083022
G05
X152618Y084165G85X152618Y083022
G05
T9
X020572Y022637G85X020830Y021305
G05
X022858Y079787G85X023116Y078455
G05
X025398Y060737G85X025656Y059405
G05
X029970Y041433G85X030228Y040101
G05
X044448Y022637G85X044706Y021305
G05
X046734Y079787G85X046992Y078455
G05
X051560Y060737G85X051818Y059405
G05
X060958Y041687G85X061216Y040355
G05
X065784Y079787G85X066042Y078455
G05
X068070Y022637G85X068328Y021305
G05
X070610Y060737G85X070868Y059405
G05
X080008Y041687G85X080266Y040355
G05
X084834Y079787G85X085092Y078455
G05
X089660Y060737G85X089918Y059405
G05
X099058Y041687G85X099316Y040355
G05
X103884Y079787G85X104142Y078455
G05
X108710Y060737G85X108968Y059405
G05
X118108Y041687G85X118366Y040355
G05
X122934Y079787G85X123192Y078455
G05
X127760Y060737G85X128018Y059405
G05
X137158Y041687G85X137416Y040355
G05
X139698Y022637G85X139956Y021305
G05
X141984Y079787G85X142242Y078455
G05
X146810Y060737G85X147068Y059405
G05
X156208Y041687G85X156466Y040355
G05
X161034Y079787G85X161292Y078455
G05
X165860Y060737G85X166118Y059405
G05
X175258Y041687G85X175516Y040355
G05
X180084Y079787G85X180342Y078455
G05
X184910Y060737G85X185168Y059405
G05
X194308Y041687G85X194566Y040355
G05
X199134Y079787G85X199392Y078455
G05
X203960Y060737G85X204218Y059405
G05
X211072Y022510G85X211330Y021178
G05
X213358Y041687G85X213616Y040355
G05
X218184Y079787G85X218442Y078455
G05
X223010Y060737G85X223268Y059405
G05
X232408Y041687G85X232666Y040355
G05
X234948Y022637G85X235206Y021305
G05
X237234Y079787G85X237492Y078455
G05
X242060Y060737G85X242318Y059405
G05
X256284Y079787G85X256542Y078455
G05
X258824Y022637G85X259082Y021305
G05
X268222Y041433G85X268480Y040101
G05
X273048Y060483G85X273306Y059151
G05
X280160Y079787G85X280418Y078455
G05
X282446Y022637G85X282704Y021305
G05
T0
M30
