M48
;DRILL file {KiCad 4.0.2+dfsg1-stable} date zo 09 apr 2017 14:04:10 CEST
;FORMAT={3:3/ absolute / metric / keep zeros}
FMAT,2
METRIC,TZ
T1C1.702
T2C3.048
T3C3.988
%
G90
G05
M71
T1
X013462Y017018
X015748Y074168
X018288Y055118
X022606Y017018
X022860Y035814
X024892Y074168
X027432Y055118
X032004Y035814
X037338Y017018
X039624Y074168
X044450Y055118
X046482Y017018
X048768Y074168
X053594Y055118
X053848Y036068
X058674Y074168
X060960Y017018
X062992Y036068
X063500Y055118
X067818Y074168
X070104Y017018
X072644Y055118
X072898Y036068
X077724Y074168
X082042Y036068
X082550Y055118
X086868Y074168
X091694Y055118
X091948Y036068
X096774Y074168
X101092Y036068
X101600Y055118
X105918Y074168
X110744Y055118
X110998Y036068
X115824Y074168
X120142Y036068
X120650Y055118
X124968Y074168
X129794Y055118
X130048Y036068
X132588Y017018
X134874Y074168
X139192Y036068
X139700Y055118
X141732Y017018
X144018Y074168
X148844Y055118
X149098Y036068
X153924Y074168
X158242Y036068
X158750Y055118
X163068Y074168
X167894Y055118
X168148Y036068
X172974Y074168
X177292Y036068
X177800Y055118
X182118Y074168
X186944Y055118
X187198Y036068
X192024Y074168
X196342Y036068
X196850Y055118
X201168Y074168
X203962Y016891
X205994Y055118
X206248Y036068
X211074Y074168
X213106Y016891
X215392Y036068
X215900Y055118
X220218Y074168
X225044Y055118
X225298Y036068
X227838Y017018
X230124Y074168
X234442Y036068
X234950Y055118
X236982Y017018
X239268Y074168
X244094Y055118
X249174Y074168
X251714Y017018
X258318Y074168
X260858Y017018
X261112Y035814
X265938Y054864
X270256Y035814
X273050Y074168
X275082Y054864
X275336Y017018
X282194Y074168
X284480Y017018
T2
X015494Y043307
X039370Y043307
X087122Y024511
X187198Y024511
X253746Y043307
X258572Y062357
X277622Y043307
X282448Y062357
T3
X015494Y028067
X039370Y028067
X087122Y009271
X187198Y009271
X253746Y028067
X258572Y047117
X277622Y028067
X282448Y047117
T0
M30
