G04 #@! TF.FileFunction,Legend,Bot*
%FSLAX46Y46*%
G04 Gerber Fmt 4.6, Leading zero omitted, Abs format (unit mm)*
G04 Created by KiCad (PCBNEW 4.0.2+dfsg1-stable) date zo 09 apr 2017 16:36:01 CEST*
%MOMM*%
G01*
G04 APERTURE LIST*
%ADD10C,0.100000*%
%ADD11C,0.250000*%
%ADD12C,1.000000*%
%ADD13C,2.000000*%
%ADD14C,0.150000*%
%ADD15C,0.381000*%
%ADD16C,0.203200*%
%ADD17C,0.304800*%
G04 APERTURE END LIST*
D10*
D11*
X147629619Y81161048D02*
X148629619Y81161048D01*
X148629619Y81399143D01*
X148582000Y81542001D01*
X148486762Y81637239D01*
X148391524Y81684858D01*
X148201048Y81732477D01*
X148058190Y81732477D01*
X147867714Y81684858D01*
X147772476Y81637239D01*
X147677238Y81542001D01*
X147629619Y81399143D01*
X147629619Y81161048D01*
X148010571Y82161048D02*
X148010571Y82922953D01*
X146772381Y77025333D02*
X147772381Y76692000D01*
X146772381Y76358666D01*
X147677143Y75453904D02*
X147724762Y75501523D01*
X147772381Y75644380D01*
X147772381Y75739618D01*
X147724762Y75882476D01*
X147629524Y75977714D01*
X147534286Y76025333D01*
X147343810Y76072952D01*
X147200952Y76072952D01*
X147010476Y76025333D01*
X146915238Y75977714D01*
X146820000Y75882476D01*
X146772381Y75739618D01*
X146772381Y75644380D01*
X146820000Y75501523D01*
X146867619Y75453904D01*
X147677143Y74453904D02*
X147724762Y74501523D01*
X147772381Y74644380D01*
X147772381Y74739618D01*
X147724762Y74882476D01*
X147629524Y74977714D01*
X147534286Y75025333D01*
X147343810Y75072952D01*
X147200952Y75072952D01*
X147010476Y75025333D01*
X146915238Y74977714D01*
X146820000Y74882476D01*
X146772381Y74739618D01*
X146772381Y74644380D01*
X146820000Y74501523D01*
X146867619Y74453904D01*
X149550381Y76572952D02*
X148550381Y76572952D01*
X148550381Y76334857D01*
X148598000Y76191999D01*
X148693238Y76096761D01*
X148788476Y76049142D01*
X148978952Y76001523D01*
X149121810Y76001523D01*
X149312286Y76049142D01*
X149407524Y76096761D01*
X149502762Y76191999D01*
X149550381Y76334857D01*
X149550381Y76572952D01*
X149169429Y75572952D02*
X149169429Y74811047D01*
X149550381Y75191999D02*
X148788476Y75191999D01*
D12*
X162756667Y46760095D02*
X162756667Y51760095D01*
X161090000Y48188667D01*
X159423333Y51760095D01*
X159423333Y46760095D01*
X157042381Y46760095D02*
X157042381Y50093429D01*
X157042381Y51760095D02*
X157280476Y51522000D01*
X157042381Y51283905D01*
X156804286Y51522000D01*
X157042381Y51760095D01*
X157042381Y51283905D01*
X154661429Y50093429D02*
X154661429Y46760095D01*
X154661429Y49617238D02*
X154423334Y49855333D01*
X153947143Y50093429D01*
X153232857Y50093429D01*
X152756667Y49855333D01*
X152518572Y49379143D01*
X152518572Y46760095D01*
X147994762Y50093429D02*
X147994762Y46760095D01*
X150137619Y50093429D02*
X150137619Y47474381D01*
X149899524Y46998190D01*
X149423333Y46760095D01*
X148709047Y46760095D01*
X148232857Y46998190D01*
X147994762Y47236286D01*
X145851904Y46998190D02*
X145375714Y46760095D01*
X144423333Y46760095D01*
X143947142Y46998190D01*
X143709047Y47474381D01*
X143709047Y47712476D01*
X143947142Y48188667D01*
X144423333Y48426762D01*
X145137618Y48426762D01*
X145613809Y48664857D01*
X145851904Y49141048D01*
X145851904Y49379143D01*
X145613809Y49855333D01*
X145137618Y50093429D01*
X144423333Y50093429D01*
X143947142Y49855333D01*
X139423333Y51760095D02*
X140375714Y51760095D01*
X140851904Y51522000D01*
X141089999Y51283905D01*
X141566190Y50569619D01*
X141804285Y49617238D01*
X141804285Y47712476D01*
X141566190Y47236286D01*
X141328095Y46998190D01*
X140851904Y46760095D01*
X139899523Y46760095D01*
X139423333Y46998190D01*
X139185237Y47236286D01*
X138947142Y47712476D01*
X138947142Y48902952D01*
X139185237Y49379143D01*
X139423333Y49617238D01*
X139899523Y49855333D01*
X140851904Y49855333D01*
X141328095Y49617238D01*
X141566190Y49379143D01*
X141804285Y48902952D01*
X135851904Y51760095D02*
X135375713Y51760095D01*
X134899523Y51522000D01*
X134661428Y51283905D01*
X134423332Y50807714D01*
X134185237Y49855333D01*
X134185237Y48664857D01*
X134423332Y47712476D01*
X134661428Y47236286D01*
X134899523Y46998190D01*
X135375713Y46760095D01*
X135851904Y46760095D01*
X136328094Y46998190D01*
X136566190Y47236286D01*
X136804285Y47712476D01*
X137042380Y48664857D01*
X137042380Y49855333D01*
X136804285Y50807714D01*
X136566190Y51283905D01*
X136328094Y51522000D01*
X135851904Y51760095D01*
D13*
X177473428Y58782857D02*
X167797238Y58782857D01*
X156306761Y66644762D02*
X158725809Y66644762D01*
X159935333Y66040000D01*
X160540095Y65435238D01*
X161749618Y63620952D01*
X162354380Y61201905D01*
X162354380Y56363810D01*
X161749618Y55154286D01*
X161144857Y54549524D01*
X159935333Y53944762D01*
X157516285Y53944762D01*
X156306761Y54549524D01*
X155701999Y55154286D01*
X155097238Y56363810D01*
X155097238Y59387619D01*
X155701999Y60597143D01*
X156306761Y61201905D01*
X157516285Y61806667D01*
X159935333Y61806667D01*
X161144857Y61201905D01*
X161749618Y60597143D01*
X162354380Y59387619D01*
X147235333Y66644762D02*
X146025809Y66644762D01*
X144816285Y66040000D01*
X144211523Y65435238D01*
X143606761Y64225714D01*
X143002000Y61806667D01*
X143002000Y58782857D01*
X143606761Y56363810D01*
X144211523Y55154286D01*
X144816285Y54549524D01*
X146025809Y53944762D01*
X147235333Y53944762D01*
X148444857Y54549524D01*
X149049619Y55154286D01*
X149654380Y56363810D01*
X150259142Y58782857D01*
X150259142Y61806667D01*
X149654380Y64225714D01*
X149049619Y65435238D01*
X148444857Y66040000D01*
X147235333Y66644762D01*
X135744857Y66644762D02*
X136954381Y66040000D01*
X137559142Y64830476D01*
X136954381Y63620952D01*
X135744857Y63016190D01*
X134535333Y63620952D01*
X133930571Y64830476D01*
X134535333Y66040000D01*
X135744857Y66644762D01*
D14*
X152908000Y15494000D02*
X155448000Y15494000D01*
X155448000Y15494000D02*
X155448000Y20574000D01*
X155448000Y20574000D02*
X152908000Y20574000D01*
X152908000Y20574000D02*
X152908000Y15494000D01*
X155448000Y9144000D02*
X155448000Y11684000D01*
X155448000Y11684000D02*
X157988000Y11684000D01*
X157988000Y11684000D02*
X157988000Y9144000D01*
D15*
X152908000Y9144000D02*
X152908000Y26924000D01*
X152908000Y26924000D02*
X183388000Y26924000D01*
X183388000Y26924000D02*
X183388000Y9144000D01*
X183388000Y9144000D02*
X152908000Y9144000D01*
X145120360Y87342980D02*
X145120360Y78343760D01*
X145120360Y78343760D02*
X152821640Y78343760D01*
X152821640Y78343760D02*
X152821640Y87342980D01*
X152821640Y87342980D02*
X145120360Y87342980D01*
D16*
X170143714Y16189476D02*
X170143714Y17459476D01*
X169563142Y17459476D01*
X169418000Y17399000D01*
X169345428Y17338524D01*
X169272857Y17217571D01*
X169272857Y17036143D01*
X169345428Y16915190D01*
X169418000Y16854714D01*
X169563142Y16794238D01*
X170143714Y16794238D01*
X168619714Y16189476D02*
X168619714Y17459476D01*
X168111714Y16552333D01*
X167603714Y17459476D01*
X167603714Y16189476D01*
X166587714Y17459476D02*
X166442571Y17459476D01*
X166297428Y17399000D01*
X166224857Y17338524D01*
X166152286Y17217571D01*
X166079714Y16975667D01*
X166079714Y16673286D01*
X166152286Y16431381D01*
X166224857Y16310429D01*
X166297428Y16249952D01*
X166442571Y16189476D01*
X166587714Y16189476D01*
X166732857Y16249952D01*
X166805428Y16310429D01*
X166878000Y16431381D01*
X166950571Y16673286D01*
X166950571Y16975667D01*
X166878000Y17217571D01*
X166805428Y17338524D01*
X166732857Y17399000D01*
X166587714Y17459476D01*
D17*
X151341667Y85047667D02*
X151341667Y83608333D01*
X151257000Y83439000D01*
X151172333Y83354333D01*
X151003000Y83269667D01*
X150664333Y83269667D01*
X150495000Y83354333D01*
X150410333Y83439000D01*
X150325667Y83608333D01*
X150325667Y85047667D01*
X149563666Y83354333D02*
X149309666Y83269667D01*
X148886333Y83269667D01*
X148717000Y83354333D01*
X148632333Y83439000D01*
X148547666Y83608333D01*
X148547666Y83777667D01*
X148632333Y83947000D01*
X148717000Y84031667D01*
X148886333Y84116333D01*
X149225000Y84201000D01*
X149394333Y84285667D01*
X149479000Y84370333D01*
X149563666Y84539667D01*
X149563666Y84709000D01*
X149479000Y84878333D01*
X149394333Y84963000D01*
X149225000Y85047667D01*
X148801666Y85047667D01*
X148547666Y84963000D01*
X147193000Y84201000D02*
X146939000Y84116333D01*
X146854333Y84031667D01*
X146769667Y83862333D01*
X146769667Y83608333D01*
X146854333Y83439000D01*
X146939000Y83354333D01*
X147108333Y83269667D01*
X147785667Y83269667D01*
X147785667Y85047667D01*
X147193000Y85047667D01*
X147023667Y84963000D01*
X146939000Y84878333D01*
X146854333Y84709000D01*
X146854333Y84539667D01*
X146939000Y84370333D01*
X147023667Y84285667D01*
X147193000Y84201000D01*
X147785667Y84201000D01*
D14*
X153381712Y22747906D02*
X153954132Y22175486D01*
X153987803Y22074471D01*
X153987803Y22007127D01*
X153954132Y21906112D01*
X153819444Y21771425D01*
X153718429Y21737753D01*
X153651085Y21737753D01*
X153550070Y21771425D01*
X152977650Y22343845D01*
X152708277Y22074471D02*
X153247025Y21199005D01*
X152607261Y21569394D01*
X152977650Y20929631D01*
X152102185Y21468379D01*
X151698124Y21064319D02*
X151630780Y20996974D01*
X151597109Y20895959D01*
X151597109Y20828616D01*
X151630780Y20727601D01*
X151731795Y20559242D01*
X151900155Y20390883D01*
X152068513Y20289868D01*
X152169528Y20256196D01*
X152236872Y20256196D01*
X152337887Y20289868D01*
X152405231Y20357212D01*
X152438903Y20458227D01*
X152438903Y20525570D01*
X152405231Y20626586D01*
X152304216Y20794944D01*
X152135857Y20963303D01*
X151967498Y21064319D01*
X151866483Y21097990D01*
X151799140Y21097990D01*
X151698124Y21064319D01*
X154156162Y24454390D02*
X153213353Y23982986D01*
X153684757Y24925795D01*
X152405230Y24925795D02*
X152405230Y24858452D01*
X152472574Y24723765D01*
X152539917Y24656421D01*
X152674605Y24589077D01*
X152809292Y24589077D01*
X152910307Y24622749D01*
X153078666Y24723764D01*
X153179681Y24824780D01*
X153280697Y24993138D01*
X153314368Y25094154D01*
X153314368Y25228841D01*
X153247024Y25363528D01*
X153179681Y25430872D01*
X153044994Y25498215D01*
X152977650Y25498215D01*
X151698124Y25632902D02*
X151698124Y25565558D01*
X151765467Y25430872D01*
X151832811Y25363528D01*
X151967498Y25296184D01*
X152102185Y25296184D01*
X152203200Y25329856D01*
X152371559Y25430871D01*
X152472575Y25531887D01*
X152573590Y25700245D01*
X152607261Y25801260D01*
X152607261Y25935947D01*
X152539917Y26070635D01*
X152472574Y26137978D01*
X152337887Y26205322D01*
X152270544Y26205322D01*
X151333122Y22271114D02*
X152040229Y22978221D01*
X151871871Y23146580D01*
X151737183Y23213924D01*
X151602496Y23213924D01*
X151501481Y23180252D01*
X151333122Y23079237D01*
X151232107Y22978221D01*
X151131091Y22809862D01*
X151097420Y22708847D01*
X151097420Y22574160D01*
X151164764Y22439473D01*
X151333122Y22271114D01*
X150895389Y23247595D02*
X150356641Y23786343D01*
X149537071Y20475063D02*
X150244178Y21182170D01*
X150075820Y21350529D01*
X149941132Y21417873D01*
X149806445Y21417873D01*
X149705430Y21384201D01*
X149537071Y21283186D01*
X149436056Y21182170D01*
X149335040Y21013811D01*
X149301369Y20912796D01*
X149301369Y20778109D01*
X149368713Y20643422D01*
X149537071Y20475063D01*
X149099338Y21451544D02*
X148560590Y21990292D01*
X148560590Y21451544D02*
X149099338Y21990293D01*
M02*
