M48
;DRILL file {KiCad 4.0.2+dfsg1-stable} date zo 09 apr 2017 16:36:53 CEST
;FORMAT={2:4/ absolute / inch / keep zeros}
FMAT,2
INCH,TZ
T1C0.012
T2C0.016
T3C0.030
T4C0.039
T5C0.039
T6C0.043
T7C0.043
T8C0.059
T9C0.059
%
G90
G05
M72
T1
X012000Y003900
X012600Y030100
X016600Y003900
X020600Y003900
X025800Y003900
X029000Y003900
X044900Y003900
X047300Y007600
X051400Y030400
X051800Y008900
X053600Y008200
X054000Y003900
X057000Y009400
X058600Y016300
X059000Y004300
X064900Y015600
X068000Y012800
X070900Y008500
X071400Y014200
X075300Y015800
X077600Y015700
X082100Y003900
X086900Y004000
X091500Y003900
X096300Y004000
X100900Y003800
X104800Y030700
X105300Y004000
X110300Y003800
T2
X023200Y006200
X029000Y008900
X046900Y004400
X056900Y004400
X057000Y004900
X057200Y005300
X057300Y005700
X057400Y006200
X058400Y028050
X058400Y026900
X060400Y019700
X060800Y018100
X062200Y027300
X063600Y015600
X069400Y012800
X071200Y013000
X072400Y012500
X101200Y012500
T3
X058020Y030923
X058046Y009139
X058335Y031395
X058650Y030923
X058754Y009846
X058965Y031395
X059280Y030923
X059461Y010554
T4
X005600Y003900
X006500Y026400
X007500Y018900
X008600Y003900
X009300Y011300
X009500Y026400
X010500Y018900
X012300Y011300
X015000Y003900
X015900Y026400
X017800Y018900
X018000Y003900
X018900Y026400
X020800Y018900
X021500Y011400
X023400Y026400
X024300Y003900
X024500Y011400
X025300Y018900
X026400Y026400
X027300Y003900
X028300Y018900
X029000Y011400
X030900Y026400
X032000Y011400
X032800Y018900
X033900Y026400
X035800Y018900
X036500Y011400
X038400Y026400
X039500Y011400
X040300Y018900
X041400Y026400
X043300Y018900
X044000Y011400
X045900Y026400
X047000Y011400
X047800Y018900
X048900Y026400
X050800Y018900
X051500Y011400
X052500Y003900
X053400Y026400
X054500Y011400
X055300Y018900
X055500Y003900
X056400Y026400
X058300Y018900
X059000Y011400
X060900Y026400
X062000Y011400
X062800Y018900
X063900Y026400
X065800Y018900
X066500Y011400
X068400Y026400
X069500Y011400
X070300Y018900
X071400Y026400
X073300Y018900
X074000Y011400
X075900Y026400
X077000Y011400
X077800Y018900
X078900Y026400
X080600Y003850
X080800Y018900
X081500Y011400
X083400Y026400
X083600Y003850
X084500Y011400
X085300Y018900
X086400Y026400
X088300Y018900
X089000Y011400
X090000Y003900
X090900Y026400
X092000Y011400
X092800Y018900
X093000Y003900
X093900Y026400
X095800Y018900
X098400Y026400
X099400Y003900
X101400Y026400
X102400Y003900
X103100Y011300
X105000Y018800
X106100Y011300
X107800Y026400
X108000Y018800
X108700Y003900
X110800Y026400
X111700Y003900
T5
X042238Y007675
X042238Y006100
X044600Y007675
X044600Y006100
T6
X060700Y010100
T7
X060700Y004100
X061700Y010100
X061700Y004100
X062700Y010100
X062700Y004100
X063700Y010100
X063700Y004100
X064700Y010100
X064700Y004100
X065700Y010100
X065700Y004100
X066700Y010100
X066700Y004100
X067700Y010100
X067700Y004100
X068700Y010100
X068700Y004100
X069700Y010100
X069700Y004100
X070700Y010100
X070700Y004100
X071700Y010100
X071700Y004100
T8
X005600Y007900
X006100Y009000
X006500Y030400
X007000Y031500
X007500Y022900
X008000Y024000
X009300Y015300
X009800Y016400
X015000Y007900
X015500Y009000
X015900Y030400
X016400Y031500
X017800Y022900
X018300Y024000
X021500Y015400
X022000Y016500
X023400Y030400
X023900Y031500
X024300Y007900
X024800Y009000
X025300Y022900
X025800Y024000
X029000Y015400
X029500Y016500
X030900Y030400
X031400Y031500
X032800Y022900
X033300Y024000
X036500Y015400
X037000Y016500
X038400Y030400
X038900Y031500
X040300Y022900
X040800Y024000
X044000Y015400
X044500Y016500
X045900Y030400
X046400Y031500
X047800Y022900
X048300Y024000
X051500Y015400
X052000Y016500
X052500Y007900
X053000Y009000
X053400Y030400
X053900Y031500
X055300Y022900
X055800Y024000
X059000Y015400
X059500Y016500
X060900Y030400
X061400Y031500
X062800Y022900
X063300Y024000
X066500Y015400
X067000Y016500
X068400Y030400
X068900Y031500
X070300Y022900
X070800Y024000
X074000Y015400
X074500Y016500
X075900Y030400
X076400Y031500
X077800Y022900
X078300Y024000
X080600Y007850
X081100Y008950
X081500Y015400
X082000Y016500
X083400Y030400
X083900Y031500
X085300Y022900
X085800Y024000
X089000Y015400
X089500Y016500
X090000Y007900
X090500Y009000
X090900Y030400
X091400Y031500
X092800Y022900
X093300Y024000
X098400Y030400
X098900Y031500
X099400Y007900
X099900Y009000
X103100Y015300
X103600Y016400
X105000Y022800
X105500Y023900
X107800Y030400
X108300Y031500
X108700Y007900
X109200Y009000
T3
X057214Y033136G85X057214Y032686
G05
X060086Y033136G85X060086Y032686
G05
T9
X008099Y008912G85X008201Y008388
G05
X008999Y031412G85X009101Y030888
G05
X009999Y023912G85X010101Y023388
G05
X011799Y016312G85X011901Y015788
G05
X017499Y008912G85X017601Y008388
G05
X018399Y031412G85X018501Y030888
G05
X020299Y023912G85X020401Y023388
G05
X023999Y016412G85X024101Y015888
G05
X025899Y031412G85X026001Y030888
G05
X026799Y008912G85X026901Y008388
G05
X027799Y023912G85X027901Y023388
G05
X031499Y016412G85X031601Y015888
G05
X033399Y031412G85X033501Y030888
G05
X035299Y023912G85X035401Y023388
G05
X038999Y016412G85X039101Y015888
G05
X040899Y031412G85X041001Y030888
G05
X042799Y023912G85X042901Y023388
G05
X046499Y016412G85X046601Y015888
G05
X048399Y031412G85X048501Y030888
G05
X050299Y023912G85X050401Y023388
G05
X053999Y016412G85X054101Y015888
G05
X054999Y008912G85X055101Y008388
G05
X055899Y031412G85X056001Y030888
G05
X057799Y023912G85X057901Y023388
G05
X061499Y016412G85X061601Y015888
G05
X063399Y031412G85X063501Y030888
G05
X065299Y023912G85X065401Y023388
G05
X068999Y016412G85X069101Y015888
G05
X070899Y031412G85X071001Y030888
G05
X072799Y023912G85X072901Y023388
G05
X076499Y016412G85X076601Y015888
G05
X078399Y031412G85X078501Y030888
G05
X080299Y023912G85X080401Y023388
G05
X083099Y008862G85X083201Y008338
G05
X083999Y016412G85X084101Y015888
G05
X085899Y031412G85X086001Y030888
G05
X087799Y023912G85X087901Y023388
G05
X091499Y016412G85X091601Y015888
G05
X092499Y008912G85X092601Y008388
G05
X093399Y031412G85X093501Y030888
G05
X095299Y023912G85X095401Y023388
G05
X100899Y031412G85X101001Y030888
G05
X101899Y008912G85X102001Y008388
G05
X105599Y016312G85X105701Y015788
G05
X107499Y023812G85X107601Y023288
G05
X110299Y031412G85X110401Y030888
G05
X111199Y008912G85X111301Y008388
G05
T0
M30
