M48
;DRILL file {KiCad 4.0.2+dfsg1-stable} date zo 09 apr 2017 16:36:53 CEST
;FORMAT={2:4/ absolute / inch / keep zeros}
FMAT,2
INCH,TZ
T1C0.067
T2C0.120
T3C0.157
%
G90
G05
M72
T1
X005300Y006700
X006200Y029200
X007200Y021700
X008900Y006700
X009000Y014100
X009800Y029200
X010800Y021700
X012600Y014100
X014700Y006700
X015600Y029200
X017500Y021700
X018300Y006700
X019200Y029200
X021100Y021700
X021200Y014200
X023100Y029200
X024000Y006700
X024800Y014200
X025000Y021700
X026700Y029200
X027600Y006700
X028600Y021700
X028700Y014200
X030600Y029200
X032300Y014200
X032500Y021700
X034200Y029200
X036100Y021700
X036200Y014200
X038100Y029200
X039800Y014200
X040000Y021700
X041700Y029200
X043600Y021700
X043700Y014200
X045600Y029200
X047300Y014200
X047500Y021700
X049200Y029200
X051100Y021700
X051200Y014200
X052200Y006700
X053100Y029200
X054800Y014200
X055000Y021700
X055800Y006700
X056700Y029200
X058600Y021700
X058700Y014200
X060600Y029200
X062300Y014200
X062500Y021700
X064200Y029200
X066100Y021700
X066200Y014200
X068100Y029200
X069800Y014200
X070000Y021700
X071700Y029200
X073600Y021700
X073700Y014200
X075600Y029200
X077300Y014200
X077500Y021700
X079200Y029200
X080300Y006650
X081100Y021700
X081200Y014200
X083100Y029200
X083900Y006650
X084800Y014200
X085000Y021700
X086700Y029200
X088600Y021700
X088700Y014200
X089700Y006700
X090600Y029200
X092300Y014200
X092500Y021700
X093300Y006700
X094200Y029200
X096100Y021700
X098100Y029200
X099100Y006700
X101700Y029200
X102700Y006700
X102800Y014100
X104700Y021600
X106400Y014100
X107500Y029200
X108300Y021600
X108400Y006700
X111100Y029200
X112000Y006700
T2
X006100Y017050
X015500Y017050
X034300Y009650
X073700Y009650
X099900Y017050
X101800Y024550
X109300Y017050
X111200Y024550
T3
X006100Y011050
X007100Y006900
X008000Y029400
X009000Y021900
X010800Y014300
X015500Y011050
X016500Y006900
X017400Y029400
X019300Y021900
X023000Y014400
X024900Y029400
X025800Y006900
X026800Y021900
X030500Y014400
X032400Y029400
X034300Y021900
X034300Y003650
X038000Y014400
X039900Y029400
X041800Y021900
X045500Y014400
X047400Y029400
X049300Y021900
X053000Y014400
X054000Y006900
X054900Y029400
X056800Y021900
X060500Y014400
X062400Y029400
X064300Y021900
X068000Y014400
X069900Y029400
X071800Y021900
X073700Y003650
X075500Y014400
X077400Y029400
X079300Y021900
X082100Y006850
X083000Y014400
X084900Y029400
X086800Y021900
X090500Y014400
X091500Y006900
X092400Y029400
X094300Y021900
X099900Y029400
X099900Y011050
X100900Y006900
X101800Y018550
X104600Y014300
X106500Y021800
X109300Y029400
X109300Y011050
X110200Y006900
X111200Y018550
T0
M30
